<svg width="24" height="24" viewBox="0 0 24 24" fill="none" xmlns="http://www.w3.org/2000/svg">
<path d="M12 0C5.38312 0 0 5.38312 0 12C0 18.6169 5.38312 24 12 24C18.6169 24 24 18.6169 24 12C24 5.38312 18.6169 0 12 0ZM12 22.2857C6.32827 22.2857 1.71427 17.6717 1.71427 12C1.71427 6.32827 6.32827 1.71427 12 1.71427C17.6717 1.71427 22.2857 6.32827 22.2857 12C22.2857 17.6717 17.6717 22.2857 12 22.2857Z" fill="white"/>
<path d="M12.0002 6.2854C11.5268 6.2854 11.1431 6.66912 11.1431 7.14256V16.8568C11.1431 17.3303 11.5268 17.714 12.0002 17.714C12.4736 17.714 12.8574 17.3303 12.8574 16.8568V7.14256C12.8574 6.66912 12.4736 6.2854 12.0002 6.2854Z" fill="white"/>
<path d="M16.8571 11.1431H7.1428C6.66936 11.1431 6.28564 11.5268 6.28564 12.0002C6.28564 12.4736 6.66936 12.8574 7.1428 12.8574H16.8571C17.3305 12.8574 17.7142 12.4736 17.7142 12.0002C17.7142 11.5268 17.3305 11.1431 16.8571 11.1431Z" fill="white"/>
</svg>
