<svg width="24" height="24" viewBox="0 0 24 24" fill="none" xmlns="http://www.w3.org/2000/svg">
<path d="M12.0001 0C10.4737 0 9.23193 1.24181 9.23193 2.76816C9.23193 4.2945 10.4737 5.53631 12.0001 5.53631C13.5264 5.53631 14.7683 4.2945 14.7683 2.76816C14.7683 1.24181 13.5265 0 12.0001 0ZM12.0001 3.87544C11.3792 3.87544 10.8928 3.38906 10.8928 2.76816C10.8928 2.15752 11.3894 1.66087 12.0001 1.66087C12.6108 1.66087 13.1074 2.15747 13.1074 2.76816C13.1074 3.38906 12.621 3.87544 12.0001 3.87544Z" fill="white"/>
<path d="M12.0001 3.95825C7.89407 3.95825 4.55371 7.33597 4.55371 11.4877V16.3319H6.21463V11.4876C6.21463 8.25167 8.81005 5.61913 12.0001 5.61913C15.1901 5.61913 17.7855 8.25167 17.7855 11.4876V16.2212H19.4464V11.4876C19.4465 7.33592 16.1061 3.95825 12.0001 3.95825Z" fill="white"/>
<path d="M20.9963 15.5017H3.00329C2.54462 15.5017 2.17285 15.8735 2.17285 16.3321V20.1522C2.17285 20.6109 2.54462 20.9827 3.00329 20.9827H20.9963C21.455 20.9827 21.8268 20.6109 21.8268 20.1522V16.3321C21.8268 15.8735 21.455 15.5017 20.9963 15.5017ZM20.1659 19.3217H3.83373V17.1626H20.1659V19.3217Z" fill="white"/>
<path d="M14.187 20.1523C14.187 21.3784 13.2264 22.3392 12.0001 22.3392C10.7738 22.3392 9.81322 21.3786 9.81322 20.1523H8.15234C8.15234 22.2742 9.87828 24.0001 12.0001 24.0001C14.1219 24.0001 15.8478 22.2742 15.8478 20.1523H14.187Z" fill="white"/>
</svg>
