<svg width="24" height="24" viewBox="0 0 24 24" fill="none" xmlns="http://www.w3.org/2000/svg">
<g clip-path="url(#clip0_2_3617)">
<path d="M11.9946 3.17798C10.7471 3.17798 9.73193 4.19315 9.73193 5.44069C9.73193 6.68822 10.7468 7.70339 11.9946 7.70339C13.2422 7.70339 14.257 6.68822 14.257 5.44069C14.257 4.19315 13.2422 3.17798 11.9946 3.17798ZM11.9946 6.17794C11.5881 6.17794 11.2573 5.84719 11.2573 5.44064C11.2573 5.03414 11.5881 4.70334 11.9946 4.70334C12.4009 4.70334 12.7316 5.03409 12.7316 5.44064C12.7317 5.84719 12.4012 6.17794 11.9946 6.17794Z" fill="white"/>
<path d="M8.35871 5.41802C8.36227 4.58997 8.68768 3.81606 9.27497 3.23871C9.57549 2.9433 9.57957 2.46049 9.28411 2.15997C8.98843 1.85946 8.50589 1.85538 8.20538 2.15083C7.326 3.01572 6.83888 4.17377 6.83354 5.41141C6.82843 6.66147 7.31405 7.8386 8.20107 8.72561C8.3498 8.87458 8.54504 8.94906 8.74032 8.94906C8.93555 8.94906 9.13083 8.87458 9.27929 8.72561C9.57727 8.42791 9.57727 7.94486 9.27929 7.64716C8.6821 7.04992 8.35515 6.25825 8.35871 5.41802Z" fill="white"/>
<path d="M15.7878 2.15562C15.4898 1.85763 15.0073 1.85763 14.7094 2.15562C14.4114 2.45332 14.4114 2.93637 14.7094 3.23407C15.3066 3.83154 15.6335 4.62298 15.63 5.46321C15.6264 6.29098 15.3012 7.06516 14.7137 7.64252C14.4135 7.93793 14.4094 8.42098 14.7048 8.72126C14.854 8.87304 15.0513 8.94907 15.2486 8.94907C15.4418 8.94907 15.635 8.87637 15.7835 8.73016C16.6628 7.86527 17.15 6.70723 17.1553 5.46959C17.1604 4.21952 16.6748 3.04268 15.7878 2.15562Z" fill="white"/>
<path d="M6.86466 1.30212C7.16264 1.00413 7.16264 0.521367 6.86466 0.223383C6.56695 -0.0743203 6.08391 -0.0746016 5.78592 0.223383C2.90925 3.10005 2.90925 7.78099 5.78592 10.6577C5.93466 10.8066 6.12989 10.8811 6.32517 10.8811C6.52041 10.8811 6.71569 10.8066 6.86466 10.6579C7.16264 10.3602 7.16264 9.87715 6.86466 9.57945C4.58264 7.29748 4.58264 3.58437 6.86466 1.30212Z" fill="white"/>
<path d="M18.2033 0.223488C17.9053 -0.0744961 17.4228 -0.0744961 17.1249 0.223488C16.8269 0.521191 16.8269 1.00424 17.1249 1.30194C18.2351 2.41218 18.8463 3.88189 18.8463 5.44063C18.8463 6.99936 18.2349 8.46908 17.1249 9.57908C16.8269 9.87707 16.8269 10.3601 17.1249 10.6578C17.2738 10.8068 17.4688 10.8813 17.6641 10.8813C17.8593 10.8813 18.0546 10.8068 18.2034 10.6578C19.6016 9.25953 20.3717 7.40694 20.3717 5.44068C20.3716 3.47464 19.6016 1.62182 18.2033 0.223488Z" fill="white"/>
<path d="M18.1759 22.6498L9.8879 15.7855C9.56376 15.5167 9.08273 15.562 8.814 15.8861C8.54526 16.2108 8.59054 16.6915 8.91492 16.9603L17.2027 23.8246C17.3451 23.9423 17.5174 23.9998 17.6888 23.9998C17.9082 23.9998 18.1258 23.9057 18.2766 23.7239C18.5453 23.3993 18.5001 22.9185 18.1759 22.6498Z" fill="white"/>
<path d="M15.1756 15.8861C14.9066 15.5617 14.4263 15.5159 14.1017 15.7852L5.81337 22.6495C5.48895 22.9182 5.44372 23.3992 5.71245 23.7234C5.8632 23.9057 6.08084 23.9997 6.30026 23.9997C6.47164 23.9997 6.644 23.9425 6.78659 23.8243L15.0746 16.96C15.399 16.6912 15.4443 16.2102 15.1756 15.8861Z" fill="white"/>
<path d="M18.3835 22.9225L12.689 10.3376C12.5654 10.0648 12.2939 9.8894 11.9942 9.8894C11.6947 9.8894 11.4229 10.0648 11.2993 10.3376L5.60448 22.9222C5.43109 23.3061 5.60143 23.7579 5.98506 23.9318C6.08724 23.978 6.19379 23.9999 6.29903 23.9999C6.58937 23.9999 6.86696 23.8331 6.9946 23.5517L11.9946 12.5024L16.9937 23.5512C17.1676 23.9348 17.6198 24.1057 18.003 23.9318C18.3869 23.7579 18.5572 23.3061 18.3835 22.9225Z" fill="white"/>
</g>
<defs>
<clipPath id="clip0_2_3617">
<rect width="24" height="24" fill="white"/>
</clipPath>
</defs>
</svg>
