<svg width="24" height="24" viewBox="0 0 24 24" fill="none" xmlns="http://www.w3.org/2000/svg">
<path d="M22.8421 11.0347H0.965169C0.4321 11.0347 0 11.4671 0 11.9998C0 12.5326 0.432053 12.965 0.965169 12.965H22.8421C23.3752 12.965 23.8073 12.533 23.8073 11.9998C23.8073 11.4667 23.3752 11.0347 22.8421 11.0347Z" fill="white"/>
<path d="M23.7171 11.3171L14.2589 1.85848C13.8818 1.48174 13.2712 1.48174 12.8941 1.85848C12.5171 2.23555 12.5171 2.84681 12.8941 3.22355L21.67 11.9997L12.8941 20.776C12.5171 21.1527 12.5171 21.764 12.8941 22.1407C13.0827 22.3293 13.3294 22.4235 13.5765 22.4235C13.8236 22.4235 14.0703 22.3293 14.2589 22.1407L23.7171 12.6822C24.0942 12.3051 24.0942 11.6938 23.7171 11.3171Z" fill="white"/>
</svg>
