<svg width="24" height="24" viewBox="0 0 24 24" fill="none" xmlns="http://www.w3.org/2000/svg">
<path d="M9.86789 18.6127L5.63287 10.7221C5.50101 10.4765 5.24489 10.3235 4.96631 10.3235C4.96608 10.3235 4.96556 10.3235 4.96533 10.3235C4.68652 10.324 4.43039 10.4778 4.29905 10.7238L0.0889679 18.6145C0.0305153 18.7239 0 18.8464 0 18.9705C0 21.7226 2.23915 23.962 4.99153 23.962C7.73008 23.962 9.95789 21.7226 9.95789 18.9705C9.95789 18.8457 9.9269 18.7229 9.86789 18.6127ZM4.99153 22.4494C3.1338 22.4494 1.61141 20.9857 1.51738 19.1507L4.96837 12.6826L8.44079 19.1517C8.34672 20.986 6.83539 22.4494 4.99153 22.4494Z" fill="white"/>
<path d="M23.9109 18.6143L19.7009 10.7236C19.5695 10.4776 19.3134 10.3235 19.0346 10.3232C19.0341 10.3232 19.0338 10.3232 19.0336 10.3232C18.755 10.3232 18.4986 10.4763 18.367 10.7218L14.1318 18.6125C14.0728 18.7226 14.042 18.8454 14.042 18.9702C14.042 21.7227 16.2811 23.962 19.0335 23.962C21.7718 23.962 23.9999 21.7227 24.0001 18.9702C24.0001 18.8462 23.9694 18.724 23.9109 18.6143ZM19.0335 22.4495C17.1761 22.4495 15.6541 20.9863 15.5594 19.1517L19.0315 12.6826L22.4827 19.1507C22.3892 20.9855 20.8779 22.4495 19.0335 22.4495Z" fill="white"/>
<path d="M19.0333 10.3235H4.96623C4.54849 10.3235 4.20996 10.6621 4.20996 11.0798V18.9704H5.72256V11.8361H18.2771V18.9705H19.7897V11.0798C19.7896 10.6621 19.451 10.3235 19.0333 10.3235Z" fill="white"/>
<path d="M9.20164 18.2144H0.756348V19.7269H9.20164V18.2144Z" fill="white"/>
<path d="M23.2436 18.2144H14.7983V19.7269H23.2436V18.2144Z" fill="white"/>
<path d="M12.0002 0.0378418C9.49812 0.0378418 7.4624 2.07356 7.4624 4.57563C7.4624 7.07769 9.49812 9.11341 12.0002 9.11341C14.5023 9.11341 16.538 7.07769 16.538 4.57563C16.538 2.07356 14.5023 0.0378418 12.0002 0.0378418ZM12.0002 7.60081C10.3321 7.60081 8.975 6.24375 8.975 4.57563C8.975 2.9075 10.3321 1.55044 12.0002 1.55044C13.6683 1.55044 15.0254 2.9075 15.0254 4.57563C15.0254 6.24375 13.6683 7.60081 12.0002 7.60081Z" fill="white"/>
<path d="M12.6983 5.64623L11.6899 3.2261C11.5293 2.84065 11.0868 2.65812 10.7009 2.81894C10.3154 2.97954 10.1331 3.42245 10.2937 3.80795L11.3021 6.22809C11.4231 6.51852 11.7045 6.69369 12.0007 6.69369C12.0975 6.69369 12.1961 6.6748 12.2911 6.63519C12.6766 6.4746 12.8591 6.03168 12.6983 5.64623Z" fill="white"/>
<path d="M12.7562 8.35718H11.2437V11.0798H12.7562V8.35718Z" fill="white"/>
<path d="M15.2268 5.18066H8.72266V6.69326H15.2268V5.18066Z" fill="white"/>
</svg>
