<svg width="24" height="24" viewBox="0 0 24 24" fill="none" xmlns="http://www.w3.org/2000/svg">
<path d="M14.1514 1.71411H9.88245C9.32548 1.71411 8.87402 2.16552 8.87402 2.72253V21.2435C8.87402 21.8005 9.32543 22.252 9.88245 22.252H14.1514C14.7083 22.252 15.1598 21.8006 15.1598 21.2435V2.72253C15.1597 2.16556 14.7083 1.71411 14.1514 1.71411ZM13.1429 20.2351H10.8908V3.73096H13.1429V20.2351Z" fill="white"/>
<path d="M5.27733 10.084H1.00842C0.451406 10.084 0 10.5354 0 11.0924V21.2773C0 21.8342 0.451406 22.2857 1.00842 22.2857H5.27733C5.8343 22.2857 6.28575 21.8346 6.28575 21.2773V11.0924C6.2857 10.5354 5.8343 10.084 5.27733 10.084ZM4.26891 20.2688H2.0168V12.1008H4.26891V20.2688Z" fill="white"/>
<path d="M22.9917 7.69751H18.7228C18.1658 7.69751 17.7144 8.14892 17.7144 8.70593V21.2774C17.7144 21.8344 18.1658 22.2858 18.7228 22.2858H22.9917C23.549 22.2858 24.0001 21.8347 24.0001 21.2774V8.70589C24.0001 8.14892 23.5487 7.69751 22.9917 7.69751ZM21.9833 20.2689H19.7312V9.71431H21.9833V20.2689Z" fill="white"/>
</svg>
