<svg width="24" height="24" viewBox="0 0 24 24" fill="none" xmlns="http://www.w3.org/2000/svg">
<g clip-path="url(#clip0_2_3648)">
<path d="M17.5713 3.14307H6.42845C5.95501 3.14307 5.57129 3.52678 5.57129 4.00022V23.1431C5.57129 23.6165 5.95501 24.0002 6.42845 24.0002H17.5713C18.0447 24.0002 18.4284 23.6165 18.4284 23.1431V4.00017C18.4284 3.52678 18.0447 3.14307 17.5713 3.14307ZM16.7141 22.2859H7.2856V4.85733H16.7142V22.2859H16.7141Z" fill="white"/>
<path d="M15.0002 0H9.00022C8.52679 0 8.14307 0.383719 8.14307 0.857156V4.00003H9.85734V1.71427H14.1431V3.99998H15.8573V0.857156C15.8574 0.383719 15.4737 0 15.0002 0Z" fill="white"/>
<path d="M14.0002 8.57153H10.0002C9.52678 8.57153 9.14307 8.95525 9.14307 9.42869C9.14307 9.90213 9.52678 10.2858 10.0002 10.2858H14.0002C14.4736 10.2858 14.8574 9.90213 14.8574 9.42869C14.8573 8.95525 14.4736 8.57153 14.0002 8.57153Z" fill="white"/>
<path d="M12.0002 6.57153C11.5268 6.57153 11.1431 6.95525 11.1431 7.42869V11.4287C11.1431 11.9021 11.5268 12.2858 12.0002 12.2858C12.4736 12.2858 12.8574 11.9021 12.8574 11.4287V7.42869C12.8574 6.95525 12.4736 6.57153 12.0002 6.57153Z" fill="white"/>
<path d="M14.0002 18.5715H10.0002C9.52678 18.5715 9.14307 18.9553 9.14307 19.4287C9.14307 19.9021 9.52678 20.2858 10.0002 20.2858H14.0002C14.4736 20.2858 14.8574 19.9021 14.8574 19.4287C14.8574 18.9553 14.4736 18.5715 14.0002 18.5715Z" fill="white"/>
</g>
<defs>
<clipPath id="clip0_2_3648">
<rect width="24" height="24" fill="white"/>
</clipPath>
</defs>
</svg>
