<svg width="24" height="24" viewBox="0 0 24 24" fill="none" xmlns="http://www.w3.org/2000/svg">
<g clip-path="url(#clip0_2_3655)">
<path d="M19.9024 5.56128H0.878062C0.393094 5.56128 0 5.95437 0 6.43934V17.5613C0 18.0462 0.393094 18.4393 0.878062 18.4393H19.9025C20.3874 18.4393 20.7805 18.0462 20.7805 17.5613V6.43934C20.7805 5.95437 20.3874 5.56128 19.9024 5.56128ZM19.0244 16.6832H1.75608V7.3174H19.0244V16.6832H19.0244Z" fill="white"/>
<path d="M23.1219 8.19507H19.9023V9.95115H22.2438V14.0487H19.9023V15.8048H23.1219C23.6068 15.8048 23.9999 15.4117 23.9999 14.9268V9.07313C23.9999 8.58816 23.6068 8.19507 23.1219 8.19507Z" fill="white"/>
<path d="M8.78041 9.21948C8.29544 9.21948 7.90234 9.61258 7.90234 10.0975V13.6098C7.90234 14.0947 8.29544 14.4878 8.78041 14.4878C9.26537 14.4878 9.65847 14.0947 9.65847 13.6098V10.0975C9.65847 9.61253 9.26537 9.21948 8.78041 9.21948Z" fill="white"/>
<path d="M4.97572 9.21948C4.49075 9.21948 4.09766 9.61258 4.09766 10.0975V13.6098C4.09766 14.0947 4.49075 14.4878 4.97572 14.4878C5.46069 14.4878 5.85378 14.0947 5.85378 13.6098V10.0975C5.85378 9.61253 5.46069 9.21948 4.97572 9.21948Z" fill="white"/>
<path d="M12.5851 9.21948C12.1001 9.21948 11.707 9.61258 11.707 10.0975V13.6098C11.707 14.0947 12.1001 14.4878 12.5851 14.4878C13.0701 14.4878 13.4632 14.0947 13.4632 13.6098V10.0975C13.4632 9.61253 13.0701 9.21948 12.5851 9.21948Z" fill="white"/>
</g>
<defs>
<clipPath id="clip0_2_3655">
<rect width="24" height="24" fill="white"/>
</clipPath>
</defs>
</svg>
