<svg width="24" height="24" viewBox="0 0 24 24" fill="none" xmlns="http://www.w3.org/2000/svg">
<g clip-path="url(#clip0_2_3625)">
<path d="M12.014 3C7.28121 3 3.43066 6.88777 3.43066 11.6667V15.8889H5.09735V11.6667C5.09735 7.80694 8.20015 4.66669 12.014 4.66669C15.8279 4.66669 18.9307 7.8067 18.9307 11.6667V15.8889H20.5974V11.6667C20.5973 6.88805 16.7468 3 12.014 3Z" fill="white"/>
<path d="M16.0414 9.88892C15.5811 9.88892 15.208 10.262 15.208 10.7223V13.0278C15.208 13.4881 15.581 13.8611 16.0414 13.8611C16.5017 13.8611 16.8747 13.4883 16.8747 13.0278V10.7223C16.8747 10.262 16.5017 9.88892 16.0414 9.88892Z" fill="white"/>
<path d="M21.2917 15.0554H2.70834C2.24808 15.0554 1.875 15.4285 1.875 15.8888V19.7777C1.875 20.2379 2.24803 20.611 2.70834 20.611H21.2917C21.7522 20.611 22.125 20.238 22.125 19.7777V15.8888C22.125 15.4285 21.7519 15.0554 21.2917 15.0554ZM20.4583 18.9443H3.54169V16.7221H20.4584V18.9443H20.4583Z" fill="white"/>
<path d="M13.6525 19.7778V20.6945C13.6525 21.5984 12.9175 22.3334 12.0136 22.3334C11.1097 22.3334 10.3747 21.5984 10.3747 20.6945V19.7778H8.70801V20.6945C8.70801 22.517 10.1908 24.0001 12.0135 24.0001C13.8363 24.0001 15.3191 22.5173 15.3191 20.6945V19.7778H13.6525Z" fill="white"/>
<path d="M12.0139 0C10.4365 0 9.15283 1.28362 9.15283 2.86111V4.11112H10.8195V2.86111C10.8195 2.21362 11.3665 1.66664 12.0139 1.66664C12.6614 1.66664 13.2084 2.21358 13.2084 2.86111V4.08333H14.8751V2.86111C14.8751 1.28362 13.5918 0 12.0139 0Z" fill="white"/>
</g>
<defs>
<clipPath id="clip0_2_3625">
<rect width="24" height="24" fill="white"/>
</clipPath>
</defs>
</svg>
