<svg width="24" height="24" viewBox="0 0 24 24" fill="none" xmlns="http://www.w3.org/2000/svg">
<path d="M20.3201 0H3.68011C2.79787 0 2.08008 0.71775 2.08008 1.59998V15.04H4.00008V1.92H20V15.04H21.92V1.59998C21.9201 0.71775 21.2023 0 20.3201 0Z" fill="white"/>
<path d="M12 14.0798C11.4698 14.0798 11.04 14.5096 11.04 15.0398V23.0399C11.04 23.5701 11.4698 23.9999 12 23.9999C12.5303 23.9999 12.96 23.5701 12.96 23.0399V15.0398C12.96 14.5096 12.5303 14.0798 12 14.0798Z" fill="white"/>
<path d="M17.6389 21.8811L12.8389 17.0811C12.4639 16.706 11.8562 16.706 11.4815 17.0811C11.1064 17.4558 11.1064 18.0638 11.4815 18.4385L16.2815 23.2386C16.469 23.4261 16.7144 23.5199 16.9602 23.5199C17.2059 23.5199 17.4514 23.4261 17.6389 23.2386C18.014 22.8638 18.014 22.2558 17.6389 21.8811Z" fill="white"/>
<path d="M22.56 14.0798H1.43998C0.909731 14.0798 0.47998 14.5096 0.47998 15.0398C0.47998 15.5701 0.909731 15.9998 1.43998 15.9998H22.56C23.0902 15.9998 23.52 15.5701 23.52 15.0398C23.52 14.5096 23.0902 14.0798 22.56 14.0798Z" fill="white"/>
<path d="M12.5188 17.0811C12.1438 16.706 11.5361 16.706 11.1614 17.0811L6.36136 21.8811C5.98632 22.2558 5.98632 22.8638 6.36136 23.2386C6.54858 23.4261 6.7943 23.5199 7.04007 23.5199C7.28583 23.5199 7.5316 23.4261 7.71877 23.2386L12.5188 18.4385C12.8939 18.0638 12.8939 17.4558 12.5188 17.0811Z" fill="white"/>
</svg>
