<svg width="24" height="24" viewBox="0 0 24 24" fill="none" xmlns="http://www.w3.org/2000/svg">
<path d="M21.0073 3.83536H19.5545V0.871688C19.5545 0.390234 19.1643 0 18.6829 0H4.91044C3.37256 0 2.12109 1.25142 2.12109 2.78934V21.2107C2.12109 22.7486 3.37252 24 4.91044 24H21.0073C21.4888 24 21.879 23.6098 21.879 23.1283V4.707C21.879 4.22555 21.4888 3.83536 21.0073 3.83536ZM4.91044 1.74333H17.8112V3.83536H4.91044C4.31423 3.83536 3.86442 3.38559 3.86442 2.78934C3.86447 2.22216 4.3433 1.74333 4.91044 1.74333ZM20.1356 22.2567H4.91044C4.34325 22.2567 3.86442 21.7776 3.86442 21.2107V5.38284C4.18608 5.50955 4.53881 5.57869 4.91044 5.57869H20.1356V22.2567Z" fill="white"/>
<path d="M11.0703 4.73584V11.9387L10.1254 11.3695C9.84875 11.2028 9.50211 11.2028 9.2255 11.3695L8.28093 11.9387V4.73584H6.5376V13.4816C6.5376 13.796 6.707 14.0859 6.98071 14.2408C7.25441 14.3954 7.59032 14.3907 7.85933 14.2283L9.6756 13.1338L11.4921 14.228C11.6301 14.3114 11.7859 14.3533 11.9419 14.3533C12.0895 14.3533 12.2374 14.3158 12.3708 14.2405C12.6445 14.0859 12.8136 13.796 12.8136 13.4816V4.73584H11.0703Z" fill="white"/>
</svg>
