<svg width="24" height="24" viewBox="0 0 24 24" fill="none" xmlns="http://www.w3.org/2000/svg">
<path d="M23.0425 1.56372H16.2447C14.7839 1.56372 13.3876 2.01213 12.2122 2.85691L11.9997 3.00756L11.7925 2.86075C10.612 2.01213 9.21605 1.56372 7.75528 1.56372H0.957469C0.428625 1.56372 0 1.99235 0 2.52114V19.819C0 20.3478 0.428625 20.7765 0.957469 20.7765H7.75533C8.81269 20.7765 9.82214 21.1004 10.6807 21.7173L11.4466 22.2598C11.6123 22.3773 11.8063 22.436 12 22.436C12.1941 22.436 12.3877 22.3773 12.5537 22.2602L13.3251 21.7135C14.1775 21.1007 15.1874 20.7764 16.2447 20.7764H23.0425C23.5714 20.7764 24 20.3478 24 19.819V2.52114C24 1.99235 23.5714 1.56372 23.0425 1.56372ZM22.0851 18.8616H16.2447C14.7839 18.8616 13.3876 19.31 12.2122 20.1544L11.9997 20.3051L11.7925 20.1583C10.612 19.31 9.21605 18.8616 7.75528 18.8616H1.91489V3.47861H7.75533C8.81269 3.47861 9.82214 3.80256 10.6807 4.41944L11.4466 4.96197C11.7782 5.19686 12.2221 5.19653 12.5537 4.96197L13.3251 4.4156C14.1775 3.80252 15.1874 3.47856 16.2447 3.47856H22.0851V18.8616Z" fill="white"/>
<path d="M12.9574 4.18091H11.0425V21.4788H12.9574V4.18091Z" fill="white"/>
</svg>
