<svg width="24" height="24" viewBox="0 0 24 24" fill="none" xmlns="http://www.w3.org/2000/svg">
<g clip-path="url(#clip0_2_3569)">
<path d="M15.7824 0.23576C15.5611 0.0142287 15.23 -0.0588963 14.9362 0.0501349L4.40942 3.93406C4.18897 4.01548 4.01516 4.18934 3.93369 4.40979L0.0498125 14.9366C-0.0589375 15.2304 0.0136719 15.5612 0.235438 15.7827C0.388906 15.9362 0.594359 16.0182 0.803844 16.0182C0.897078 16.0182 0.991344 16.0018 1.08162 15.9686L11.6084 12.0847C11.8288 12.0033 12.0027 11.8294 12.0841 11.6089L15.968 1.08218C16.0767 0.787807 16.0042 0.457572 15.7824 0.23576ZM10.7046 10.7047L2.16106 13.8571L5.31322 5.31354L13.8571 2.16115L10.7046 10.7047Z" fill="white"/>
<path d="M23.7644 8.21775L15.7823 0.235596L14.646 1.37185L22.2642 8.99025L18.6867 18.6867L8.98996 22.2642L1.3716 14.6461L0.235352 15.7823L8.21751 23.7645C8.37098 23.9179 8.57643 23.9999 8.78591 23.9999C8.87915 23.9999 8.97313 23.9838 9.06393 23.9504L19.5905 20.0664C19.8109 19.9853 19.9847 19.8112 20.0662 19.5907L23.9501 9.06417C24.0588 8.7698 23.9863 8.43952 23.7644 8.21775Z" fill="white"/>
<path d="M11.8984 10.7627L10.7622 11.8989L18.7435 19.8802L19.8798 18.744L11.8984 10.7627Z" fill="white"/>
</g>
<defs>
<clipPath id="clip0_2_3569">
<rect width="24" height="24" fill="white"/>
</clipPath>
</defs>
</svg>
