<svg width="24" height="24" viewBox="0 0 24 24" fill="none" xmlns="http://www.w3.org/2000/svg">
<path d="M11.9999 7.05518C9.27335 7.05518 7.05518 9.27335 7.05518 11.9999C7.05518 14.7264 9.27335 16.9446 11.9999 16.9446C14.7264 16.9446 16.9446 14.7264 16.9446 11.9999C16.9446 9.27335 14.7264 7.05518 11.9999 7.05518ZM11.9999 15.1355C10.271 15.1355 8.86422 13.7287 8.86422 11.9999C8.86422 10.271 10.271 8.86422 11.9999 8.86422C13.7287 8.86422 15.1355 10.271 15.1355 11.9999C15.1355 13.7287 13.7287 15.1355 11.9999 15.1355Z" fill="white"/>
<path d="M20.4787 3.52115C20.1254 3.16776 19.5531 3.16776 19.1997 3.52115L17.7826 4.93822C17.4292 5.29129 17.4292 5.86415 17.7826 6.21721C17.9593 6.39388 18.1906 6.48224 18.4221 6.48224C18.6534 6.48224 18.8849 6.39388 19.0617 6.21721L20.4787 4.80013C20.832 4.44707 20.832 3.87421 20.4787 3.52115Z" fill="white"/>
<path d="M6.21745 17.7824C5.86438 17.429 5.29153 17.429 4.93846 17.7824L3.52139 19.1994C3.168 19.5525 3.168 20.1254 3.52139 20.4784C3.69778 20.6551 3.92934 20.7435 4.1609 20.7435C4.39214 20.7435 4.6237 20.6551 4.80042 20.4784L6.21749 19.0614C6.57079 18.7083 6.57079 18.1355 6.21745 17.7824Z" fill="white"/>
<path d="M11.9998 0C11.5002 0 11.0952 0.404906 11.0952 0.904547V2.92462C11.0952 3.42422 11.5001 3.82913 11.9998 3.82913C12.4994 3.82913 12.9043 3.42422 12.9043 2.92462V0.904547C12.9043 0.404906 12.4994 0 11.9998 0Z" fill="white"/>
<path d="M11.9998 20.1709C11.5002 20.1709 11.0952 20.5758 11.0952 21.0754V23.0955C11.0952 23.5951 11.5001 24 11.9998 24C12.4994 24 12.9043 23.5951 12.9043 23.0955V21.0754C12.9043 20.5758 12.4994 20.1709 11.9998 20.1709Z" fill="white"/>
<path d="M6.21745 4.93822L4.80037 3.52115C4.44731 3.16776 3.87445 3.16776 3.52139 3.52115C3.168 3.87421 3.168 4.44707 3.52139 4.80013L4.93846 6.21721C5.11485 6.39388 5.34642 6.48224 5.57798 6.48224C5.80954 6.48224 6.0411 6.39388 6.21749 6.21721C6.57079 5.86419 6.57079 5.29129 6.21745 4.93822Z" fill="white"/>
<path d="M20.4787 19.1995L19.0616 17.7824C18.7083 17.429 18.136 17.429 17.7826 17.7824C17.4292 18.1354 17.4292 18.7083 17.7826 19.0614L19.1997 20.4785C19.3764 20.6551 19.6077 20.7435 19.8392 20.7435C20.0705 20.7435 20.302 20.6551 20.4787 20.4785C20.832 20.1254 20.832 19.5525 20.4787 19.1995Z" fill="white"/>
<path d="M2.92462 11.0952H0.904547C0.404906 11.0952 0 11.5002 0 11.9998C0 12.4994 0.404906 12.9043 0.904547 12.9043H2.92462C3.42422 12.9043 3.82913 12.4994 3.82913 11.9998C3.82913 11.5001 3.42422 11.0952 2.92462 11.0952Z" fill="white"/>
<path d="M23.0955 11.0952H21.0754C20.5758 11.0952 20.1709 11.5001 20.1709 11.9998C20.1709 12.4994 20.5758 12.9043 21.0754 12.9043H23.0955C23.5951 12.9043 24 12.4994 24 11.9998C24 11.5001 23.5951 11.0952 23.0955 11.0952Z" fill="white"/>
</svg>
