<svg width="24" height="24" viewBox="0 0 24 24" fill="none" xmlns="http://www.w3.org/2000/svg">
<g clip-path="url(#clip0_2_3681)">
<path d="M23.7517 6.23414L17.7658 0.248273C17.4355 -0.0823821 16.9007 -0.0826633 16.5692 0.246867L9.79279 6.99506C9.63327 7.15373 9.54374 7.36945 9.54346 7.59449C9.54318 7.81926 9.63266 8.03526 9.79166 8.19421L11.2881 9.69069C11.6188 10.0216 12.1552 10.0216 12.4862 9.69069C12.8168 9.36003 12.8168 8.8236 12.4862 8.49294L11.5897 7.59646L17.1656 2.04377L21.9562 6.83414L16.4032 12.4103L15.507 11.5141C15.1761 11.1832 14.6402 11.1832 14.3093 11.5141C13.9783 11.8448 13.9783 12.3812 14.3093 12.7119L15.8058 14.2083C15.9644 14.3673 16.1799 14.4565 16.4046 14.4565C16.4049 14.4565 16.4052 14.4565 16.4055 14.4565C16.6305 14.4563 16.846 14.3665 17.0049 14.2072L23.7531 7.43076C24.0827 7.09982 24.0821 6.56423 23.7517 6.23414Z" fill="white"/>
<path d="M14.2085 15.8058L12.712 14.3093C12.3811 13.9784 11.8449 13.9784 11.514 14.3093C11.183 14.6402 11.183 15.1764 11.514 15.5071L12.4102 16.4035L6.834 21.9562L2.04363 17.1656L7.59609 11.5897L8.49257 12.4859C8.82322 12.8168 9.35966 12.8168 9.69059 12.4859C10.0215 12.1549 10.0215 11.6188 9.69059 11.2879L8.19412 9.79138C8.03544 9.63271 7.81973 9.54346 7.59524 9.54346C7.59496 9.54346 7.59468 9.54346 7.5944 9.54346C7.36935 9.54374 7.15392 9.63322 6.99496 9.79278L0.246726 16.5692C-0.0827569 16.9005 -0.0821944 17.4355 0.248132 17.7659L6.234 23.7517C6.39919 23.9172 6.61603 23.9999 6.83287 23.9999C7.04915 23.9999 7.26543 23.9178 7.4309 23.7531L14.2074 17.0049C14.3669 16.8463 14.4564 16.6306 14.4567 16.4055C14.457 16.1805 14.3674 15.9647 14.2085 15.8058Z" fill="white"/>
<path d="M21.1822 19.9846L18.3869 17.1894C18.0559 16.8584 17.5201 16.8584 17.1891 17.1894C16.8582 17.52 16.8582 18.0565 17.1891 18.3871L19.9844 21.1824C20.1499 21.3479 20.3664 21.4306 20.5833 21.4306C20.8001 21.4306 21.0167 21.3479 21.1822 21.1824C21.5131 20.8517 21.5131 20.3152 21.1822 19.9846Z" fill="white"/>
<path d="M22.9705 15.8466L20.5705 14.6325C20.1532 14.4213 19.6438 14.5882 19.4323 15.0058C19.2211 15.4231 19.388 15.9327 19.8056 16.1439L22.2056 17.3581C22.3284 17.4202 22.4588 17.4496 22.5876 17.4496C22.8968 17.4496 23.1947 17.2793 23.3437 16.9848C23.555 16.5675 23.3881 16.0578 22.9705 15.8466Z" fill="white"/>
<path d="M17.358 22.2062L16.1439 19.8062C15.9327 19.3886 15.423 19.222 15.0057 19.4329C14.5884 19.6441 14.4212 20.1535 14.6325 20.5711L15.8466 22.9711C15.9959 23.2656 16.2938 23.4359 16.603 23.4359C16.7317 23.4359 16.8622 23.4062 16.9847 23.3444C17.4021 23.1331 17.5692 22.6238 17.358 22.2062Z" fill="white"/>
<path d="M6.81056 5.61307L4.01528 2.81778C3.68463 2.48685 3.14819 2.48685 2.81754 2.81778C2.4866 3.14844 2.4866 3.68487 2.81754 4.01553L5.61282 6.81081C5.77801 6.97628 5.99485 7.05902 6.21169 7.05902C6.42853 7.05902 6.64538 6.97628 6.81056 6.81081C7.1415 6.48021 7.1415 5.94372 6.81056 5.61307Z" fill="white"/>
<path d="M9.36754 3.42949L8.15344 1.0295C7.94222 0.612174 7.43288 0.444456 7.01527 0.655955C6.59766 0.867173 6.4305 1.37651 6.64172 1.79412L7.85583 4.19411C8.00489 4.48891 8.30278 4.65888 8.61225 4.65888C8.74073 4.65888 8.87147 4.62953 8.994 4.56766C9.41161 4.35649 9.57876 3.8471 9.36754 3.42949Z" fill="white"/>
<path d="M4.19404 7.85571L1.79405 6.6416C1.37672 6.4301 0.86682 6.59754 0.655883 7.01515C0.444665 7.43276 0.611821 7.9421 1.02943 8.15332L3.42942 9.36742C3.55223 9.42953 3.6824 9.45892 3.81117 9.45892C4.12064 9.45892 4.41881 9.28896 4.56759 8.99388C4.7788 8.57627 4.61165 8.06693 4.19404 7.85571Z" fill="white"/>
</g>
<defs>
<clipPath id="clip0_2_3681">
<rect width="24" height="24" fill="white"/>
</clipPath>
</defs>
</svg>
