<svg width="24" height="24" viewBox="0 0 24 24" fill="none" xmlns="http://www.w3.org/2000/svg">
<path d="M22.4526 0.151855H1.54739C0.694219 0.151855 0 0.846074 0 1.69929V22.301C0 23.1688 0.679641 23.8484 1.54739 23.8484H22.4526C23.32 23.8484 24 23.1685 24 22.301V1.69929C24 0.831543 23.32 0.151855 22.4526 0.151855ZM22.1795 22.028H1.82048V1.97234H22.1795V22.028Z" fill="white"/>
<path d="M23.12 8.37427H0.910156V10.1948H23.12V8.37427Z" fill="white"/>
<path d="M6.46257 3.12524C5.34146 3.12524 4.42969 4.03729 4.42969 5.15812C4.42969 6.27895 5.34174 7.19099 6.46257 7.19099C7.5834 7.19099 8.49545 6.27895 8.49545 5.15812C8.49545 4.03729 7.58368 3.12524 6.46257 3.12524ZM6.46257 5.37051C6.34547 5.37051 6.25018 5.27526 6.25018 5.15812C6.25018 5.04103 6.34543 4.94573 6.46257 4.94573C6.57971 4.94573 6.67496 5.04098 6.67496 5.15812C6.67496 5.27521 6.57971 5.37051 6.46257 5.37051Z" fill="white"/>
<path d="M17.5675 3.12524C16.4467 3.12524 15.5347 4.03729 15.5347 5.15812C15.5347 6.27895 16.4467 7.19099 17.5675 7.19099C18.6887 7.19099 19.6004 6.27895 19.6004 5.15812C19.6004 4.03729 18.6884 3.12524 17.5675 3.12524ZM17.5675 5.37051C17.4504 5.37051 17.3552 5.27526 17.3552 5.15812C17.3552 5.04103 17.4504 4.94573 17.5675 4.94573C17.6846 4.94573 17.7799 5.04098 17.7799 5.15812C17.7799 5.27521 17.6847 5.37051 17.5675 5.37051Z" fill="white"/>
</svg>
