<svg width="24" height="24" viewBox="0 0 24 24" fill="none" xmlns="http://www.w3.org/2000/svg">
<path d="M22.1438 0H1.85599C0.887926 0 0.129395 0.758578 0.129395 1.72664V22.2734C0.129395 23.2414 0.887926 24 1.85599 24H22.1438C23.1118 24 23.8704 23.2417 23.8704 22.2734V1.72664C23.8704 0.758578 23.1118 0 22.1438 0ZM22.1438 22.2734H1.85599L1.84277 1.72777C1.84277 1.72777 1.8468 1.72659 1.85599 1.72659H22.1438V22.2734Z" fill="white"/>
<path d="M22.9783 7.13672H0.992676V8.86336H22.9783V7.13672Z" fill="white"/>
<path d="M4.56149 5.81267C5.32437 5.81267 5.9428 5.19424 5.9428 4.43136C5.9428 3.66848 5.32437 3.05005 4.56149 3.05005C3.79861 3.05005 3.18018 3.66848 3.18018 4.43136C3.18018 5.19424 3.79861 5.81267 4.56149 5.81267Z" fill="white"/>
<path d="M8.12936 5.81267C8.89224 5.81267 9.51067 5.19424 9.51067 4.43136C9.51067 3.66848 8.89224 3.05005 8.12936 3.05005C7.36648 3.05005 6.74805 3.66848 6.74805 4.43136C6.74805 5.19424 7.36648 5.81267 8.12936 5.81267Z" fill="white"/>
<path d="M18.8347 3.56836H12.8491C12.3723 3.56836 11.9858 3.95484 11.9858 4.43166C11.9858 4.90847 12.3723 5.29495 12.8491 5.29495H18.8347C19.3116 5.29495 19.698 4.90847 19.698 4.43166C19.6981 3.95484 19.3116 3.56836 18.8347 3.56836Z" fill="white"/>
</svg>
