<svg width="24" height="24" viewBox="0 0 24 24" fill="none" xmlns="http://www.w3.org/2000/svg">
<path d="M12.0278 4.41357C7.4645 4.41357 3.75195 8.8067 3.75195 14.2067C3.75195 19.6067 7.4645 23.9998 12.0278 23.9998C16.5914 23.9998 20.304 19.6067 20.3037 14.2067C20.3037 8.80665 16.5911 4.41357 12.0278 4.41357ZM12.0278 22.3446C8.37706 22.3446 5.40716 18.6941 5.40716 14.2067C5.40716 9.71954 8.37711 6.06878 12.0278 6.06878C15.6785 6.06878 18.6488 9.71949 18.6485 14.2067C18.6485 18.6941 15.6785 22.3446 12.0278 22.3446Z" fill="white"/>
<path d="M18.7863 9.51709H5.26904V11.1722H18.7863V9.51709Z" fill="white"/>
<path d="M12.8554 10.3171H11.2002V23.1723H12.8554V10.3171Z" fill="white"/>
<path d="M22.7033 14.1243H19.476C19.0189 14.1243 18.6484 14.4948 18.6484 14.9518C18.6484 15.409 19.0189 15.7794 19.476 15.7794H22.7033C23.1604 15.7794 23.5309 15.4089 23.5309 14.9518C23.5309 14.4948 23.1604 14.1243 22.7033 14.1243Z" fill="white"/>
<path d="M22.3439 17.9058L19.1439 17.023C18.7047 16.9005 18.2474 17.1599 18.1263 17.6007C18.0046 18.0412 18.2631 18.4969 18.7039 18.6183L21.9039 19.5011C21.9775 19.5215 22.0515 19.5311 22.1246 19.5311C22.4876 19.5311 22.8209 19.2903 22.9216 18.9234C23.0433 18.4829 22.7847 18.0272 22.3439 17.9058Z" fill="white"/>
<path d="M4.52391 14.1243H1.29633C0.839203 14.1243 0.46875 14.4948 0.46875 14.9518C0.46875 15.409 0.83925 15.7794 1.29633 15.7794H4.52391C4.98103 15.7794 5.35148 15.4089 5.35148 14.9518C5.35148 14.4948 4.98098 14.1243 4.52391 14.1243Z" fill="white"/>
<path d="M23.3638 10.9538C23.2433 10.513 22.7895 10.2528 22.347 10.374L19.1197 11.2567C18.6789 11.3773 18.419 11.8324 18.5399 12.2735C18.6406 12.6412 18.9741 12.8829 19.3377 12.8829C19.4097 12.8829 19.4833 12.8732 19.5567 12.8531L22.784 11.9703C23.2248 11.8498 23.4847 11.3946 23.3638 10.9538Z" fill="white"/>
<path d="M4.88066 11.2573L1.65309 10.3746C1.21227 10.2537 0.75707 10.5136 0.636554 10.9544C0.515711 11.3953 0.775586 11.8505 1.2164 11.971L4.44398 12.8537C4.5171 12.8736 4.59046 12.8833 4.66274 12.8833C5.02659 12.8833 5.3601 12.6416 5.46055 12.2739C5.58135 11.8331 5.32152 11.3779 4.88066 11.2573Z" fill="white"/>
<path d="M5.87389 17.6008C5.75253 17.1603 5.29733 16.901 4.85596 17.0232L1.65594 17.9059C1.21541 18.0275 0.956893 18.483 1.0783 18.9238C1.17955 19.2907 1.5125 19.5316 1.87555 19.5316C1.94867 19.5316 2.0226 19.5219 2.09624 19.5012L5.29625 18.6185C5.73678 18.4971 5.99525 18.0417 5.87389 17.6008Z" fill="white"/>
<path d="M16.2208 0C14.9888 0 13.9863 1.00247 13.9863 2.23448C13.9863 3.4665 14.9888 4.46897 16.2208 4.46897C17.4531 4.46897 18.4553 3.4665 18.4553 2.23448C18.4553 1.00247 17.4531 0 16.2208 0ZM16.2208 2.81381C15.9011 2.81381 15.6415 2.55394 15.6415 2.23448C15.6415 1.91503 15.9014 1.65516 16.2208 1.65516C16.5403 1.65516 16.8001 1.91503 16.8001 2.23448C16.8001 2.55394 16.5405 2.81381 16.2208 2.81381Z" fill="white"/>
<path d="M15.0636 3.37098L14.374 5.90894L15.9712 6.34292L16.6608 3.80496L15.0636 3.37098Z" fill="white"/>
<path d="M7.83459 0C6.60257 0 5.6001 1.00247 5.6001 2.23448C5.6001 3.4665 6.60257 4.46897 7.83459 4.46897C9.06688 4.46897 10.0691 3.4665 10.0691 2.23448C10.0691 1.00247 9.06656 0 7.83459 0ZM7.83459 2.81381C7.51513 2.81381 7.25526 2.55394 7.25526 2.23448C7.25526 1.91503 7.51513 1.65516 7.83459 1.65516C8.15404 1.65516 8.41391 1.91503 8.41391 2.23448C8.41387 2.55394 8.15404 2.81381 7.83459 2.81381Z" fill="white"/>
<path d="M8.99127 3.36973L7.39404 3.80371L8.08363 6.34168L9.68086 5.9077L8.99127 3.36973Z" fill="white"/>
</svg>
