<svg width="24" height="24" viewBox="0 0 24 24" fill="none" xmlns="http://www.w3.org/2000/svg">
<path d="M22.265 2.31323H1.73483C0.937625 2.31323 0.289062 2.9618 0.289062 3.759V22.5542C0.289062 23.3514 0.937625 24 1.73483 24H22.265C23.0622 24 23.7107 23.3514 23.7107 22.5542V3.75905C23.7107 2.96184 23.0622 2.31323 22.265 2.31323ZM21.9758 22.2651H2.024V4.04817H21.9758V22.2651H21.9758Z" fill="white"/>
<path d="M22.8435 8.09619H1.15674V9.83113H22.8435V8.09619Z" fill="white"/>
<path d="M6.36161 0C5.8825 0 5.49414 0.388359 5.49414 0.867469V5.49398C5.49414 5.97309 5.8825 6.36145 6.36161 6.36145C6.84072 6.36145 7.22908 5.97309 7.22908 5.49398V0.867469C7.22908 0.388359 6.84072 0 6.36161 0Z" fill="white"/>
<path d="M17.9275 0C17.4484 0 17.0601 0.388359 17.0601 0.867469V5.49398C17.0601 5.97309 17.4484 6.36145 17.9275 6.36145C18.4066 6.36145 18.795 5.97309 18.795 5.49398V0.867469C18.795 0.388359 18.4066 0 17.9275 0Z" fill="white"/>
<path d="M15.3251 17.3494H8.96366C8.48455 17.3494 8.09619 17.7377 8.09619 18.2168C8.09619 18.6959 8.48455 19.0843 8.96366 19.0843H15.3251C15.8042 19.0843 16.1926 18.6959 16.1926 18.2168C16.1926 17.7377 15.8042 17.3494 15.3251 17.3494Z" fill="white"/>
<path d="M15.3251 13.3015H8.96366C8.48455 13.3015 8.09619 13.6899 8.09619 14.169C8.09619 14.6481 8.48455 15.0365 8.96366 15.0365H15.3251C15.8042 15.0365 16.1926 14.6481 16.1926 14.169C16.1926 13.6898 15.8042 13.3015 15.3251 13.3015Z" fill="white"/>
</svg>
