<svg width="24" height="24" viewBox="0 0 24 24" fill="none" xmlns="http://www.w3.org/2000/svg">
<g clip-path="url(#clip0_2_3567)">
<path d="M19.8309 0.297891C19.6611 0.108375 19.4187 0 19.164 0H0.95507C0.460445 0 0.0595703 0.400875 0.0595703 0.8955V11.7313C0.0595703 12.2259 0.460445 12.6268 0.95507 12.6268H17.97C18.4264 12.6268 18.8103 12.2829 18.8601 11.8295L20.0542 0.99375C20.0819 0.740578 20.0008 0.487453 19.8309 0.297891ZM17.1679 10.8358H1.85062V1.79105H18.1647L17.1679 10.8358Z" fill="white"/>
<path d="M23.0449 1.79102H18.9255V3.58206H22.1494V9.04473H18.1792V10.8358H23.0449C23.5395 10.8358 23.9404 10.4349 23.9404 9.94028V2.68652C23.9404 2.19189 23.5395 1.79102 23.0449 1.79102Z" fill="white"/>
<path d="M9.16429 11.7312V19.1342C9.16429 19.296 9.02755 19.4327 8.86579 19.4327H1.49268V21.2237H8.86583C10.0181 21.2237 10.9554 20.2861 10.9554 19.1342V11.7312H9.16429Z" fill="white"/>
<path d="M1.49267 16.3284C0.998043 16.3284 0.597168 16.7292 0.597168 17.2239V23.1045C0.597168 23.5991 0.998043 24 1.49267 24C1.98729 24 2.38817 23.5994 2.38817 23.1045V17.2239C2.38817 16.7293 1.98729 16.3284 1.49267 16.3284Z" fill="white"/>
</g>
<defs>
<clipPath id="clip0_2_3567">
<rect width="24" height="24" fill="white"/>
</clipPath>
</defs>
</svg>
