<svg width="24" height="24" viewBox="0 0 24 24" fill="none" xmlns="http://www.w3.org/2000/svg">
<path d="M16.179 7.52246H7.82079C7.32617 7.52246 6.92529 7.92334 6.92529 8.41796C6.92529 8.91259 7.32617 9.31346 7.82079 9.31346H16.179C16.6736 9.31346 17.0745 8.91259 17.0745 8.41796C17.0745 7.92334 16.6736 7.52246 16.179 7.52246Z" fill="white"/>
<path d="M16.179 11.1045H7.82079C7.32617 11.1045 6.92529 11.5054 6.92529 12C6.92529 12.4946 7.32617 12.8955 7.82079 12.8955H16.179C16.6736 12.8955 17.0745 12.4946 17.0745 12C17.0745 11.5054 16.6736 11.1045 16.179 11.1045Z" fill="white"/>
<path d="M16.179 14.6865H7.82079C7.32617 14.6865 6.92529 15.0874 6.92529 15.582C6.92529 16.0766 7.32617 16.4775 7.82079 16.4775H16.179C16.6736 16.4775 17.0745 16.0766 17.0745 15.582C17.0745 15.0874 16.6736 14.6865 16.179 14.6865Z" fill="white"/>
<path d="M12 0C5.49855 0 0.208984 5.28956 0.208984 11.791C0.208984 13.2683 0.480625 14.7137 1.01762 16.0898C1.43495 17.1469 1.9878 18.1179 2.66448 18.9842L1.05705 22.7531C0.928094 23.0552 0.974969 23.4033 1.17883 23.6606C1.35048 23.8773 1.61017 24 1.88059 24C1.93164 24 1.9833 23.9958 2.03462 23.9865L8.12449 22.9238C9.34417 23.3609 10.6466 23.5821 12 23.5821C18.5015 23.5821 23.791 18.2925 23.791 11.791C23.791 5.28956 18.5015 0 12 0ZM12 21.7911C10.7794 21.7911 9.61197 21.5803 8.53019 21.1645C8.37883 21.1063 8.21439 21.0899 8.05497 21.1182L3.35134 21.9391L4.52509 19.1872C4.65944 18.8722 4.60239 18.508 4.37823 18.2492C3.66841 17.4301 3.09822 16.4824 2.68511 15.4355C2.23047 14.271 2.00003 13.0448 2.00003 11.791C2.00003 6.27703 6.48597 1.79105 12 1.79105C17.5141 1.79105 22 6.27703 22 11.791C22 17.305 17.5141 21.7911 12 21.7911Z" fill="white"/>
</svg>
