<svg width="24" height="24" viewBox="0 0 24 24" fill="none" xmlns="http://www.w3.org/2000/svg">
<path d="M23.1874 1.43579H0.812625C0.363797 1.43579 0 1.79954 0 2.24842V17.5261C0 17.9749 0.363797 18.3387 0.812625 18.3387H18.6506L22.6109 22.3244C22.7664 22.481 22.9753 22.5644 23.1876 22.5644C23.2916 22.5644 23.3967 22.5444 23.4972 22.5029C23.8014 22.3778 24 22.0809 24 21.7517V2.24842C24 1.79954 23.6362 1.43579 23.1874 1.43579ZM22.3747 19.7809L19.5651 16.9534C19.4126 16.7996 19.2051 16.7134 18.9887 16.7134H1.6253V3.06104H22.3748V19.7809H22.3747Z" fill="white"/>
<path d="M11.9998 7.25952C10.5658 7.25952 9.39941 8.42619 9.39941 9.85996C9.39941 11.2937 10.5661 12.4604 11.9998 12.4604C13.4339 12.4604 14.6006 11.2937 14.6006 9.85996C14.6006 8.42619 13.4339 7.25952 11.9998 7.25952ZM11.9998 10.8351C11.4621 10.8351 11.0247 10.3977 11.0247 9.85996C11.0247 9.32226 11.4621 8.88477 11.9998 8.88477C12.5375 8.88477 12.9753 9.32226 12.9753 9.85996C12.9753 10.3977 12.5375 10.8351 11.9998 10.8351Z" fill="white"/>
<path d="M5.76987 7.25952C4.33582 7.25952 3.16943 8.42619 3.16943 9.85996C3.16943 11.2937 4.33611 12.4604 5.76987 12.4604C7.20364 12.4604 8.37031 11.2937 8.37031 9.85996C8.37031 8.42619 7.20392 7.25952 5.76987 7.25952ZM5.76987 10.8351C5.23217 10.8351 4.79468 10.3977 4.79468 9.85996C4.79468 9.32226 5.23217 8.88477 5.76987 8.88477C6.30757 8.88477 6.74506 9.32226 6.74506 9.85996C6.74506 10.3977 6.30757 10.8351 5.76987 10.8351Z" fill="white"/>
<path d="M18.2303 7.25952C16.7966 7.25952 15.6299 8.42619 15.6299 9.85996C15.6299 11.2937 16.7966 12.4604 18.2303 12.4604C19.6644 12.4604 20.831 11.2937 20.831 9.85996C20.831 8.42619 19.6644 7.25952 18.2303 7.25952ZM18.2303 10.8351C17.6926 10.8351 17.2551 10.3977 17.2551 9.85996C17.2551 9.32226 17.6929 8.88477 18.2303 8.88477C18.768 8.88477 19.2057 9.32226 19.2057 9.85996C19.2057 10.3977 18.768 10.8351 18.2303 10.8351Z" fill="white"/>
</svg>
