<svg width="24" height="24" viewBox="0 0 24 24" fill="none" xmlns="http://www.w3.org/2000/svg">
<g clip-path="url(#clip0_2_3626)">
<path d="M23.0477 4.03198H6.25395C5.95522 4.03198 5.67397 4.172 5.49397 4.41008L0.192347 11.426C-0.0635441 11.7647 -0.0641535 12.2323 0.190753 12.572L5.46059 19.5882C5.64059 19.8276 5.92283 19.9685 6.22217 19.9685H23.0159C23.5419 19.9685 23.9682 19.5422 23.9682 19.0162V5.2288C23.9892 5.1507 24 5.06881 24 4.98434C24 4.45836 23.5737 4.03198 23.0477 4.03198ZM22.0635 18.0638H6.69809L2.14474 12.0018L6.72791 5.93675H22.0635V18.0638Z" fill="white"/>
<path d="M17.7869 9.01112C17.4161 8.63781 16.8133 8.63622 16.4399 9.00667L11.7732 13.6416C11.4002 14.0124 11.3983 14.6152 11.7688 14.9886C11.9548 15.1759 12.1996 15.2699 12.4443 15.2699C12.6872 15.2699 12.9297 15.1778 13.1154 14.9933L17.7821 10.3581C18.1555 9.9873 18.1574 9.38444 17.7869 9.01112Z" fill="white"/>
<path d="M17.7826 13.6415L13.1159 9.00657C12.7429 8.63579 12.1397 8.63766 11.7689 9.01102C11.3981 9.38433 11.4003 9.98752 11.7734 10.358L16.4401 14.9933C16.6258 15.1777 16.8683 15.2698 17.1112 15.2698C17.3562 15.2698 17.6007 15.1758 17.7873 14.9885C18.1578 14.6151 18.1559 14.0123 17.7826 13.6415Z" fill="white"/>
</g>
<defs>
<clipPath id="clip0_2_3626">
<rect width="24" height="24" fill="white"/>
</clipPath>
</defs>
</svg>
