<svg width="24" height="24" viewBox="0 0 24 24" fill="none" xmlns="http://www.w3.org/2000/svg">
<path d="M19.8001 0H4.2001C3.0421 0 2.1001 0.942 2.1001 2.1V21.9C2.1001 23.0577 3.0421 24 4.2001 24H19.8001C20.9578 24 21.9001 23.0577 21.9001 21.9V2.1C21.9001 0.942 20.9578 0 19.8001 0ZM20.1001 21.9C20.1001 22.0626 19.9627 22.2 19.8001 22.2H4.2001C4.03749 22.2 3.9001 22.0626 3.9001 21.9V2.1C3.9001 1.93739 4.03749 1.8 4.2001 1.8H19.8001C19.9627 1.8 20.1001 1.93739 20.1001 2.1V21.9Z" fill="white"/>
<path d="M14.7001 10.2H9.0001C8.50299 10.2 8.1001 10.6028 8.1001 11.1C8.1001 11.5971 8.50299 12 9.0001 12H14.7001C15.1972 12 15.6001 11.5971 15.6001 11.1C15.6001 10.6028 15.1972 10.2 14.7001 10.2Z" fill="white"/>
<path d="M16.8003 13.8H7.20029C6.70318 13.8 6.30029 14.2029 6.30029 14.7C6.30029 15.1972 6.70318 15.6 7.20029 15.6H16.8003C17.2974 15.6 17.7003 15.1972 17.7003 14.7C17.7003 14.2029 17.2974 13.8 16.8003 13.8Z" fill="white"/>
<path d="M16.8003 17.4001H7.20029C6.70318 17.4001 6.30029 17.803 6.30029 18.3001C6.30029 18.7973 6.70318 19.2001 7.20029 19.2001H16.8003C17.2974 19.2001 17.7003 18.7973 17.7003 18.3001C17.7003 17.803 17.2974 17.4001 16.8003 17.4001Z" fill="white"/>
<path d="M14.7 0.900146V3.90015H9.3V0.900146H7.5V4.80015C7.5 5.29726 7.90289 5.70015 8.4 5.70015H15.6C16.0971 5.70015 16.5 5.29726 16.5 4.80015V0.900146H14.7Z" fill="white"/>
</svg>
