<svg width="24" height="24" viewBox="0 0 24 24" fill="none" xmlns="http://www.w3.org/2000/svg">
<path d="M12 0C5.38336 0 0 5.38308 0 12C0 18.6169 5.38336 24 12 24C18.6169 24 24 18.6169 24 12C24 5.38308 18.6166 0 12 0ZM12 22.2482C6.34922 22.2482 1.75181 17.6508 1.75181 12C1.75181 6.34922 6.34922 1.75181 12 1.75181C17.6508 1.75181 22.2482 6.34917 22.2482 11.9997C22.2482 17.6508 17.6508 22.2482 12 22.2482Z" fill="white"/>
<path d="M16.0875 12.0003H12.2919V6.7448C12.2919 6.26101 11.8997 5.8689 11.4159 5.8689C10.9321 5.8689 10.54 6.26101 10.54 6.7448V12.8762C10.54 13.36 10.9321 13.7521 11.4159 13.7521H16.0875C16.5713 13.7521 16.9634 13.36 16.9634 12.8762C16.9634 12.3924 16.5713 12.0003 16.0875 12.0003Z" fill="white"/>
</svg>
