<svg width="24" height="24" viewBox="0 0 24 24" fill="none" xmlns="http://www.w3.org/2000/svg">
<g clip-path="url(#clip0_117_869)">
<path d="M4.82023 19.7494C5.27821 20.2074 6.02061 20.2074 6.47859 19.7494L19.5244 6.70365C19.9823 6.24568 19.9823 5.50328 19.5244 5.0453C19.0661 4.58702 18.324 4.58732 17.866 5.04529L4.82022 18.0911C4.36225 18.5491 4.36225 19.2915 4.82023 19.7494Z" fill="white"/>
<path d="M4.82039 5.04533C4.36241 5.50331 4.36241 6.24571 4.82038 6.70368L17.8662 19.7495C18.3241 20.2074 19.0665 20.2074 19.5245 19.7495C19.9828 19.2912 19.9825 18.5491 19.5245 18.0911L6.47875 5.04532C6.02077 4.58735 5.27837 4.58735 4.82039 5.04533Z" fill="white"/>
</g>
<defs>
<clipPath id="clip0_117_869">
<rect width="24" height="24" fill="white"/>
</clipPath>
</defs>
</svg>
