<svg width="24" height="24" viewBox="0 0 24 24" fill="none" xmlns="http://www.w3.org/2000/svg">
<path d="M19.306 10.0167C18.6835 6.56255 15.6053 3.95166 12 3.95166C8.40689 3.95166 5.31858 6.56311 4.67259 10.0164C2.06592 10.1964 0 12.3749 0 15.0265C0 17.7958 2.26467 20.0485 5.04844 20.0485H18.978C21.747 20.0485 24 17.7958 24 15.0265C24 12.3759 21.9248 10.1983 19.306 10.0167ZM18.978 18.4627H5.04844C3.13903 18.4627 1.58588 16.9212 1.58588 15.0265C1.58588 13.0996 3.09511 11.5904 5.022 11.5904H5.36559C5.77716 11.5904 6.12047 11.2756 6.15563 10.8654C6.41227 7.87782 8.97961 5.53754 12 5.53754C15.0288 5.53754 17.5842 7.87491 17.8173 10.8593C17.8496 11.2719 18.194 11.5904 18.6079 11.5904H18.9515C20.8607 11.5904 22.4141 13.1317 22.4141 15.0265C22.4141 16.9534 20.9048 18.4627 18.978 18.4627Z" fill="white"/>
</svg>
