<svg width="24" height="24" viewBox="0 0 24 24" fill="none" xmlns="http://www.w3.org/2000/svg">
<g clip-path="url(#clip0_2_3661)">
<path d="M17.1652 6.05249H0.782625C0.350344 6.05249 0 6.40283 0 6.83512C0 7.2674 0.350344 7.61774 0.782625 7.61774H16.3826V23.2178C16.3826 23.65 16.733 24.0004 17.1653 24.0004C17.5975 24.0004 17.9479 23.65 17.9479 23.2178V6.83512C17.9478 6.40283 17.5975 6.05249 17.1652 6.05249Z" fill="white"/>
<path d="M6.83487 0C6.40259 0 6.05225 0.350344 6.05225 0.782625V6.8348C6.05225 7.26708 6.40259 7.61742 6.83487 7.61742C7.26715 7.61742 7.6175 7.26708 7.6175 6.8348V0.782625C7.61745 0.350344 7.26711 0 6.83487 0Z" fill="white"/>
<path d="M14.7914 16.3829H7.6175V9.10465C7.6175 8.67237 7.26715 8.32202 6.83487 8.32202C6.40259 8.32202 6.05225 8.67237 6.05225 9.10465V17.1655C6.05225 17.5978 6.40259 17.9481 6.83487 17.9481H14.7914C15.2237 17.9481 15.574 17.5978 15.574 17.1655C15.574 16.7332 15.2237 16.3829 14.7914 16.3829Z" fill="white"/>
<path d="M23.2176 16.3826H17.1654C16.7332 16.3826 16.3828 16.7329 16.3828 17.1652C16.3828 17.5975 16.7332 17.9478 17.1654 17.9478H23.2176C23.6499 17.9478 24.0002 17.5975 24.0002 17.1652C24.0002 16.7329 23.6499 16.3826 23.2176 16.3826Z" fill="white"/>
</g>
<defs>
<clipPath id="clip0_2_3661">
<rect width="24" height="24" fill="white"/>
</clipPath>
</defs>
</svg>
