<svg width="24" height="24" viewBox="0 0 24 24" fill="none" xmlns="http://www.w3.org/2000/svg">
<path d="M16.574 8.27447L14.6954 8.20557L14.2881 19.3283L16.1667 19.3969L16.574 8.27447Z" fill="white"/>
<path d="M12.9399 8.24023H11.0601V19.363H12.9399V8.24023Z" fill="white"/>
<path d="M9.71222 19.3278L9.30493 8.20508L7.42627 8.27403L7.83361 19.3967L9.71222 19.3278Z" fill="white"/>
<path d="M0.814941 3.60303V5.4829H2.7738L4.3278 23.1424C4.37041 23.6276 4.77682 23.9999 5.26399 23.9999H18.7049C19.1921 23.9999 19.5988 23.6274 19.6411 23.142L21.1952 5.4829H23.1857V3.60303H0.814941ZM17.844 22.12H6.12471L4.6609 5.4829H19.3081L17.844 22.12Z" fill="white"/>
<path d="M15.0703 0H8.92935C8.06554 0 7.36279 0.70275 7.36279 1.56656V4.54308H9.24266V1.87987H14.757V4.54308H16.6369V1.56656C16.6369 0.70275 15.9342 0 15.0703 0Z" fill="white"/>
</svg>
