<svg width="24" height="24" viewBox="0 0 24 24" fill="none" xmlns="http://www.w3.org/2000/svg">
<path d="M19.139 4.61768L17.6089 22.054H6.39113L4.86132 4.61768L2.92285 4.7876L4.4806 22.5401C4.56259 23.3584 5.27255 23.9999 6.09732 23.9999H17.9027C18.7272 23.9999 19.4374 23.3587 19.5208 22.5284L21.0775 4.7876L19.139 4.61768Z" fill="white"/>
<path d="M15.5678 0H8.43268C7.53849 0 6.81104 0.727453 6.81104 1.62164V4.70273H8.75696V1.94592H15.2434V4.70269H17.1893V1.62159C17.1894 0.727453 16.462 0 15.5678 0Z" fill="white"/>
<path d="M22.3786 3.72998H1.62191C1.08449 3.72998 0.648926 4.16554 0.648926 4.70296C0.648926 5.24039 1.08449 5.67595 1.62191 5.67595H22.3787C22.9161 5.67595 23.3517 5.24039 23.3517 4.70296C23.3517 4.16554 22.916 3.72998 22.3786 3.72998Z" fill="white"/>
</svg>
