<svg width="24" height="24" viewBox="0 0 24 24" fill="none" xmlns="http://www.w3.org/2000/svg">
<path d="M23.7106 5.56214L17.5153 0.204C17.3629 0.0722813 17.1687 0 16.9674 0H0.837188C0.374813 0 0 0.374813 0 0.837188V23.1628C0 23.6252 0.374813 24 0.837188 24H23.1628C23.6252 24 24 23.6252 24 23.1628V6.19533C24 5.95228 23.8942 5.72119 23.7106 5.56214ZM22.3256 22.3256H1.67442V1.67442H16.6557L22.3256 6.57825V22.3256Z" fill="white"/>
<path d="M13.9536 0.837158V6.55811H7.25596V0.837158H5.58154V7.3953C5.58154 7.85772 5.95636 8.23249 6.41873 8.23249H14.7908C15.2533 8.23249 15.628 7.85767 15.628 7.3953V0.837158H13.9536Z" fill="white"/>
<path d="M16.186 13.814H5.02322C4.5608 13.814 4.18604 14.1887 4.18604 14.6512V23.1628H5.86046V15.4884H15.3488V23.1628H17.0233V14.6512C17.0233 14.1887 16.6485 13.814 16.186 13.814Z" fill="white"/>
</svg>
