<svg width="24" height="24" viewBox="0 0 24 24" fill="none" xmlns="http://www.w3.org/2000/svg">
<path d="M18.3093 13.2077C18.1591 12.9461 17.881 12.7849 17.5796 12.7849H6.42063C6.11922 12.7849 5.84111 12.9461 5.69111 13.2077C5.54111 13.4693 5.54252 13.7909 5.69477 14.0511L11.2742 23.5838C11.4251 23.8415 11.7015 23.9999 12.0001 23.9999C12.2987 23.9999 12.5752 23.8412 12.7263 23.5838L18.3055 14.0511C18.4577 13.7909 18.4596 13.4693 18.3093 13.2077ZM12.0001 21.4934L7.88754 14.4672H16.1123L12.0001 21.4934Z" fill="white"/>
<path d="M11.9998 0C11.5352 0 11.1587 0.376547 11.1587 0.841125V13.6262C11.1587 14.0908 11.5352 14.4673 11.9998 14.4673C12.4644 14.4673 12.841 14.0908 12.841 13.6262V0.841125C12.841 0.376547 12.4644 0 11.9998 0Z" fill="white"/>
</svg>
