<svg width="24" height="24" viewBox="0 0 24 24" fill="none" xmlns="http://www.w3.org/2000/svg">
<g clip-path="url(#clip0_2_3627)">
<path d="M11.9999 0C11.532 0 11.1528 0.379219 11.1528 0.847078V16.2918C11.1528 16.7596 11.532 17.1389 11.9999 17.1389C12.4678 17.1389 12.847 16.7596 12.847 16.2918V0.847078C12.847 0.379219 12.4678 0 11.9999 0Z" fill="white"/>
<path d="M17.7018 11.2243C17.3827 10.8827 16.8468 10.8637 16.5046 11.1831L12.0002 15.3873L7.49587 11.1834C7.15396 10.8643 6.61804 10.8827 6.29868 11.2246C5.97932 11.5665 5.99798 12.1024 6.33988 12.4218L11.4223 17.1653C11.5849 17.3172 11.7927 17.3932 12.0002 17.3932C12.2077 17.3932 12.4156 17.3172 12.5782 17.165L17.6606 12.4215C18.0022 12.1021 18.0208 11.5663 17.7018 11.2243Z" fill="white"/>
<path d="M21.3178 5.36479H16.2354C15.7676 5.36479 15.3884 5.74401 15.3884 6.21187C15.3884 6.67973 15.7676 7.05895 16.2354 7.05895H20.4707V22.306H3.52956V7.0589H7.76486C8.23271 7.0589 8.61193 6.67968 8.61193 6.21182C8.61193 5.74396 8.23271 5.36475 7.76486 5.36475H2.68253C2.21467 5.36475 1.83545 5.74396 1.83545 6.21182V23.153C1.83545 23.6209 2.21467 24.0001 2.68253 24.0001H21.3178C21.7857 24.0001 22.1649 23.6209 22.1649 23.153V6.21187C22.1649 5.74401 21.7856 5.36479 21.3178 5.36479Z" fill="white"/>
</g>
<defs>
<clipPath id="clip0_2_3627">
<rect width="24" height="24" fill="white"/>
</clipPath>
</defs>
</svg>
