<svg width="24" height="24" viewBox="0 0 24 24" fill="none" xmlns="http://www.w3.org/2000/svg">
<g clip-path="url(#clip0_2_3597)">
<path d="M23.7088 10.0071L14.0156 0.313568C13.6431 -0.0592754 12.9835 -0.0592754 12.6109 0.313568L9.8013 3.12321C9.61488 3.3093 9.51025 3.56229 9.51025 3.82554C9.51025 4.08912 9.61488 4.34177 9.8013 4.52819L19.4948 14.2214C19.6809 14.4078 19.9336 14.5124 20.1972 14.5124C20.4607 14.5124 20.7134 14.4078 20.8995 14.2214L23.7088 11.4117C24.0969 11.024 24.0969 10.3948 23.7088 10.0071ZM20.1972 12.1144L11.9083 3.82586L13.3133 2.42088L21.6018 10.7094L20.1972 12.1144Z" fill="white"/>
<path d="M23.2522 2.43537L21.5634 0.746602C20.6409 -0.176602 19.1945 -0.176602 18.2713 0.746602L15.6558 3.36255L17.0604 4.76716L19.676 2.15159C19.818 2.00951 20.016 2.00885 20.1587 2.15126L21.8475 3.84035C21.9352 3.92843 21.9538 4.02016 21.9538 4.08176C21.9538 4.14335 21.9356 4.23509 21.8475 4.32316L19.2319 6.93912L20.6366 8.34373L23.2522 5.72777C23.6962 5.28373 23.9406 4.69929 23.9406 4.08138C23.9406 3.46348 23.6962 2.87909 23.2522 2.43537Z" fill="white"/>
<path d="M17.1787 10.5149L7.7415 19.9522C7.30608 20.3873 6.16134 21.3283 4.94016 20.6731C4.55405 20.4658 4.07789 20.5356 3.76762 20.8463L2.77425 21.8397C2.72194 21.8916 2.61098 21.9791 2.45039 21.9791C2.18616 21.9791 1.9868 21.78 1.9868 21.5155C1.9868 21.3552 2.07422 21.2436 2.12653 21.1919L3.11958 20.1992C3.42455 19.8942 3.49837 19.4274 3.30169 19.0436C2.69372 17.8555 3.49341 16.7614 4.01166 16.2276L13.482 6.82353L12.082 5.41357L2.59903 14.8306C1.29572 16.172 0.819844 17.7793 1.25466 19.2538L0.721547 19.7869C0.255984 20.2522 0 20.8661 0 21.5157C0 22.8671 1.09936 23.9661 2.45034 23.9661C3.10036 23.9661 3.71461 23.7094 4.17886 23.2439L4.70569 22.7174C6.1822 23.1654 7.82461 22.678 9.14616 21.3568L18.5834 11.9196L17.1787 10.5149Z" fill="white"/>
<path d="M7.8211 17.5671L6.4165 18.9717L8.30366 20.8588L9.70826 19.4542L7.8211 17.5671Z" fill="white"/>
<path d="M12.9864 12.435L11.582 13.8398L13.4367 15.694L14.8411 14.2892L12.9864 12.435Z" fill="white"/>
<path d="M10.4043 15.0197L8.99951 16.4246L10.8539 18.2789L12.2587 16.8741L10.4043 15.0197Z" fill="white"/>
</g>
<defs>
<clipPath id="clip0_2_3597">
<rect width="24" height="24" fill="white"/>
</clipPath>
</defs>
</svg>
