<svg width="24" height="24" viewBox="0 0 24 24" fill="none" xmlns="http://www.w3.org/2000/svg">
<path d="M11.9998 3.80029C7.47872 3.80029 3.80029 7.47872 3.80029 11.9998C3.80029 12.4957 4.2022 12.8976 4.69804 12.8976C5.19389 12.8976 5.59579 12.4957 5.59579 11.9995C5.59579 8.46867 8.46862 5.59584 11.9998 5.59584C12.4953 5.59584 12.8975 5.19393 12.8975 4.69809C12.8975 4.20225 12.4957 3.80029 11.9998 3.80029Z" fill="white"/>
<path d="M19.302 11.1021C18.8062 11.1021 18.4043 11.504 18.4043 11.9998C18.4043 15.5307 15.5314 18.4038 12.0003 18.4038C11.5044 18.4038 11.1025 18.8057 11.1025 19.3015C11.1025 19.7974 11.5044 20.1993 12.0003 20.1993C16.5214 20.1993 20.1998 16.5209 20.1998 11.9998C20.1998 11.504 19.7979 11.1021 19.302 11.1021Z" fill="white"/>
<path d="M12 0C5.38327 0 0 5.38327 0 12C0 18.6167 5.38327 24 12 24C18.6167 24 24 18.6168 24 12C24 5.38322 18.6168 0 12 0ZM12 22.2045C6.37317 22.2045 1.7955 17.6268 1.7955 12C1.7955 6.37317 6.37317 1.7955 12 1.7955C17.6268 1.7955 22.2045 6.37284 22.2045 11.9997C22.2045 17.6265 17.6268 22.2045 12 22.2045Z" fill="white"/>
<path d="M11.9999 7.42139C9.47545 7.42139 7.42139 9.47517 7.42139 11.9999C7.42139 14.5247 9.47517 16.5788 11.9999 16.5788C14.5247 16.5788 16.5785 14.5247 16.5785 11.9999C16.5785 9.47517 14.5247 7.42139 11.9999 7.42139ZM11.9999 14.7836C10.4654 14.7836 9.21689 13.5351 9.21689 12.0002C9.21689 10.4657 10.4654 9.21717 11.9999 9.21717C13.5348 9.21717 14.783 10.4656 14.783 12.0002C14.783 13.5351 13.5345 14.7836 11.9999 14.7836Z" fill="white"/>
</svg>
