<svg width="24" height="24" viewBox="0 0 24 24" fill="none" xmlns="http://www.w3.org/2000/svg">
<g clip-path="url(#clip0_2_3623)">
<path d="M23.7192 5.22697L18.7724 0.280245C18.3984 -0.0934903 17.7933 -0.0937716 17.4192 0.279589L1.84497 15.8223C1.71953 15.9474 1.63113 16.105 1.58997 16.2774L0.0261686 22.8199C-0.0510816 23.1432 0.0453405 23.484 0.280513 23.7192C0.462107 23.9008 0.706561 23.9997 0.957437 23.9997C1.03178 23.9997 1.1065 23.9908 1.17986 23.9733L7.72236 22.4095C7.89472 22.3683 8.05236 22.2802 8.17747 22.1545L23.7199 6.58016C24.0932 6.20615 24.0929 5.60038 23.7192 5.22697ZM7.01384 20.6101L2.25124 21.7485L3.38932 16.9859L18.0952 2.31064L21.6891 5.90455L7.01384 20.6101Z" fill="white"/>
<path d="M15.1018 3.91919L13.748 5.27295L18.7262 10.2511L20.08 8.89736L15.1018 3.91919Z" fill="white"/>
<path d="M16.2371 6.40796L4.27002 18.375L5.62378 19.7288L17.5908 7.76172L16.2371 6.40796Z" fill="white"/>
<path d="M3.16626 15.8875L1.8125 17.2412L6.75908 22.1878L8.11284 20.834L3.16626 15.8875Z" fill="white"/>
</g>
<defs>
<clipPath id="clip0_2_3623">
<rect width="24" height="24" fill="white"/>
</clipPath>
</defs>
</svg>
