<svg width="24" height="24" viewBox="0 0 24 24" fill="none" xmlns="http://www.w3.org/2000/svg">
<path d="M21.5327 9.42065V22.3178H2.4674V9.42065H0.785156V23.1589C0.785156 23.6235 1.1617 24 1.62628 24H22.3738C22.8384 24 23.2149 23.6235 23.2149 23.1589V9.42065H21.5327Z" fill="white"/>
<path d="M22.911 8.7734L19.939 6.30615L18.8647 7.60036L21.0143 9.38521L12.0001 16.1094L2.98633 9.38545L5.1068 7.62863L4.03356 6.33329L1.08964 8.77251C0.89084 8.93709 0.778997 9.18384 0.785418 9.44174C0.791887 9.69969 0.916621 9.94026 1.12324 10.0944L11.497 17.8327C11.6462 17.9443 11.8231 17.9998 12 17.9998C12.1769 17.9998 12.3538 17.9443 12.5029 17.833L22.8768 10.0948C23.0834 9.94058 23.2079 9.70002 23.2146 9.44235C23.2211 9.18473 23.1095 8.93798 22.911 8.7734Z" fill="white"/>
<path d="M12.5366 0.193851C12.2268 -0.0632566 11.7776 -0.0643815 11.4666 0.191039L8.35449 2.74243L9.42103 4.04334L11.9971 1.93159L14.5751 4.06856L15.6486 2.77323L12.5366 0.193851Z" fill="white"/>
<path d="M19.3739 2.52344H4.62628C4.1617 2.52344 3.78516 2.89998 3.78516 3.36456V11.6636H5.4674V4.20568H18.5327V11.6636H20.215V3.36456C20.215 2.89998 19.8384 2.52344 19.3739 2.52344Z" fill="white"/>
<path d="M15.6214 10.3682L12.5653 7.59252C12.2448 7.30119 11.755 7.30119 11.4343 7.59252L8.37824 10.3682C8.03422 10.6805 8.00872 11.2124 8.32105 11.5564C8.48731 11.7392 8.71527 11.832 8.94401 11.832C9.14562 11.832 9.34803 11.76 9.50923 11.6137L11.9998 9.35163L14.4906 11.6137C14.8341 11.9257 15.3665 11.9002 15.6786 11.5565C15.9909 11.2124 15.9654 10.6805 15.6214 10.3682Z" fill="white"/>
</svg>
