<svg width="24" height="24" viewBox="0 0 24 24" fill="none" xmlns="http://www.w3.org/2000/svg">
<g clip-path="url(#clip0_2_3674)">
<path d="M20.8339 10.7938C20.3343 10.7938 19.9294 11.1987 19.9294 11.6983V22.1893L1.81027 22.1621L1.83797 4.04005H12.3316C12.831 4.04005 13.2361 3.63514 13.2361 3.1355C13.2361 2.63586 12.8312 2.23096 12.3316 2.23096H0.934688C0.435704 2.23096 0.0310788 2.63497 0.0301413 3.13396L6.25064e-07 23.0637C-0.000280625 23.3037 0.09436 23.534 0.264141 23.7037C0.433266 23.8738 0.663329 23.9694 0.903329 23.9697L20.8327 23.9998C20.8333 23.9998 20.8335 23.9998 20.8342 23.9998C21.0739 23.9998 21.3036 23.9046 21.4731 23.7354C21.6431 23.566 21.7384 23.3356 21.7384 23.0953V11.6983C21.7384 11.1988 21.3335 10.7938 20.8339 10.7938Z" fill="white"/>
<path d="M23.0953 0H16.5828C16.0832 0 15.6782 0.404906 15.6782 0.904547C15.6782 1.40414 16.0831 1.80905 16.5828 1.80905H22.1908V7.44722C22.1908 7.94681 22.5957 8.35172 23.0953 8.35172C23.5949 8.35172 23.9998 7.94681 23.9998 7.44722V0.904547C23.9998 0.404906 23.5949 0 23.0953 0Z" fill="white"/>
<path d="M23.7349 0.265287C23.3816 -0.0881035 22.8093 -0.0881035 22.456 0.265287L10.8177 11.9035C10.4644 12.2565 10.4644 12.8294 10.8177 13.1824C10.9941 13.3591 11.2257 13.4475 11.4573 13.4475C11.6888 13.4475 11.9204 13.3591 12.0968 13.1824L23.7349 1.54427C24.0883 1.19121 24.0883 0.61835 23.7349 0.265287Z" fill="white"/>
</g>
<defs>
<clipPath id="clip0_2_3674">
<rect width="24" height="24" fill="white"/>
</clipPath>
</defs>
</svg>
