<svg width="24" height="24" viewBox="0 0 24 24" fill="none" xmlns="http://www.w3.org/2000/svg">
<g clip-path="url(#clip0_2_3682)">
<path d="M23.7311 7.6674L17.6704 1.63691C17.4085 1.37619 17.0156 1.29884 16.6751 1.44078C16.334 1.58239 16.1119 1.9153 16.1119 2.28444V5.0219C13.1074 5.22047 11.607 6.46617 11.3359 6.71438C7.56567 9.85234 7.98263 14.1312 8.10933 14.9825C8.11116 14.9947 8.11299 15.0072 8.1151 15.0194L8.23693 15.7199C8.30241 16.0964 8.59449 16.3921 8.96973 16.4618C9.02574 16.4722 9.08181 16.4774 9.13726 16.4774C9.45432 16.4774 9.75371 16.3123 9.92059 16.0336L10.2857 15.4251C12.2819 12.1053 14.7486 11.5707 16.1119 11.5661V14.4063C16.1119 14.7763 16.3351 15.1095 16.6775 15.2508C17.0198 15.3918 17.413 15.3126 17.6737 15.0507L23.7344 8.95937C24.0902 8.60181 24.0886 8.02313 23.7311 7.6674ZM17.9397 12.1924V10.721C17.9397 10.2723 17.6144 9.89012 17.1715 9.81887C16.1171 9.64923 12.7985 9.44486 9.9325 12.7896C10.1174 11.4245 10.729 9.58984 12.5223 8.10502C12.5442 8.08674 12.5518 8.08065 12.5719 8.06054C12.5853 8.04807 13.948 6.82247 16.9342 6.82247H17.0256C17.5303 6.82247 17.9393 6.41344 17.9393 5.90878V4.48251L21.7945 8.31798L17.9397 12.1924Z" fill="white"/>
<path d="M20.4062 17.2996C19.9015 17.2996 19.4925 17.7086 19.4925 18.2133V20.8021H1.82743V7.40111H7.30967C7.81433 7.40111 8.22336 6.99208 8.22336 6.48742C8.22336 5.98276 7.81433 5.57373 7.30967 5.57373H0.913691C0.409033 5.57368 0 5.98272 0 6.48737V21.7159C0 22.2205 0.409033 22.6295 0.913691 22.6295H20.4062C20.9108 22.6295 21.3199 22.2205 21.3199 21.7159V18.2133C21.3199 17.7086 20.9108 17.2996 20.4062 17.2996Z" fill="white"/>
</g>
<defs>
<clipPath id="clip0_2_3682">
<rect width="24" height="24" fill="white"/>
</clipPath>
</defs>
</svg>
