<svg width="24" height="24" viewBox="0 0 24 24" fill="none" xmlns="http://www.w3.org/2000/svg">
<g clip-path="url(#clip0_2_3582)">
<path d="M23.5674 0.624365C23.2463 0.303271 22.7264 0.303271 22.4053 0.624365L15.2271 7.80247C14.9061 8.12329 14.9061 8.64383 15.2271 8.96465C15.3877 9.12519 15.5978 9.20549 15.8083 9.20549C16.0184 9.20549 16.2288 9.12519 16.3894 8.96465L23.5674 1.78658C23.8885 1.46572 23.8885 0.945178 23.5674 0.624365Z" fill="white"/>
<path d="M23.5675 0.624144C23.4135 0.469879 23.2042 0.383301 22.9864 0.383301C22.9844 0.383301 22.9822 0.383301 22.9803 0.383301L15.8023 0.438145C15.348 0.441707 14.9828 0.812394 14.9864 1.26638C14.9899 1.71816 15.3573 2.082 15.8083 2.082C15.8099 2.082 15.8121 2.082 15.8143 2.082L22.1581 2.03349L22.1096 8.37703C22.1063 8.83102 22.4715 9.20171 22.9255 9.20527C22.9274 9.20527 22.9294 9.20527 22.9316 9.20527C23.3825 9.20527 23.7499 8.84142 23.7535 8.38964L23.8083 1.21158C23.8099 0.991269 23.7231 0.779769 23.5675 0.624144Z" fill="white"/>
<path d="M23.5674 22.5968L16.3893 15.419C16.0682 15.0979 15.5482 15.0979 15.2271 15.419C14.9061 15.7401 14.9061 16.2604 15.2271 16.5812L22.4052 23.759C22.5658 23.9196 22.7759 23.9999 22.9863 23.9999C23.1965 23.9999 23.4069 23.9196 23.5674 23.759C23.8885 23.4379 23.8885 22.9176 23.5674 22.5968Z" fill="white"/>
<path d="M23.7535 15.9941C23.7502 15.5401 23.3825 15.184 22.9255 15.1782C22.4713 15.1815 22.1061 15.5525 22.1096 16.0062L22.1579 22.3497L15.8143 22.3015C15.8124 22.3015 15.8102 22.3015 15.8083 22.3015C15.3573 22.3015 14.9899 22.6656 14.9864 23.1174C14.9831 23.5711 15.3483 23.9418 15.8023 23.9453L22.9803 23.9999C22.982 23.9999 22.9842 23.9999 22.9864 23.9999C23.2042 23.9999 23.4132 23.9133 23.5675 23.7593C23.7231 23.6034 23.81 23.3919 23.8083 23.1719L23.7535 15.9941Z" fill="white"/>
<path d="M8.93706 7.41878L1.75923 0.240715C1.43814 -0.0800976 0.91759 -0.0803789 0.596777 0.240715C0.275684 0.561527 0.275684 1.08207 0.596777 1.40289L7.77461 8.58095C7.93515 8.7415 8.14557 8.82179 8.356 8.82179C8.56614 8.82179 8.77656 8.7415 8.93711 8.58095C9.25815 8.26014 9.25815 7.73959 8.93706 7.41878Z" fill="white"/>
<path d="M8.36255 0.0547969L1.18444 0C1.18224 0 1.18032 0 1.17816 0C0.960099 0 0.751036 0.0865781 0.597052 0.240844C0.441146 0.396469 0.354568 0.607969 0.355974 0.828234L0.410771 8.0063C0.414333 8.45808 0.78174 8.82192 1.23268 8.82192C1.23488 8.82192 1.23708 8.82192 1.23924 8.82192C1.69322 8.81836 2.05843 8.44767 2.05486 7.99369L2.0064 1.65014L8.34994 1.69861C8.35186 1.69861 8.35407 1.69861 8.35622 1.69861C8.80716 1.69861 9.17457 1.33477 9.17813 0.882984C9.18174 0.429047 8.81654 0.0583594 8.36255 0.0547969Z" fill="white"/>
<path d="M8.77307 15.419C8.45197 15.0979 7.93143 15.0979 7.61061 15.419L0.432504 22.5968C0.111691 22.9176 0.111691 23.4379 0.432504 23.759C0.593051 23.9195 0.803473 23.9998 1.01389 23.9998C1.22404 23.9998 1.43446 23.9195 1.595 23.759L8.77307 16.5812C9.09388 16.2604 9.09416 15.7401 8.77307 15.419Z" fill="white"/>
<path d="M8.18561 22.3015L1.84206 22.3497L1.89057 16.0062C1.89414 15.5525 1.52893 15.1818 1.07495 15.1782C1.07303 15.1782 1.07082 15.1782 1.06867 15.1782C0.61773 15.1782 0.250324 15.5423 0.246761 15.9941L0.191917 23.1719C0.190277 23.3918 0.276855 23.6033 0.43248 23.7593C0.586746 23.9138 0.796043 24.0001 1.01387 24.0001C1.01579 24.0001 1.018 24.0001 1.02015 24.0001L8.19822 23.9453C8.6522 23.942 9.0174 23.5711 9.01384 23.1173C9.01028 22.6631 8.63298 22.3023 8.18561 22.3015Z" fill="white"/>
</g>
<defs>
<clipPath id="clip0_2_3582">
<rect width="24" height="24" fill="white"/>
</clipPath>
</defs>
</svg>
