<svg width="24" height="24" viewBox="0 0 24 24" fill="none" xmlns="http://www.w3.org/2000/svg">
<g clip-path="url(#clip0_2_3578)">
<path d="M23.0956 0H16.5529C16.0533 0 15.6484 0.404906 15.6484 0.904547C15.6484 1.40414 16.0533 1.80905 16.5529 1.80905H22.1911V7.44722C22.1911 7.94681 22.596 8.35172 23.0956 8.35172C23.5952 8.35172 24.0001 7.94681 24.0001 7.44722V0.904547C24.0001 0.404906 23.5952 0 23.0956 0Z" fill="white"/>
<path d="M23.7347 0.265043C23.3814 -0.0883477 22.8091 -0.0883477 22.4557 0.265043L9.55118 13.1695C9.19779 13.5226 9.19779 14.0955 9.55118 14.4485C9.72757 14.6252 9.95913 14.7136 10.1907 14.7136C10.4219 14.7136 10.6535 14.6252 10.8302 14.4485L23.7347 1.54403C24.0881 1.19096 24.0881 0.618105 23.7347 0.265043Z" fill="white"/>
<path d="M20.0201 11.2463C19.5205 11.2463 19.1156 11.6512 19.1156 12.1508V22.191H1.80905V4.88449H11.8492C12.3488 4.88449 12.7537 4.47958 12.7537 3.97999C12.7537 3.48039 12.3488 3.07544 11.8492 3.07544H0.904547C0.404906 3.07544 0 3.48035 0 3.97999V23.0956C0 23.5952 0.404906 24.0001 0.904547 24.0001H20.0201C20.52 24.0001 20.9246 23.5952 20.9246 23.0955V12.1508C20.9246 11.6512 20.5197 11.2463 20.0201 11.2463Z" fill="white"/>
</g>
<defs>
<clipPath id="clip0_2_3578">
<rect width="24" height="24" fill="white"/>
</clipPath>
</defs>
</svg>
