<svg width="24" height="24" viewBox="0 0 24 24" fill="none" xmlns="http://www.w3.org/2000/svg">
<g clip-path="url(#clip0_2_3584)">
<path d="M23.586 11.257L13.5666 5.05319C13.2978 4.88688 12.9582 4.87872 12.6815 5.0328C12.4045 5.18716 12.2329 5.47928 12.2329 5.7962V18.204C12.2329 18.5208 12.4045 18.813 12.6815 18.9674C12.814 19.0411 12.9605 19.0778 13.1067 19.0778C13.2666 19.0778 13.4262 19.0341 13.5666 18.947L23.586 12.7431C23.8435 12.5838 23.9999 12.3027 23.9999 12.0001C23.9999 11.6974 23.8435 11.4164 23.586 11.257ZM13.9805 16.6355V7.3652L21.4662 12.0001L13.9805 16.6355Z" fill="white"/>
<path d="M11.3531 11.2569L1.33369 5.05304C1.06397 4.88645 0.72525 4.87858 0.448547 5.03265C0.171563 5.18701 0 5.47914 0 5.79601V18.2038C0 18.5207 0.171563 18.8128 0.448547 18.9672C0.581062 19.0409 0.727594 19.0776 0.873797 19.0776C1.03341 19.0776 1.19302 19.0339 1.33369 18.9468L11.3531 12.7429C11.6103 12.5836 11.767 12.3025 11.767 11.9999C11.767 11.6973 11.6103 11.4162 11.3531 11.2569ZM1.74759 16.6353V7.36506L9.23334 11.9999L1.74759 16.6353Z" fill="white"/>
</g>
<defs>
<clipPath id="clip0_2_3584">
<rect width="24" height="24" fill="white"/>
</clipPath>
</defs>
</svg>
