<svg width="24" height="24" viewBox="0 0 24 24" fill="none" xmlns="http://www.w3.org/2000/svg">
<g clip-path="url(#clip0_2_3575)">
<path d="M23.6953 11.2644L14.5739 2.14297C14.1674 1.73652 13.5092 1.73652 13.1027 2.14297C12.6962 2.5491 12.6962 3.20807 13.1027 3.61419L21.4885 12L13.1027 20.3858C12.6963 20.7919 12.6963 21.4509 13.1027 21.857C13.306 22.0603 13.572 22.1619 13.8383 22.1619C14.1047 22.1619 14.3711 22.0603 14.574 21.857L23.6954 12.7356C24.1018 12.3295 24.1018 11.6705 23.6953 11.2644Z" fill="white"/>
<path d="M10.8975 11.2644L1.77606 2.14297C1.36993 1.73652 0.710965 1.73652 0.30484 2.14297C-0.101613 2.5491 -0.101613 3.20807 0.30484 3.61419L8.69031 12L0.304887 20.3858C-0.101566 20.7919 -0.101566 21.4509 0.304887 21.857C0.507762 22.0603 0.774152 22.1619 1.0405 22.1619C1.30684 22.1619 1.57323 22.0603 1.77611 21.857L10.8975 12.7356C11.3039 12.3295 11.3039 11.6705 10.8975 11.2644Z" fill="white"/>
</g>
<defs>
<clipPath id="clip0_2_3575">
<rect width="24" height="24" fill="white"/>
</clipPath>
</defs>
</svg>
