<svg width="24" height="24" viewBox="0 0 24 24" fill="none" xmlns="http://www.w3.org/2000/svg">
<path d="M21.018 6.90572L13.968 0.245719C13.8006 0.0878906 13.5798 0 13.3497 0H3.59971C3.1026 0 2.69971 0.402891 2.69971 0.9V23.1C2.69971 23.5971 3.1026 24 3.59971 24H20.3997C20.8968 24 21.2997 23.5971 21.2997 23.1V7.56C21.2997 7.3125 21.1977 7.07578 21.018 6.90572ZM19.4997 22.2H4.49971V1.8H12.9918L19.4997 7.94789V22.2Z" fill="white"/>
<path d="M16.2001 14.7H7.5001C7.00299 14.7 6.6001 15.1028 6.6001 15.6C6.6001 16.0971 7.00299 16.5 7.5001 16.5H16.2001C16.6972 16.5 17.1001 16.0971 17.1001 15.6C17.1001 15.1028 16.6972 14.7 16.2001 14.7Z" fill="white"/>
<path d="M12.6001 11.0999H7.5001C7.00299 11.0999 6.6001 11.5027 6.6001 11.9998C6.6001 12.497 7.00299 12.8998 7.5001 12.8998H12.6001C13.0972 12.8998 13.5001 12.497 13.5001 11.9998C13.5001 11.5027 13.0972 11.0999 12.6001 11.0999Z" fill="white"/>
<path d="M16.2001 18.3H7.5001C7.00299 18.3 6.6001 18.7029 6.6001 19.2C6.6001 19.6972 7.00299 20.1 7.5001 20.1H16.2001C16.6972 20.1 17.1001 19.6972 17.1001 19.2C17.1001 18.7029 16.6972 18.3 16.2001 18.3Z" fill="white"/>
<path d="M14.1003 6.90015V0.900146H12.3003V7.80015C12.3003 8.29726 12.7032 8.70015 13.2003 8.70015H20.4003V6.90015H14.1003Z" fill="white"/>
</svg>
