<svg width="24" height="24" viewBox="0 0 24 24" fill="none" xmlns="http://www.w3.org/2000/svg">
<path d="M22.6364 3.15015H1.36364C0.611719 3.15015 0 3.76187 0 4.51379V19.4865C0 20.2384 0.611719 20.8501 1.36364 20.8501H22.6364C23.3883 20.8501 24 20.2384 24 19.4865V4.51379C24 3.76187 23.3883 3.15015 22.6364 3.15015ZM22.3636 19.2138H1.63636V4.78651H22.3636V19.2138Z" fill="white"/>
<path d="M7.58167 3.96826H5.94531V20.0046H7.58167V3.96826Z" fill="white"/>
<path d="M18.0548 3.96826H16.4185V20.0046H18.0548V3.96826Z" fill="white"/>
<path d="M23.1818 8.63184H17.2363V10.2682H23.1818V8.63184Z" fill="white"/>
<path d="M6.7638 8.63184H0.818359V10.2682H6.7638V8.63184Z" fill="white"/>
<path d="M23.1818 13.7046H17.2363V15.341H23.1818V13.7046Z" fill="white"/>
<path d="M6.7638 13.7046H0.818359V15.341H6.7638V13.7046Z" fill="white"/>
</svg>
