<svg width="24" height="24" viewBox="0 0 24 24" fill="none" xmlns="http://www.w3.org/2000/svg">
<path d="M23.4463 0.500344C23.2911 0.1935 22.9766 0 22.6327 0H1.36692C1.02304 0 0.708607 0.1935 0.553357 0.500344C0.398435 0.807187 0.429419 1.17539 0.633278 1.45214L8.96189 12.7552V23.0886C8.96189 23.592 9.36989 24 9.87328 24H14.1264C14.6298 24 15.0378 23.592 15.0378 23.0886V12.7552L23.3664 1.45214C23.5705 1.17539 23.6012 0.807187 23.4463 0.500344ZM13.3927 11.9152C13.2772 12.0717 13.215 12.261 13.215 12.4557V22.1772H10.7846V12.4557C10.7846 12.261 10.7223 12.0717 10.6069 11.9152L3.17053 1.82278H20.8294L13.3927 11.9152Z" fill="white"/>
</svg>
