<svg width="24" height="24" viewBox="0 0 24 24" fill="none" xmlns="http://www.w3.org/2000/svg">
<path d="M13.0549 0H1.29078C0.80225 0 0.40625 0.395953 0.40625 0.884531V11.5872C0.40625 12.0758 0.802203 12.4718 1.29078 12.4718H13.0549C13.5434 12.4718 13.9394 12.0758 13.9394 11.5872V0.884531C13.9394 0.395953 13.5434 0 13.0549 0ZM12.1701 10.7027H2.17498V1.76906H12.1701V10.7027Z" fill="white"/>
<path d="M23.4184 14.0107L20.7203 9.65595L23.432 4.98448C23.4411 4.96854 23.45 4.95232 23.4582 4.93582C23.6386 4.57437 23.618 4.13473 23.4036 3.7886C23.1925 3.44688 22.829 3.24316 22.431 3.24316H13.0551V5.01223H21.3701L18.9235 9.22666C18.7596 9.50913 18.7646 9.8591 18.9368 10.1366L21.3341 14.0049H8.51418V11.5872H6.74512V14.8894C6.74512 15.3779 7.14107 15.7739 7.62965 15.7739H22.4306C22.8593 15.7739 23.2523 15.5372 23.4561 15.1565C23.6557 14.7832 23.6351 14.3351 23.4184 14.0107Z" fill="white"/>
<path d="M1.29078 10.7024C0.80225 10.7024 0.40625 11.0983 0.40625 11.5869V23.1151C0.40625 23.6037 0.802203 23.9997 1.29078 23.9997C1.77936 23.9997 2.17531 23.604 2.17531 23.1151V11.5869C2.17527 11.0984 1.77931 10.7024 1.29078 10.7024Z" fill="white"/>
</svg>
