<svg width="24" height="24" viewBox="0 0 24 24" fill="none" xmlns="http://www.w3.org/2000/svg">
<g clip-path="url(#clip0_2_3679)">
<path d="M19.536 11.5605C19.4261 11.2289 19.1482 10.9811 18.8062 10.9094L14.099 9.92426L15.5191 1.13777C15.5894 0.702251 15.3605 0.273244 14.9593 0.0894913C14.5577 -0.0945898 14.0836 0.0116775 13.7998 0.349746L4.6445 11.238C4.43623 11.4859 4.36362 11.821 4.45062 12.133C4.53757 12.445 4.77336 12.6941 5.08007 12.7981L9.64563 14.3476L7.80444 22.8107C7.70961 23.2472 7.92149 23.6926 8.32008 23.8943C8.46099 23.9656 8.61272 23.9999 8.76282 23.9999C9.03746 23.9999 9.30756 23.8845 9.49854 23.668L19.3405 12.5188C19.5716 12.2569 19.6462 11.892 19.536 11.5605ZM10.5232 19.5423L11.7491 13.9085C11.8554 13.4206 11.5784 12.9312 11.1059 12.7709L7.07004 11.4012L13.0161 4.33034L12.0132 10.5354C11.9295 11.0527 12.2676 11.5444 12.7806 11.652L16.7544 12.4835L10.5232 19.5423Z" fill="white"/>
</g>
<defs>
<clipPath id="clip0_2_3679">
<rect width="24" height="24" fill="white"/>
</clipPath>
</defs>
</svg>
