<svg width="24" height="24" viewBox="0 0 24 24" fill="none" xmlns="http://www.w3.org/2000/svg">
<path d="M18.5021 6.84703C18.3436 6.58397 18.0592 6.42338 17.752 6.42338H14.7281L16.0615 1.08848C16.1271 0.826875 16.0682 0.549516 15.902 0.336938C15.7362 0.124359 15.4817 0 15.2119 0H8.43814C8.01359 0 7.65041 0.304219 7.57597 0.722063L5.3862 12.9848C5.34064 13.24 5.41044 13.5022 5.57684 13.701C5.74325 13.8996 5.98911 14.0146 6.24837 14.0146H9.03055L8.52692 23.0756C8.50414 23.4867 8.77072 23.8581 9.16752 23.9682C9.24519 23.9898 9.32403 24 9.40166 24C9.72017 24 10.0218 23.8257 10.1763 23.5331L18.5266 7.70803C18.6697 7.43677 18.6606 7.11009 18.5021 6.84703ZM10.4983 19.1682L10.8308 13.1872C10.8442 12.9466 10.7581 12.7115 10.5926 12.5366C10.4273 12.362 10.1972 12.2627 9.95638 12.2627H7.29448L9.17155 1.75177H14.0898L12.7564 7.08666C12.6907 7.34827 12.7497 7.62562 12.9158 7.8382C13.0816 8.05078 13.3362 8.17514 13.606 8.17514H16.2995L10.4983 19.1682Z" fill="white"/>
</svg>
