<svg width="24" height="24" viewBox="0 0 24 24" fill="none" xmlns="http://www.w3.org/2000/svg">
<path d="M6.66667 0C4.92844 0 3.4464 1.11476 2.896 2.66667H0V5.33333H2.896C3.4464 6.88524 4.92844 8 6.66667 8C8.40489 8 9.88693 6.88524 10.4373 5.33333H24V2.66667H10.4373C9.88693 1.11476 8.40489 0 6.66667 0ZM6.66667 5.33333C5.93147 5.33333 5.33333 4.7352 5.33333 4C5.33333 3.2648 5.93147 2.66667 6.66667 2.66667C7.40187 2.66667 8 3.2648 8 4C8 4.7352 7.40187 5.33333 6.66667 5.33333Z" fill="white"/>
<path d="M17.3333 8C15.5951 8 14.1131 9.11476 13.5627 10.6667H0V13.3333H13.5627C14.1131 14.8852 15.5951 16 17.3333 16C19.0716 16 20.5536 14.8852 21.104 13.3333H24V10.6667H21.104C20.5536 9.11476 19.0716 8 17.3333 8ZM17.3333 13.3333C16.5981 13.3333 16 12.7352 16 12C16 11.2648 16.5981 10.6667 17.3333 10.6667C18.0685 10.6667 18.6667 11.2648 18.6667 12C18.6667 12.7352 18.0685 13.3333 17.3333 13.3333Z" fill="white"/>
<path d="M6.66667 16C4.92844 16 3.4464 17.1148 2.896 18.6667H0V21.3333H2.896C3.4464 22.8852 4.92844 24 6.66667 24C8.40489 24 9.88693 22.8852 10.4373 21.3333H24V18.6667H10.4373C9.88693 17.1148 8.40489 16 6.66667 16ZM6.66667 21.3333C5.93147 21.3333 5.33333 20.7352 5.33333 20C5.33333 19.2648 5.93147 18.6667 6.66667 18.6667C7.40187 18.6667 8 19.2648 8 20C8 20.7352 7.40187 21.3333 6.66667 21.3333Z" fill="white"/>
</svg>
