<svg width="24" height="24" viewBox="0 0 24 24" fill="none" xmlns="http://www.w3.org/2000/svg">
<g clip-path="url(#clip0_2_3643)">
<path d="M23.0952 5.36694H16.3717C16.1073 5.36694 15.8561 5.48244 15.6843 5.68353L6.15613 16.8241H0.904538C0.404902 16.8241 0 17.229 0 17.7287C0 18.2283 0.404902 18.6331 0.904538 18.6331H6.57284C6.83726 18.6331 7.08841 18.5174 7.26026 18.3166L16.7884 7.17597H23.0953C23.5949 7.17597 23.9998 6.77107 23.9998 6.27143C23.9998 5.7718 23.5949 5.36694 23.0952 5.36694Z" fill="white"/>
<path d="M23.7512 5.64846L20.8869 2.63339C20.5425 2.27101 19.9697 2.25652 19.6082 2.60082C19.2461 2.94483 19.2313 3.5174 19.5756 3.87951L21.848 6.27166L19.5756 8.6638C19.2312 9.02591 19.2461 9.59848 19.6082 9.9425C19.7833 10.1089 20.0073 10.1913 20.2311 10.1913C20.4702 10.1913 20.709 10.0969 20.8869 9.90964L23.7512 6.89457C24.0831 6.54545 24.0831 5.99763 23.7512 5.64846Z" fill="white"/>
<path d="M23.095 16.8239H16.7936L13.6278 13.0473C13.3076 12.6647 12.7368 12.6137 12.3536 12.9351C11.9711 13.2562 11.9207 13.8263 12.2415 14.2092L15.6786 18.3097C15.8505 18.5147 16.1041 18.6332 16.3718 18.6332H23.0954C23.5949 18.6332 23.9996 18.228 23.9996 17.7284C23.9996 17.2288 23.5946 16.8239 23.095 16.8239Z" fill="white"/>
<path d="M10.6757 9.79392L7.26869 5.69347C7.09652 5.48666 6.84176 5.36694 6.57284 5.36694H0.904538C0.404902 5.36694 0 5.77185 0 6.27143C0 6.77102 0.404902 7.17597 0.904538 7.17597H6.1483L9.28425 10.9499C9.46336 11.1652 9.72084 11.2764 9.98043 11.2764C10.184 11.2764 10.389 11.208 10.5578 11.0678C10.9422 10.7485 10.995 10.1781 10.6757 9.79392Z" fill="white"/>
<path d="M23.7511 17.1056L20.8869 14.0905C20.5425 13.7278 19.9697 13.7137 19.6082 14.058C19.2461 14.4017 19.2313 14.9745 19.5756 15.3367L21.848 17.7288L19.5756 20.1209C19.2312 20.483 19.2461 21.0556 19.6082 21.3996C19.7833 21.5661 20.0073 21.6484 20.2311 21.6484C20.4702 21.6484 20.709 21.5543 20.8869 21.3668L23.7512 18.3517C24.0831 18.0025 24.0831 17.4547 23.7511 17.1056Z" fill="white"/>
</g>
<defs>
<clipPath id="clip0_2_3643">
<rect width="24" height="24" fill="white"/>
</clipPath>
</defs>
</svg>
