<svg width="24" height="24" viewBox="0 0 24 24" fill="none" xmlns="http://www.w3.org/2000/svg">
<path d="M11.9998 0C5.54417 0 0.29248 5.25169 0.29248 11.7073V18.6341C0.29248 19.173 0.729215 19.6097 1.26809 19.6097H4.39006V17.6585H2.2437V11.7073C2.2437 6.3278 6.62028 1.95122 11.9998 1.95122C17.3793 1.95122 21.7559 6.3278 21.7559 11.7073V17.6585H19.7071V19.6097H22.7315C23.2704 19.6097 23.7071 19.173 23.7071 18.6341V11.7073C23.7071 5.25169 18.4554 0 11.9998 0Z" fill="white"/>
<path d="M7.93484 13.5935H4.39016C3.85128 13.5935 3.41455 14.0302 3.41455 14.5691V22.9919C3.41455 23.5272 3.84608 23.9623 4.38139 23.9675L7.92608 24C7.92898 24 7.93194 24 7.93484 24C8.19176 24 8.43889 23.8982 8.62165 23.7174C8.80639 23.534 8.91045 23.2849 8.91045 23.0244V14.5691C8.91045 14.0302 8.47372 13.5935 7.93484 13.5935ZM6.95923 22.04L5.36572 22.0254V15.5447H6.95923V22.04Z" fill="white"/>
<path d="M19.6422 13.5935H16.065C15.5261 13.5935 15.0894 14.0302 15.0894 14.5691V22.9919C15.0894 23.5308 15.5261 23.9675 16.065 23.9675H19.6422C20.1811 23.9675 20.6178 23.5308 20.6178 22.9919V14.5691C20.6178 14.0302 20.1811 13.5935 19.6422 13.5935ZM18.6666 22.0162H17.0406V15.5447H18.6666V22.0162Z" fill="white"/>
</svg>
