<svg width="24" height="24" viewBox="0 0 24 24" fill="none" xmlns="http://www.w3.org/2000/svg">
<path d="M6.47367 10.3894C2.904 10.3894 0 13.4352 0 17.1789C0 20.9225 2.904 23.9683 6.47367 23.9683C6.99694 23.9683 7.42106 23.5442 7.42106 23.021V11.3368C7.42106 10.8135 6.99694 10.3894 6.47367 10.3894ZM5.52633 21.9681C3.45445 21.5007 1.89473 19.5305 1.89473 17.1789C1.89473 14.8272 3.45441 12.857 5.52633 12.3896V21.9681Z" fill="white"/>
<path d="M17.5265 10.3582C17.0032 10.3582 16.5791 10.7823 16.5791 11.3055V22.9897C16.5791 23.513 17.0032 23.9371 17.5265 23.9371C21.0962 23.9371 24.0002 20.8913 24.0002 17.1477C24.0002 13.404 21.0962 10.3582 17.5265 10.3582ZM18.4738 21.9369V12.3584C20.5457 12.8261 22.1054 14.7957 22.1054 17.1477C22.1054 19.4996 20.5458 21.4695 18.4738 21.9369Z" fill="white"/>
<path d="M12.0001 0.0317383C5.40075 0.0317383 0.0317383 5.40075 0.0317383 12.0001V17.5265H1.92647V12.0001C1.92647 6.44574 6.44541 1.92647 12.0001 1.92647C17.5549 1.92647 22.0738 6.44574 22.0738 12.0001V17.5265H23.9685V12.0001C23.9685 5.40075 18.5995 0.0317383 12.0001 0.0317383Z" fill="white"/>
</svg>
