<svg width="24" height="24" viewBox="0 0 24 24" fill="none" xmlns="http://www.w3.org/2000/svg">
<g clip-path="url(#clip0_2_3587)">
<path d="M22.2855 9.38531L12.2855 0.218626C11.9597 -0.0794523 11.4586 -0.0721866 11.1419 0.235032L1.69741 9.40167C1.53574 9.55861 1.44434 9.77447 1.44434 9.9997V23.1664C1.44434 23.6266 1.81737 23.9997 2.27768 23.9997H9.22212C9.68238 23.9997 10.0555 23.6266 10.0555 23.1664V17.0553H13.9444V23.1664C13.9444 23.6266 14.3174 23.9997 14.7777 23.9997H21.7221C22.1824 23.9997 22.5555 23.6269 22.5555 23.1664V9.99975C22.5555 9.76612 22.4577 9.54338 22.2855 9.38531ZM20.8888 22.3331H15.611V16.222C15.611 15.7617 15.238 15.3886 14.7777 15.3886H9.22216C8.7619 15.3886 8.38882 15.7617 8.38882 16.222V22.3331H3.11102V10.3523L11.7386 1.97864L20.8888 10.3664V22.3331H20.8888Z" fill="white"/>
</g>
<defs>
<clipPath id="clip0_2_3587">
<rect width="24" height="24" fill="white"/>
</clipPath>
</defs>
</svg>
