<svg width="24" height="24" viewBox="0 0 24 24" fill="none" xmlns="http://www.w3.org/2000/svg">
<path d="M17.3895 0.893311V6.20786L11.9999 10.4737L6.61032 6.20786V0.893311H4.82373V6.64023C4.82373 6.91328 4.94879 7.17114 5.16259 7.34087L11.4455 12.3136C11.608 12.4419 11.804 12.5062 11.9999 12.5062C12.1959 12.5062 12.3918 12.4419 12.5537 12.3136L18.8369 7.34087C19.0513 7.17114 19.1761 6.91328 19.1761 6.64023V0.893311H17.3895Z" fill="white"/>
<path d="M18.8372 16.3615L12.5541 11.3888C12.2295 11.1318 11.7704 11.1318 11.4455 11.3888L5.16259 16.3615C4.94851 16.5312 4.82373 16.7891 4.82373 17.0621V23.1068H6.61032V17.4941L11.9999 13.2287L17.3895 17.4941V23.1068H19.1761H19.1764V17.0621C19.1764 16.7891 19.0517 16.5309 18.8372 16.3615Z" fill="white"/>
<path d="M21.0224 0H2.97782C2.48441 0 2.08447 0.399891 2.08447 0.893297C2.08447 1.3867 2.48436 1.78659 2.97777 1.78659H21.0224C21.5158 1.78659 21.9157 1.3867 21.9157 0.893297C21.9157 0.399891 21.5158 0 21.0224 0Z" fill="white"/>
<path d="M21.0224 22.2134H2.97777C2.48436 22.2134 2.08447 22.6133 2.08447 23.1067C2.08447 23.6001 2.48436 24 2.97777 24H21.0224C21.5158 24 21.9157 23.6001 21.9157 23.1067C21.9157 22.6133 21.5158 22.2134 21.0224 22.2134Z" fill="white"/>
</svg>
