<svg width="24" height="24" viewBox="0 0 24 24" fill="none" xmlns="http://www.w3.org/2000/svg">
<g clip-path="url(#clip0_2_3589)">
<path d="M23.1428 1.71436H0.857156C0.383719 1.71436 0 2.09807 0 2.57151V21.4287C0 21.9021 0.383719 22.2858 0.857156 22.2858H23.1429C23.6163 22.2858 24 21.9021 24 21.4287V2.57151C24 2.09807 23.6163 1.71436 23.1428 1.71436ZM22.2857 20.5715H1.71427V3.42867H22.2857V20.5715H22.2857Z" fill="white"/>
<path d="M10.2086 8.28837C9.93857 7.95608 9.46514 7.87353 9.09857 8.09581L0.384277 13.3815L1.27312 14.8475L9.34856 9.94892L18.9917 21.8261L20.3228 20.7458L10.2086 8.28837Z" fill="white"/>
<path d="M17.7894 8.1805C17.4562 7.89222 16.9585 7.90309 16.6388 8.2068L12.1816 12.4354L13.3613 13.6794L17.2551 9.9851L22.6105 14.62L23.7322 13.3234L17.7894 8.1805Z" fill="white"/>
</g>
<defs>
<clipPath id="clip0_2_3589">
<rect width="24" height="24" fill="white"/>
</clipPath>
</defs>
</svg>
