<svg width="24" height="24" viewBox="0 0 24 24" fill="none" xmlns="http://www.w3.org/2000/svg">
<path d="M23.226 5.56128H19.4324V7.10965H22.4518V20.1677H5.08402V17.6903H3.53564V20.9419C3.53564 21.3695 3.88224 21.7161 4.30983 21.7161H23.226C23.6536 21.7161 24.0001 21.3695 24.0001 20.9419V6.33547C24.0001 5.90787 23.6536 5.56128 23.226 5.56128Z" fill="white"/>
<path d="M20.1806 17.4917V3.05788C20.1806 2.63029 19.834 2.28369 19.4064 2.28369H0.774188C0.346594 2.28369 0 2.63024 0 3.05788V17.6901C0 18.1177 0.346594 18.4643 0.774188 18.4643H19.4323C19.8599 18.4643 20.2065 18.118 20.2065 17.6904C20.2065 17.6218 20.1974 17.5549 20.1806 17.4917ZM18.6322 16.9159H1.54838V3.83207H18.6322V16.9159Z" fill="white"/>
<path d="M12.3871 4.78711C11.1208 4.78711 10.0903 5.81756 10.0903 7.08389C10.0903 8.35022 11.1208 9.38067 12.3871 9.38067C13.6534 9.38067 14.6839 8.35022 14.6839 7.08389C14.6839 5.81756 13.6534 4.78711 12.3871 4.78711ZM12.3871 7.83225C11.9745 7.83225 11.6387 7.49653 11.6387 7.08384C11.6387 6.67116 11.9744 6.33544 12.3871 6.33544C12.8 6.33544 13.1355 6.67116 13.1355 7.08384C13.1355 7.49653 12.8 7.83225 12.3871 7.83225Z" fill="white"/>
<path d="M13.5157 14.4644L8.97379 7.8577C8.82951 7.64765 8.59082 7.52222 8.33587 7.52222C8.33535 7.52222 8.33507 7.52222 8.33484 7.52222C8.07937 7.52245 7.84063 7.64869 7.69663 7.85953L3.18051 14.4659C3.01846 14.7031 3.00088 15.0104 3.13485 15.2644C3.26878 15.5183 3.53226 15.6773 3.81951 15.6773H12.8776C13.1653 15.6773 13.4291 15.5181 13.5633 15.2634C13.6969 15.0089 13.6789 14.7013 13.5157 14.4644ZM5.28632 14.1289L8.33742 9.66567L11.4058 14.1289H5.28632Z" fill="white"/>
<path d="M17.5077 14.4189L14.4883 10.6509C14.3412 10.4677 14.119 10.3608 13.8842 10.3608H13.8839C13.6488 10.3611 13.4263 10.4679 13.2795 10.6514L11.3182 13.103L12.5275 14.0702L13.8846 12.3737L15.2911 14.1288H10.8647V15.6772H16.9035C17.201 15.6772 17.4725 15.5066 17.6013 15.2382C17.7304 14.9699 17.694 14.6512 17.5077 14.4189Z" fill="white"/>
</svg>
