<svg width="24" height="24" viewBox="0 0 24 24" fill="none" xmlns="http://www.w3.org/2000/svg">
<path d="M19.7514 5.95142C17.4085 5.95142 15.5024 7.84287 15.5024 10.1676V13.8001C15.5024 16.143 17.4085 18.0487 19.7514 18.0487C22.094 18.0487 24.0001 16.143 24.0001 13.8001V10.2001C24.0001 7.85717 22.0941 5.95142 19.7514 5.95142ZM22.0542 13.8001C22.0542 15.0698 21.0212 16.1028 19.7515 16.1028C18.4817 16.1028 17.4485 15.0698 17.4485 13.8001V10.1676C17.4485 8.91574 18.4818 7.89738 19.7515 7.89738C21.0212 7.89738 22.0542 8.93037 22.0542 10.2001V13.8001Z" fill="white"/>
<path d="M16.4757 11.0107H0.972984C0.435562 11.0107 0 11.4463 0 11.9837V16.1999C0 16.7374 0.435562 17.1729 0.972984 17.1729C1.51041 17.1729 1.94597 16.7374 1.94597 16.1996V12.9567H16.4757C17.0131 12.9567 17.4487 12.5211 17.4487 11.9837C17.4487 11.4463 17.0131 11.0107 16.4757 11.0107Z" fill="white"/>
<path d="M4.28109 11.0107C3.74367 11.0107 3.30811 11.4463 3.30811 11.9837V15.227C3.30811 15.7644 3.74367 16.1999 4.28109 16.1999C4.81851 16.1999 5.25407 15.7644 5.25407 15.227V11.9837C5.25403 11.4463 4.81846 11.0107 4.28109 11.0107Z" fill="white"/>
<path d="M7.65414 11.0107C7.11671 11.0107 6.68115 11.4463 6.68115 11.9837V16.0378C6.68115 16.5752 7.11671 17.0107 7.65414 17.0107C8.19156 17.0107 8.62712 16.5752 8.62712 16.0378V11.9837C8.62712 11.4463 8.19156 11.0107 7.65414 11.0107Z" fill="white"/>
</svg>
