<svg width="24" height="24" viewBox="0 0 24 24" fill="none" xmlns="http://www.w3.org/2000/svg">
<path d="M23.1368 6.30225H17.2663V8.02889H22.2735V21.8418H7.59725V16.8346H5.87061V22.7051C5.87061 23.1819 6.25709 23.5684 6.7339 23.5684H23.1368C23.6139 23.5684 24.0001 23.1822 24.0001 22.7051V7.16554C24.0001 6.68873 23.6136 6.30225 23.1368 6.30225Z" fill="white"/>
<path d="M17.2662 0.431641H0.863297C0.386484 0.431641 0 0.818078 0 1.29494V16.8345C0 17.3113 0.386484 17.6978 0.863297 17.6978H17.2662C17.743 17.6978 18.1295 17.3113 18.1295 16.8345V1.29494C18.1295 0.818078 17.743 0.431641 17.2662 0.431641ZM16.4029 15.9712H1.72664V2.15823H16.4029V15.9712H16.4029Z" fill="white"/>
</svg>
