<svg width="24" height="24" viewBox="0 0 24 24" fill="none" xmlns="http://www.w3.org/2000/svg">
<path d="M14.6026 16.6921H9.18755C8.75199 16.6921 8.39893 17.0452 8.39893 17.4808V23.2113C8.39893 23.6469 8.75194 24 9.18755 24H14.6026C15.0385 24 15.3913 23.6469 15.3913 23.2113V17.4807C15.3913 17.0452 15.0382 16.6921 14.6026 16.6921ZM13.814 22.4227H9.97613V18.2693H13.814V22.4227Z" fill="white"/>
<path d="M11.8949 4.44263C7.90878 4.44263 4.66602 7.68539 4.66602 11.6715C4.66602 14.5303 6.35708 17.125 8.97392 18.2812L9.61137 16.8385C7.56519 15.9345 6.24322 13.9062 6.24322 11.6715C6.24322 8.55525 8.77888 6.01983 11.8949 6.01983C15.011 6.01983 17.5467 8.55521 17.5467 11.6715C17.5467 13.9151 16.2144 15.9534 14.1522 16.8651L14.7899 18.3077C17.4229 17.144 19.1239 14.5392 19.1239 11.6715C19.1239 7.68539 15.8811 4.44263 11.8949 4.44263Z" fill="white"/>
<path d="M14.6021 19.5837H9.18701V21.1609H14.6021V19.5837Z" fill="white"/>
<path d="M12.7886 0H11.2114V3.28589H12.7886V0Z" fill="white"/>
<path d="M23.5138 10.6987H20.2017V12.2759H23.5138V10.6987Z" fill="white"/>
<path d="M3.79847 10.6987H0.486328V12.2759H3.79847V10.6987Z" fill="white"/>
<path d="M4.43487 2.80707L3.31982 3.92212L5.63301 6.2353L6.74805 5.12026L4.43487 2.80707Z" fill="white"/>
<path d="M19.5646 2.8084L17.2515 5.12158L18.3665 6.23662L20.6797 3.92344L19.5646 2.8084Z" fill="white"/>
</svg>
