<svg width="24" height="24" viewBox="0 0 24 24" fill="none" xmlns="http://www.w3.org/2000/svg">
<path d="M21.8768 3.10217C20.4889 1.71425 18.632 0.949951 16.6475 0.949951C14.939 0.949951 13.3252 1.51658 12.0236 2.55973C10.7033 1.51658 9.08747 0.949951 7.39566 0.949951C5.40197 0.949951 3.54009 1.71458 2.15222 3.10217C0.764297 4.48981 0 6.34709 0 8.33126C0 10.3157 0.764297 12.1727 2.15222 13.5603L11.3896 22.7977C11.558 22.9664 11.779 23.0507 12 23.0507C12.2205 23.0507 12.4409 22.9666 12.6095 22.7989L21.8544 13.5822C23.2383 12.1672 24 10.3077 24 8.34565C24 6.36551 23.2484 4.50594 21.8768 3.10217ZM20.6276 12.3669L12.0008 20.9672L3.37294 12.3396C2.31136 11.2777 1.72659 9.85414 1.72659 8.33126C1.72659 6.80839 2.31136 5.3848 3.37294 4.32294C4.4348 3.26136 5.86331 2.67659 7.39566 2.67659C8.90358 2.67659 10.335 3.26394 11.4253 4.32983C11.7631 4.66048 12.305 4.65758 12.6391 4.32294C13.701 3.26136 15.1243 2.67659 16.6475 2.67659C18.1706 2.67659 19.5939 3.26136 20.6486 4.316C21.6964 5.38794 22.2734 6.81903 22.2734 8.34565C22.2734 9.85386 21.6863 11.2849 20.6276 12.3669Z" fill="#F32D36"/>
</svg>
