<svg width="24" height="24" viewBox="0 0 24 24" fill="none" xmlns="http://www.w3.org/2000/svg">
<g clip-path="url(#clip0_2_3568)">
<path d="M23.7418 6.39267L17.5948 0.245603C17.2671 -0.0817269 16.7366 -0.0820081 16.409 0.245603L9.51084 7.14375C9.18323 7.47108 9.18323 8.00218 9.51084 8.32951L15.6582 14.4766C15.8153 14.6339 16.0286 14.7223 16.2511 14.7223C16.4736 14.7223 16.6866 14.6337 16.844 14.4766L23.7418 7.57871C23.8992 7.42163 23.9875 7.20807 23.9875 6.98583C23.9875 6.76332 23.8992 6.55003 23.7418 6.39267ZM16.2511 12.6979L11.2898 7.73663L17.0019 2.02452L21.9635 6.98555L16.2511 12.6979Z" fill="white"/>
<path d="M14.4894 15.6703L8.34233 9.52333C8.015 9.196 7.48391 9.196 7.15658 9.52333L0.258192 16.4215C-0.069137 16.7488 -0.069137 17.2796 0.258192 17.6072L6.40526 23.7543C6.56262 23.9116 6.77591 24 6.99842 24C7.22066 24 7.43394 23.9117 7.5913 23.7543L14.4895 16.8561C14.6468 16.6991 14.7352 16.4858 14.7352 16.2633C14.7352 16.0407 14.6468 15.8277 14.4894 15.6703ZM6.99837 21.9756L2.03734 17.0143L7.74946 11.3022L12.7105 16.2633L6.99837 21.9756Z" fill="white"/>
<path d="M16.9816 7.0189C16.654 6.69129 16.1234 6.69129 15.7958 7.0189L7.35411 15.4606C7.0265 15.7879 7.0265 16.319 7.35411 16.6463C7.51761 16.8101 7.7323 16.892 7.94698 16.892C8.16139 16.892 8.37608 16.8101 8.53986 16.6463L16.9816 8.20461C17.3092 7.87733 17.3092 7.34623 16.9816 7.0189Z" fill="white"/>
</g>
<defs>
<clipPath id="clip0_2_3568">
<rect width="24" height="24" fill="white"/>
</clipPath>
</defs>
</svg>
