<svg width="24" height="24" viewBox="0 0 24 24" fill="none" xmlns="http://www.w3.org/2000/svg">
<g clip-path="url(#clip0_2_3588)">
<path d="M15.3806 11.7634C15.0426 11.4253 14.4951 11.4253 14.1569 11.7634L10.1545 15.7658L2.08794 7.67415L7.6749 2.08724L11.5339 5.92177C11.8729 6.25871 12.4207 6.25698 12.7579 5.91774C13.0948 5.57851 13.0928 5.03072 12.7539 4.69378L8.28268 0.251469C7.94462 -0.0845793 7.39796 -0.0837355 7.06102 0.253485L0.253337 7.06117C-0.0841642 7.39867 -0.0844455 7.94589 0.252493 8.28395L9.541 17.6013C9.70309 17.764 9.9235 17.8554 10.1531 17.8557C10.1534 17.8557 10.1534 17.8557 10.1537 17.8557C10.383 17.8557 10.6034 17.7646 10.7652 17.6025L15.3806 12.987C15.7187 12.6493 15.7187 12.1012 15.3806 11.7634Z" fill="white"/>
<path d="M23.7475 15.7158L14.459 6.39848C14.2969 6.23578 14.0765 6.14404 13.8465 6.14404C13.8465 6.14404 13.8463 6.14404 13.846 6.14404C13.6164 6.14404 13.3963 6.23522 13.2342 6.39759L8.61878 11.013C8.28072 11.3508 8.28072 11.8989 8.61878 12.2367C8.95656 12.5748 9.50463 12.5748 9.84246 12.2367L13.8452 8.23425L21.9115 16.3256L16.3245 21.9126L12.6959 18.3085C12.3572 17.9719 11.8089 17.9739 11.4722 18.3128C11.1353 18.6521 11.1373 19.1999 11.4762 19.5368L15.7167 23.7486C15.8854 23.9162 16.1058 23.9999 16.3265 23.9999C16.548 23.9999 16.7695 23.9154 16.9386 23.7463L23.7463 16.9386C24.0841 16.6011 24.0844 16.0539 23.7475 15.7158Z" fill="white"/>
</g>
<defs>
<clipPath id="clip0_2_3588">
<rect width="24" height="24" fill="white"/>
</clipPath>
</defs>
</svg>
