<svg width="24" height="24" viewBox="0 0 24 24" fill="none" xmlns="http://www.w3.org/2000/svg">
<path d="M21.8321 11.2833L19.8405 9.29138C19.4448 8.89604 18.804 8.89604 18.4083 9.29138C18.0126 9.68704 18.0126 10.3286 18.4083 10.7239L20.3999 12.7159C22.5039 14.8202 22.5019 18.269 20.3999 20.3994C18.2962 22.5031 14.8474 22.5014 12.7164 20.3994L10.7244 18.4078C10.3291 18.0121 9.68761 18.0121 9.2919 18.4078C8.89619 18.8035 8.89619 19.4446 9.2919 19.84L11.2885 21.8366C12.7494 23.2779 14.661 23.9991 16.5685 23.9991C18.4801 23.9991 20.3884 23.2749 21.837 21.8268C24.7231 18.9014 24.7211 14.172 21.8321 11.2833Z" fill="white"/>
<path d="M14.7078 4.16011L12.7111 2.16309C9.78637 -0.722528 5.05668 -0.720185 2.16295 2.17288C-0.722997 5.09801 -0.720654 9.82733 2.16801 12.716L4.15997 14.708C4.3575 14.9058 4.61676 15.0047 4.87607 15.0047C5.135 15.0047 5.39431 14.9058 5.59217 14.7076C5.98783 14.3123 5.98783 13.6708 5.59217 13.2754L3.6002 11.2835C1.49616 9.17943 1.49818 5.73067 3.6002 3.60029C5.70457 1.49658 9.15333 1.49865 11.2837 3.60029L13.2757 5.59225C13.6714 5.98797 14.3122 5.98797 14.7079 5.59225C15.1035 5.19692 15.1035 4.55545 14.7078 4.16011Z" fill="white"/>
<path d="M15.2816 13.8499L10.1498 8.71817C9.7545 8.32246 9.11303 8.32246 8.71765 8.71817C8.32198 9.1135 8.32198 9.75498 8.71765 10.1504L13.8494 15.2821C14.0473 15.48 14.3062 15.5789 14.5655 15.5789C14.8248 15.5789 15.0838 15.48 15.2816 15.2821C15.6773 14.8867 15.6773 14.2453 15.2816 13.8499Z" fill="white"/>
</svg>
