<svg width="24" height="24" viewBox="0 0 24 24" fill="none" xmlns="http://www.w3.org/2000/svg">
<g clip-path="url(#clip0_2_3605)">
<path d="M14.8555 16.6367C14.5103 16.2932 13.9515 16.2944 13.608 16.6402L8.1397 22.1376C8.01323 22.2634 7.83741 22.2634 7.71272 22.139L1.85916 16.2561C1.78092 16.1782 1.76447 16.0967 1.76447 16.0418C1.76447 15.9873 1.78092 15.9056 1.85738 15.8291L7.35656 10.3593C7.70208 10.0156 7.7033 9.45713 7.3598 9.11156C7.01602 8.76605 6.45759 8.76483 6.11203 9.10833L0.611391 14.5796C0.217031 14.974 0 15.4933 0 16.0417C0 16.5902 0.217031 17.1095 0.609891 17.5024L6.46345 23.3856C6.87309 23.7953 7.39861 24 7.92469 24C8.45109 24 8.97806 23.7944 9.38888 23.3833L14.859 17.8841C15.2028 17.5389 15.201 16.9801 14.8555 16.6367Z" fill="white"/>
<path d="M23.3851 6.46317L17.5333 0.611391C17.1389 0.217031 16.6196 0 16.0712 0C15.5227 0 15.0037 0.217313 14.6075 0.612844L9.13773 6.11203C8.79395 6.45755 8.79545 7.0163 9.14097 7.3598C9.48681 7.7033 10.0452 7.70208 10.3887 7.35656L15.8567 1.85916C15.9347 1.78092 16.0161 1.76447 16.0711 1.76447C16.1258 1.76447 16.2073 1.78092 16.2855 1.85916L22.1373 7.71094C22.2638 7.83741 22.2638 8.01356 22.1394 8.13792L16.6402 13.608C16.2947 13.9515 16.2929 14.5102 16.6367 14.8555C16.809 15.029 17.0354 15.1157 17.2622 15.1157C17.4871 15.1157 17.7121 15.0301 17.8841 14.859L23.3851 9.38686C24.2047 8.56725 24.2047 7.28334 23.3851 6.46317Z" fill="white"/>
<path d="M16.4744 7.52218C16.1297 7.1775 15.5716 7.1775 15.2269 7.52218L7.52218 15.2269C7.1775 15.5713 7.1775 16.13 7.52218 16.4744C7.69421 16.6467 7.92005 16.7329 8.14589 16.7329C8.37174 16.7329 8.59758 16.6467 8.76961 16.4744L16.4744 8.76966C16.8191 8.42532 16.8191 7.86657 16.4744 7.52218Z" fill="white"/>
</g>
<defs>
<clipPath id="clip0_2_3605">
<rect width="24" height="24" fill="white"/>
</clipPath>
</defs>
</svg>
