<svg width="153" height="32" viewBox="0 0 153 32" fill="none" xmlns="http://www.w3.org/2000/svg">
<path d="M31.6756 3.11621C29.666 1.10663 26.9773 0 24.104 0C21.6302 0 19.2936 0.82042 17.409 2.33081C15.4974 0.82042 13.1578 0 10.7082 0C7.82154 0 5.12572 1.1071 3.11621 3.11621C1.10663 5.12538 0 7.81455 0 10.6874C0 13.5607 1.10663 16.2495 3.11621 18.2586L16.4911 31.6335C16.7348 31.8777 17.0549 31.9998 17.3749 31.9998C17.6941 31.9998 18.0132 31.8781 18.2574 31.6352L31.6431 18.2902C33.6468 16.2416 34.7497 13.5491 34.7497 10.7083C34.7497 7.84122 33.6614 5.14873 31.6756 3.11621ZM29.8669 16.5307L17.3761 28.9831L4.8837 16.4911C3.34663 14.9537 2.49994 12.8924 2.49994 10.6874C2.49994 8.48246 3.34663 6.42124 4.8837 4.88376C6.42117 3.3467 8.48952 2.50001 10.7082 2.50001C12.8915 2.50001 14.964 3.35043 16.5428 4.89374C17.0319 5.3725 17.8165 5.36829 18.3003 4.88376C19.8378 3.3467 21.8986 2.50001 24.104 2.50001C26.3093 2.50001 28.3702 3.3467 29.8973 4.87372C31.4143 6.42578 32.2497 8.49787 32.2497 10.7083C32.2497 12.892 31.3998 14.964 29.8669 16.5307Z" fill="#F32D36"/>
<path d="M120.704 28.8838C122.714 30.8934 125.403 32 128.276 32C130.75 32 133.086 31.1796 134.971 29.6692C136.883 31.1796 139.222 32 141.672 32C144.558 32 147.254 30.8929 149.264 28.8838C151.273 26.8746 152.38 24.1855 152.38 21.3126C152.38 18.4393 151.273 15.7505 149.264 13.7414L135.889 0.366476C135.645 0.122278 135.325 0.000247955 135.005 0.000247955C134.686 0.000247955 134.367 0.121941 134.123 0.364849L120.737 13.7098C118.733 15.7584 117.63 18.4509 117.63 21.2917C117.63 24.1588 118.719 26.8513 120.704 28.8838ZM122.513 15.4693L135.004 3.01689L147.496 15.5089C149.033 17.0463 149.88 19.1076 149.88 21.3126C149.88 23.5175 149.033 25.5788 147.496 27.1162C145.959 28.6533 143.89 29.5 141.672 29.5C139.488 29.5 137.416 28.6496 135.837 27.1063C135.348 26.6275 134.563 26.6317 134.08 27.1162C132.542 28.6533 130.481 29.5 128.276 29.5C126.071 29.5 124.01 28.6533 122.483 27.1263C120.966 25.5742 120.13 23.5021 120.13 21.2917C120.13 19.108 120.98 17.036 122.513 15.4693Z" fill="#F32D36"/>
<path d="M40.6345 0H45.2059V31.9998H40.6345V0Z" fill="white"/>
<path d="M50.7932 0H64.2788C67.6617 0 70.6635 0.670471 73.2845 2.01141C75.9054 3.35235 77.9321 5.24186 79.3644 7.67994C80.8273 10.0875 81.5587 12.8609 81.5587 15.9999C81.5587 19.1389 80.8273 21.9274 79.3644 24.3655C77.9321 26.7731 75.9054 28.6474 73.2845 29.9883C70.6635 31.3293 67.6617 31.9998 64.2788 31.9998H50.7932V0ZM64.0045 28.0226C66.595 28.0226 68.8655 27.5198 70.8159 26.5141C72.7969 25.5084 74.3207 24.1065 75.3873 22.3084C76.454 20.4798 76.9873 18.377 76.9873 15.9999C76.9873 13.6228 76.454 11.5351 75.3873 9.73707C74.3207 7.90851 72.7969 6.49138 70.8159 5.48567C68.8655 4.47997 66.595 3.97711 64.0045 3.97711H55.3646V28.0226H64.0045Z" fill="white"/>
<path d="M112.111 28.0226V31.9998H88.8882V0H111.471V3.97711H93.4596V13.8056H109.505V17.6913H93.4596V28.0226H112.111Z" fill="white"/>
</svg>
