<svg width="24" height="24" viewBox="0 0 24 24" fill="none" xmlns="http://www.w3.org/2000/svg">
<path d="M19.6159 5.57837H0.843094C0.377438 5.57837 0 5.95581 0 6.42146V17.5784C0 18.044 0.377438 18.4215 0.843094 18.4215H19.6159C20.0816 18.4215 20.459 18.0443 20.459 17.5784V6.42146C20.459 5.95581 20.0816 5.57837 19.6159 5.57837ZM18.7728 16.7353H1.68619V7.26456H18.7728V16.7353Z" fill="white"/>
<path d="M23.1567 8.22021H19.6157V9.9064H22.3136V14.0657H19.6157V15.7519H23.1567C23.6227 15.7519 23.9998 15.3747 23.9998 14.9088V9.06331C23.9998 8.59765 23.6224 8.22021 23.1567 8.22021Z" fill="white"/>
<path d="M6.68864 6.42163H5.00244V17.5504H6.68864V6.42163Z" fill="white"/>
</svg>
