<svg width="24" height="24" viewBox="0 0 24 24" fill="none" xmlns="http://www.w3.org/2000/svg">
<path d="M8.50916 11.3971V20.0946L3.78617 21.5463V10.7158L7.33995 9.67183L6.90589 8.19409L2.79898 9.40056C2.47119 9.49679 2.24609 9.79764 2.24609 10.1393V22.5885C2.24609 22.8329 2.36211 23.0629 2.55847 23.2079C2.69272 23.307 2.85341 23.3585 3.01616 23.3585C3.09186 23.3585 3.16813 23.3472 3.24228 23.3244L9.50539 21.3992C9.82883 21.2999 10.0493 21.0014 10.0493 20.6634V11.3971H8.50916Z" fill="white"/>
<path d="M14.2589 11.0886V22.0424L9.59318 19.9596L8.96533 21.366L14.7151 23.9328C14.8154 23.9777 14.9224 23.9998 15.029 23.9998C15.1753 23.9998 15.3211 23.958 15.4481 23.8758C15.6668 23.7339 15.7991 23.4908 15.7991 23.2298V11.0886H14.2589Z" fill="white"/>
<path d="M21.4645 8.89566C21.2813 8.74937 21.041 8.69391 20.8136 8.74651L14.9355 10.0813L15.2764 11.5831L20.214 10.4619V21.3249L14.8667 22.4771L15.1912 23.9825L21.1463 22.6994C21.501 22.6229 21.7541 22.3092 21.7541 21.9465V9.4973C21.7541 9.26321 21.6475 9.04168 21.4645 8.89566Z" fill="white"/>
<path d="M16.4719 1.84275C15.2837 0.654281 13.7 0 12.0131 0C10.3261 0 8.74242 0.654281 7.55423 1.84247C5.57545 3.82125 5.13984 6.81703 6.47592 9.30633C6.79162 9.87516 7.14459 10.3508 7.55423 10.7604L11.4558 14.662C11.606 14.8125 11.8031 14.8876 12.0002 14.8876C12.1973 14.8876 12.3943 14.8125 12.5446 14.662L16.4462 10.7604C18.9122 8.29477 18.9238 4.29431 16.4719 1.84275ZM15.3574 9.67163L12.0002 13.0288L8.64304 9.67139C8.33606 9.36441 8.06756 9.00042 7.82756 8.56842C6.82031 6.69178 7.14839 4.42655 8.64304 2.93161C9.54042 2.03423 10.7373 1.54012 12.0131 1.54012C13.2891 1.54012 14.4857 2.03423 15.3831 2.93161C17.2343 4.7828 17.2227 7.80628 15.3574 9.67163Z" fill="white"/>
<path d="M11.9999 3.4397C10.5136 3.4397 9.30469 4.6487 9.30469 6.13487C9.30469 7.62105 10.5137 8.83005 11.9999 8.83005C13.486 8.83005 14.695 7.62105 14.695 6.13487C14.695 4.6487 13.4861 3.4397 11.9999 3.4397ZM11.9999 7.28997C11.363 7.28997 10.8448 6.77172 10.8448 6.13487C10.8448 5.49803 11.363 4.97978 11.9999 4.97978C12.6367 4.97978 13.155 5.49803 13.155 6.13487C13.155 6.77172 12.6367 7.28997 11.9999 7.28997Z" fill="white"/>
</svg>
