<svg width="24" height="24" viewBox="0 0 24 24" fill="none" xmlns="http://www.w3.org/2000/svg">
<path d="M8.93794 0.919099C8.71158 0.750677 8.41931 0.699021 8.14964 0.780677L0.634734 3.03813C0.258141 3.15129 0 3.49821 0 3.89149V21.5945C0 21.8761 0.133359 22.1413 0.359109 22.3094C0.514734 22.4253 0.701859 22.4856 0.891094 22.4856C0.976922 22.4856 1.06336 22.4731 1.14745 22.4482L8.66231 20.1904C9.03895 20.0773 9.29705 19.7304 9.29705 19.3371V1.63408C9.29705 1.35218 9.16364 1.08696 8.93794 0.919099ZM7.51486 18.6738L1.78219 20.3959V4.55416L7.51486 2.83197V18.6738Z" fill="white"/>
<path d="M16.2829 3.83678L8.73829 0.807107C8.46356 0.696622 8.15226 0.729575 7.9072 0.895607C7.66214 1.06136 7.51514 1.33787 7.51514 1.63375V19.3367C7.51514 19.7009 7.73643 20.0279 8.07417 20.1636L15.6187 23.1933C15.7257 23.2364 15.8385 23.2575 15.9508 23.2575C16.1263 23.2575 16.3004 23.2058 16.4501 23.1048C16.6952 22.9394 16.8419 22.6626 16.8419 22.3667V4.6637C16.8418 4.29986 16.6205 3.97253 16.2829 3.83678ZM15.0597 21.0485L9.29727 18.7343V2.95192L15.0597 5.26609V21.0485Z" fill="white"/>
<path d="M23.6697 2.45627C23.4608 2.28696 23.1864 2.22134 22.9241 2.27688L15.7657 3.79169C15.3537 3.87874 15.0591 4.24259 15.0591 4.66348V22.3664C15.0591 22.6349 15.1803 22.8895 15.3891 23.0588C15.5492 23.1886 15.7476 23.2575 15.9502 23.2575C16.0117 23.2575 16.0735 23.2513 16.1346 23.2382L23.293 21.7234C23.705 21.6363 23.9997 21.2727 23.9997 20.8516V3.14862C23.9997 2.87984 23.8785 2.62554 23.6697 2.45627ZM22.2175 20.1295L16.8413 21.2671V5.38587L22.2175 4.24821V20.1295Z" fill="white"/>
</svg>
