<svg width="24" height="24" viewBox="0 0 24 24" fill="none" xmlns="http://www.w3.org/2000/svg">
<path d="M22.9493 3.2817L0.776367 7.60107L1.14345 9.48546L23.3164 5.16608L22.9493 3.2817Z" fill="white"/>
<path d="M1.14339 14.2912L0.776367 16.1753L22.9493 20.4947L23.3163 18.6106L1.14339 14.2912Z" fill="white"/>
<path d="M0.96 5.98389C0.42975 5.98389 0 6.41364 0 6.94389V16.8319C0 17.3621 0.42975 17.7919 0.96 17.7919C1.49025 17.7919 1.92 17.3621 1.92 16.8319V6.94389C1.92 6.41364 1.49025 5.98389 0.96 5.98389Z" fill="white"/>
<path d="M23.0401 0.991943C22.5098 0.991943 22.0801 1.42169 22.0801 1.95194V21.8239C22.0801 22.3542 22.5098 22.7839 23.0401 22.7839C23.5703 22.7839 24.0001 22.3542 24.0001 21.8239V1.95194C24.0001 1.42169 23.5703 0.991943 23.0401 0.991943Z" fill="white"/>
<path d="M14.9439 18.2079V21.0879H6.46394V16.1279H4.54395V22.0479C4.54395 22.5782 4.9737 23.0079 5.50394 23.0079H15.904C16.4342 23.0079 16.864 22.5782 16.864 22.0479V18.2079H14.9439Z" fill="white"/>
</svg>
