<svg width="24" height="24" viewBox="0 0 24 24" fill="none" xmlns="http://www.w3.org/2000/svg">
<path d="M2.24528 5H21.7547C22.4425 5 23 5.55727 23 6.24491C23 6.93254 22.4426 7.48981 21.7547 7.48981H2.24528C1.5575 7.48981 1 6.93248 1 6.24491C1 5.55733 1.5575 5 2.24528 5Z" fill="white"/>
<path d="M2.24528 10.3948H21.7547C22.4425 10.3948 23 10.952 23 11.6397C23 12.3272 22.4426 12.8846 21.7547 12.8846H2.24528C1.5575 12.8846 1 12.3272 1 11.6397C1 10.952 1.5575 10.3948 2.24528 10.3948Z" fill="white"/>
<path d="M10.1321 15.7893H21.7547C22.4425 15.7893 23 16.3466 23 17.0342C23 17.7218 22.4426 18.2791 21.7547 18.2791H10.1321C9.4443 18.2791 8.8868 17.7218 8.8868 17.0342C8.8868 16.3466 9.44423 15.7893 10.1321 15.7893Z" fill="white"/>
</svg>
