<svg width="24" height="24" viewBox="0 0 24 24" fill="none" xmlns="http://www.w3.org/2000/svg">
<path d="M22.5542 1.01221H1.44577C0.648563 1.01221 0 1.66082 0 2.45802V16.9159C0 17.7131 0.648563 18.3616 1.44577 18.3616H8.57494L11.2684 22.5868C11.4278 22.8369 11.7036 22.9881 12 22.9881C12.0006 22.9881 12.0012 22.9881 12.002 22.9881C12.299 22.9876 12.5748 22.8349 12.7336 22.5839L15.3988 18.3616H22.5542C23.3514 18.3616 24 17.7131 24 16.9159V2.45802C24 1.66082 23.3514 1.01221 22.5542 1.01221ZM22.2651 16.627H14.9205C14.6229 16.627 14.346 16.7796 14.1869 17.0312L11.9965 20.5014L9.78216 17.028C9.62283 16.7779 9.34697 16.6267 9.05058 16.6267H1.73494V2.74747H22.2651V16.627Z" fill="white"/>
<path d="M18.7952 5.06006H5.20487C4.72576 5.06006 4.3374 5.44837 4.3374 5.92753C4.3374 6.40669 4.72572 6.795 5.20487 6.795H18.7952C19.2744 6.795 19.6627 6.40664 19.6627 5.92753C19.6627 5.44842 19.2744 5.06006 18.7952 5.06006Z" fill="white"/>
<path d="M18.7952 8.81934H5.20487C4.72576 8.81934 4.3374 9.20765 4.3374 9.6868C4.3374 10.1659 4.72572 10.5543 5.20487 10.5543H18.7952C19.2744 10.5543 19.6627 10.1659 19.6627 9.6868C19.6627 9.20765 19.2744 8.81934 18.7952 8.81934Z" fill="white"/>
<path d="M13.3013 12.5784H5.20487C4.72576 12.5784 4.3374 12.9667 4.3374 13.4458C4.3374 13.9249 4.72572 14.3133 5.20487 14.3133H13.3013C13.7804 14.3133 14.1687 13.9249 14.1687 13.4458C14.1687 12.9667 13.7804 12.5784 13.3013 12.5784Z" fill="white"/>
</svg>
