<svg width="24" height="24" viewBox="0 0 24 24" fill="none" xmlns="http://www.w3.org/2000/svg">
<g clip-path="url(#clip0_2_3663)">
<path d="M23.6486 0.255743C23.3971 0.00660031 23.0203 -0.0683064 22.6927 0.0655695L0.638776 9.05813C0.364274 9.16988 0.164069 9.41194 0.105709 9.70266C0.0473496 9.99338 0.138428 10.2938 0.348055 10.5032L13.6158 23.7417C13.7833 23.9086 14.0088 24 14.2406 24C14.3004 24 14.3612 23.9938 14.4207 23.9814C14.7123 23.9207 14.9538 23.7173 15.0632 23.4404L23.8494 1.20951C23.9794 0.880169 23.9004 0.504885 23.6486 0.255743ZM13.9127 21.5384L2.54168 10.1924L21.4429 2.48527L13.9127 21.5384Z" fill="white"/>
<path d="M22.3099 0.291319L6.97705 15.8601L8.23752 17.1015L23.5703 1.53268L22.3099 0.291319Z" fill="white"/>
<path d="M8.86397 17.6597L6.42772 19.9129V14.3879H4.65869V21.9361C4.65869 22.2875 4.86686 22.6057 5.1888 22.7466C5.30262 22.7964 5.42318 22.8206 5.5429 22.8206C5.76139 22.8206 5.97692 22.7395 6.1438 22.585L10.0652 18.9582L8.86397 17.6597Z" fill="white"/>
</g>
<defs>
<clipPath id="clip0_2_3663">
<rect width="24" height="24" fill="white"/>
</clipPath>
</defs>
</svg>
