<svg width="24" height="24" viewBox="0 0 24 24" fill="none" xmlns="http://www.w3.org/2000/svg">
<g clip-path="url(#clip0_2_3600)">
<path d="M11.9999 0C9.48859 0 7.44531 2.04328 7.44531 4.55456V12.2458C7.44531 14.757 9.48859 16.8 11.9999 16.8C14.5114 16.8 16.5544 14.7445 16.5544 12.2183V4.55456C16.5544 2.04328 14.5114 0 11.9999 0ZM14.9181 12.2182C14.9181 13.8423 13.609 15.1636 11.9999 15.1636C10.3908 15.1636 9.08167 13.8546 9.08167 12.2454V4.55456C9.08167 2.94548 10.3908 1.63636 11.9999 1.63636C13.609 1.63636 14.9181 2.94544 14.9181 4.55456V12.2182Z" fill="white"/>
<path d="M12.818 18.8452H11.1816V23.1816H12.818V18.8452Z" fill="white"/>
<path d="M15.2456 22.3638H8.75473C8.3028 22.3638 7.93652 22.7301 7.93652 23.182C7.93652 23.6339 8.3028 24.0001 8.75473 24.0001H15.2454C15.6976 24.0001 16.0638 23.6338 16.0638 23.1819C16.0638 22.73 15.6975 22.3638 15.2456 22.3638Z" fill="white"/>
<path d="M18.5997 9.43677H15.7088V11.0731H17.7815V13.3368C17.7815 15.4613 15.2023 18.0274 11.9997 18.0274C8.81154 18.0274 6.21795 15.4338 6.21795 12.2458V11.0731H8.26339V9.43677H5.39975C4.94782 9.43677 4.58154 9.80305 4.58154 10.255V12.2459C4.58154 16.3363 7.90934 19.6638 11.9997 19.6638C16.1774 19.6638 19.4179 16.2626 19.4179 13.3368V10.255C19.4179 9.80305 19.0517 9.43677 18.5997 9.43677Z" fill="white"/>
</g>
<defs>
<clipPath id="clip0_2_3600">
<rect width="24" height="24" fill="white"/>
</clipPath>
</defs>
</svg>
