<svg width="24" height="24" viewBox="0 0 24 24" fill="none" xmlns="http://www.w3.org/2000/svg">
<path d="M11.9999 0C9.36906 0 7.22852 2.14059 7.22852 4.77141V12.8288C7.22852 15.4597 9.36911 17.6 11.9999 17.6C14.6311 17.6 16.7713 15.4465 16.7713 12.8V4.77141C16.7713 2.14059 14.6311 0 11.9999 0ZM15.057 12.8C15.057 14.5014 13.6856 15.8857 11.9999 15.8857C10.3142 15.8857 8.94278 14.5143 8.94278 12.8286V4.77141C8.94278 3.08569 10.3142 1.71427 11.9999 1.71427C13.6856 1.71427 15.057 3.08569 15.057 4.77141V12.8Z" fill="white"/>
<path d="M12.8573 19.7429H11.1431V23.1429H12.8573V19.7429Z" fill="white"/>
<path d="M15.3998 22.2856H8.59983C8.12639 22.2856 7.74268 22.6694 7.74268 23.1428C7.74268 23.6162 8.12639 23.9999 8.59983 23.9999H15.3996C15.8733 23.9999 16.257 23.6162 16.257 23.1427C16.257 22.6693 15.8732 22.2856 15.3998 22.2856Z" fill="white"/>
<path d="M18.9142 8.74292C18.4408 8.74292 18.0571 9.12664 18.0571 9.60008V12.8289C18.0571 16.1686 15.3396 18.8858 11.9999 18.8858C8.65994 18.8858 5.94278 16.1686 5.94278 12.8286V9.60008C5.94278 9.12664 5.55906 8.74292 5.08563 8.74292C4.61219 8.74292 4.22852 9.12664 4.22852 9.60008V12.8289C4.22852 17.114 7.7148 20.6 11.9999 20.6C16.285 20.6 19.7713 17.1138 19.7713 12.8286V9.60008C19.7713 9.12664 19.3877 8.74292 18.9142 8.74292Z" fill="white"/>
<path d="M12 2.57153C10.8971 2.57153 10 3.46867 10 4.57155C10 5.67442 10.8971 6.57156 12 6.57156C13.1026 6.57156 14 5.67442 14 4.57155C14 3.46867 13.1026 2.57153 12 2.57153ZM12 4.85725C11.8426 4.85725 11.7143 4.72896 11.7143 4.57155C11.7143 4.41414 11.8426 4.28585 12 4.28585C12.1574 4.28585 12.2857 4.41414 12.2857 4.57155C12.2857 4.72896 12.1574 4.85725 12 4.85725Z" fill="white"/>
<path d="M12 6.85718C10.8971 6.85718 10 7.75432 10 8.85719C10 9.96007 10.8971 10.8572 12 10.8572C13.1026 10.8572 14 9.96007 14 8.85719C14 7.75432 13.1026 6.85718 12 6.85718ZM12 9.1429C11.8426 9.1429 11.7143 9.0146 11.7143 8.85719C11.7143 8.69979 11.8426 8.57149 12 8.57149C12.1574 8.57149 12.2857 8.69979 12.2857 8.85719C12.2857 9.0146 12.1574 9.1429 12 9.1429Z" fill="white"/>
<path d="M12 11.1428C10.8971 11.1428 10 12.0402 10 13.1428C10 14.2454 10.8971 15.1429 12 15.1429C13.1026 15.1429 14 14.2454 14 13.1428C14 12.0402 13.1026 11.1428 12 11.1428ZM12 13.4285C11.8426 13.4285 11.7143 13.3005 11.7143 13.1428C11.7143 12.9852 11.8426 12.8571 12 12.8571C12.1574 12.8571 12.2857 12.9852 12.2857 13.1428C12.2857 13.3005 12.1574 13.4285 12 13.4285Z" fill="white"/>
</svg>
