<svg width="24" height="24" viewBox="0 0 24 24" fill="none" xmlns="http://www.w3.org/2000/svg">
<path d="M20.5755 7.59668V21.3498H3.45207V7.59668H1.82129V22.1652C1.82129 22.6156 2.1863 22.9806 2.63668 22.9806H21.3909C21.8413 22.9806 22.2063 22.6156 22.2063 22.1652V7.59668H20.5755Z" fill="white"/>
<path d="M23.1846 1.01929H0.815391C0.365016 1.01929 0 1.3843 0 1.83468V7.59683C0 8.04721 0.365016 8.41222 0.815391 8.41222H23.1846C23.6349 8.41222 24 8.04721 24 7.59683V1.83468C24 1.3843 23.635 1.01929 23.1846 1.01929ZM22.3692 6.78144H1.63078V2.65012H22.3692V6.78144Z" fill="white"/>
<path d="M16.8243 10.4778H7.2026C6.75222 10.4778 6.38721 10.8428 6.38721 11.2932V15.1799C6.38721 15.6303 6.75222 15.9953 7.2026 15.9953H16.8243C17.275 15.9953 17.6397 15.6303 17.6397 15.1799V11.2932C17.6397 10.8428 17.2747 10.4778 16.8243 10.4778ZM16.009 14.3645H8.01799V12.1086H16.0089V14.3645H16.009Z" fill="white"/>
</svg>
