<svg width="24" height="24" viewBox="0 0 24 24" fill="none" xmlns="http://www.w3.org/2000/svg">
<path d="M20.4721 8.47241C18.5269 8.47241 16.9443 10.055 16.9443 12.0001C16.9443 13.9453 18.5266 15.5278 20.4721 15.5278C22.4172 15.5278 23.9998 13.9456 23.9998 12.0001C23.9998 10.055 22.4172 8.47241 20.4721 8.47241ZM20.4721 13.7929C19.4834 13.7929 18.6793 12.9888 18.6793 12.0001C18.6793 11.0115 19.4834 10.2073 20.4721 10.2073C21.4607 10.2073 22.2648 11.0115 22.2648 12.0001C22.2648 12.9888 21.4607 13.7929 20.4721 13.7929Z" fill="white"/>
<path d="M11.9999 8.47241C10.0547 8.47241 8.47217 10.055 8.47217 12.0001C8.47217 13.9453 10.0547 15.5278 11.9999 15.5278C13.9453 15.5278 15.5276 13.9456 15.5276 12.0001C15.5276 10.055 13.9453 8.47241 11.9999 8.47241ZM11.9999 13.7929C11.0112 13.7929 10.2071 12.9888 10.2071 12.0001C10.2071 11.0115 11.0112 10.2073 11.9999 10.2073C12.9885 10.2073 13.7927 11.0115 13.7927 12.0001C13.7927 12.9888 12.9885 13.7929 11.9999 13.7929Z" fill="white"/>
<path d="M3.52772 8.47241C1.58255 8.47241 0 10.055 0 12.0001C0 13.9456 1.58255 15.5278 3.52772 15.5278C5.47289 15.5278 7.05544 13.9456 7.05544 12.0001C7.05544 10.055 5.47289 8.47241 3.52772 8.47241ZM3.52772 13.7929C2.53908 13.7929 1.73494 12.9888 1.73494 12.0001C1.73494 11.0115 2.53908 10.2073 3.52772 10.2073C4.51636 10.2073 5.3205 11.0115 5.3205 12.0001C5.3205 12.9888 4.51603 13.7929 3.52772 13.7929Z" fill="white"/>
</svg>
