<svg width="24" height="24" viewBox="0 0 24 24" fill="none" xmlns="http://www.w3.org/2000/svg">
<path d="M12.2776 5.81055H10.3829C7.45743 5.81055 5.07764 8.19034 5.07764 11.1158V18.6947C5.07764 21.62 7.45743 24 10.3829 24H12.2776C15.2029 24 17.5829 21.62 17.5829 18.6947V11.1158C17.5829 8.19034 15.2028 5.81055 12.2776 5.81055ZM16.0671 18.6947C16.0671 20.7843 14.3671 22.4842 12.2776 22.4842H10.3829C8.2934 22.4842 6.59343 20.7843 6.59343 18.6947V11.1158C6.59343 9.02631 8.2934 7.32634 10.3829 7.32634H12.2776C14.3671 7.32634 16.0671 9.02631 16.0671 11.1158V18.6947Z" fill="white"/>
<path d="M16.8249 12.5559H5.83545V14.0717H16.8249V12.5559Z" fill="white"/>
<path d="M18.1641 0C17.7456 0 17.4063 0.339281 17.4063 0.757875V3.00628C17.4063 3.3683 17.1117 3.66314 16.7494 3.66314H16.1683C15.8061 3.66314 15.5113 3.36858 15.5113 3.00628C15.5113 1.8083 14.5366 0.833672 13.3386 0.833672H12.7828C11.5646 0.833672 10.6102 1.77698 10.6102 2.97548L10.585 6.51788V13.2127C10.585 13.6312 10.9242 13.9705 11.3428 13.9705C11.7614 13.9705 12.1007 13.6312 12.1005 13.2127V6.52322L12.1257 2.98106C12.1257 2.62106 12.4082 2.34947 12.7826 2.34947H13.3384C13.7007 2.34947 13.9953 2.64403 13.9953 3.00633C13.9953 4.20431 14.9702 5.17894 16.1682 5.17894H16.7495C17.9477 5.17894 18.9221 4.20427 18.9221 3.00633V0.757875C18.922 0.339281 18.5827 0 18.1641 0Z" fill="white"/>
</svg>
