<svg width="24" height="24" viewBox="0 0 24 24" fill="none" xmlns="http://www.w3.org/2000/svg">
<g clip-path="url(#clip0_2_3611)">
<path d="M23.7743 11.4274L19.4106 6.75608C19.0945 6.4176 18.5634 6.39918 18.2246 6.71554C17.8858 7.03189 17.8677 7.56279 18.1841 7.90156L22.0123 12L18.1838 16.0984C17.8677 16.4372 17.8856 16.9681 18.2243 17.2845C18.386 17.4355 18.5919 17.5105 18.7969 17.5105C19.0215 17.5105 19.2453 17.4212 19.4106 17.2442L23.7742 12.5732C24.0755 12.2506 24.0755 11.7499 23.7743 11.4274Z" fill="white"/>
<path d="M1.98736 12L5.81613 7.90156C6.13221 7.56284 6.11431 7.03194 5.77559 6.71553C5.43739 6.40002 4.9062 6.41736 4.58956 6.75608L0.225948 11.4274C-0.075316 11.7499 -0.075316 12.2506 0.225948 12.5731L4.58956 17.2441C4.75489 17.4212 4.97867 17.5104 5.20297 17.5104C5.408 17.5104 5.61387 17.4355 5.77526 17.2844C6.11402 16.9681 6.13216 16.4372 5.81581 16.0984L1.98736 12Z" fill="white"/>
<path d="M23.1606 11.1611H0.866983C0.403486 11.1611 0.027832 11.5371 0.027832 12.0003C0.027832 12.4635 0.403486 12.8395 0.866983 12.8395H23.1606C23.6241 12.8395 23.9997 12.4638 23.9997 12.0003C23.9997 11.5368 23.6241 11.1611 23.1606 11.1611Z" fill="white"/>
<path d="M17.2843 18.2246C16.9682 17.8858 16.437 17.8677 16.0982 18.184L11.9998 22.0125L7.90105 18.1838C7.56256 17.868 7.03166 17.8853 6.71502 18.2243C6.39894 18.563 6.41685 19.0939 6.75557 19.4103L11.4269 23.774C11.588 23.9244 11.7939 24 11.9997 24C12.2056 24 12.4112 23.9248 12.5726 23.7742L17.2436 19.4106C17.5824 19.0943 17.6006 18.5634 17.2843 18.2246Z" fill="white"/>
<path d="M17.2442 4.58981L12.5732 0.226192C12.2504 -0.0750718 11.7497 -0.0750718 11.4275 0.226192L6.75617 4.58981C6.41745 4.90617 6.39926 5.43707 6.71562 5.77583C7.03198 6.11455 7.56316 6.13246 7.90164 5.81638L12.0001 1.98788L16.0985 5.8161C16.2602 5.96713 16.4661 6.04213 16.6711 6.04213C16.8954 6.04213 17.1192 5.95288 17.2848 5.77583C17.6008 5.43707 17.5829 4.90617 17.2442 4.58981Z" fill="white"/>
<path d="M11.9998 0C11.5363 0 11.1606 0.375655 11.1606 0.839152V23.1607C11.1606 23.6242 11.5363 23.9999 11.9998 23.9999C12.4633 23.9999 12.8389 23.6242 12.8389 23.1607V0.839199C12.8389 0.375701 12.4632 0 11.9998 0Z" fill="white"/>
</g>
<defs>
<clipPath id="clip0_2_3611">
<rect width="24" height="24" fill="white"/>
</clipPath>
</defs>
</svg>
