<svg width="24" height="24" viewBox="0 0 24 24" fill="none" xmlns="http://www.w3.org/2000/svg">
<g clip-path="url(#clip0_2_3609)">
<path d="M2.20589 11.9999L5.10778 9.12325C5.46506 8.76873 5.46778 8.1918 5.11327 7.83423C4.75875 7.47667 4.18153 7.47423 3.82425 7.82875L0.269812 11.3528C0.0972188 11.5239 0 11.7569 0 11.9999C0 12.243 0.0972188 12.476 0.269766 12.6473L3.8242 16.1714C4.00191 16.3473 4.2337 16.4354 4.46583 16.4354C4.70034 16.4354 4.93491 16.3455 5.11294 16.1656C5.46745 15.8081 5.46473 15.2311 5.10745 14.8766L2.20589 11.9999Z" fill="white"/>
<path d="M16.1715 3.8242L12.6475 0.269766C12.4762 0.0972188 12.2431 0 12.0001 0C11.7571 0 11.524 0.0972188 11.3527 0.269484L7.82864 3.82392C7.47413 4.18148 7.47685 4.75842 7.83413 5.11294C8.19169 5.46717 8.76891 5.46473 9.12314 5.10745L12.0001 2.20589L14.8768 5.10745C15.0551 5.28731 15.2896 5.37722 15.5242 5.37722C15.756 5.37722 15.988 5.28942 16.1658 5.11322C16.5233 4.7587 16.5258 4.18177 16.1715 3.8242Z" fill="white"/>
<path d="M16.1658 18.8869C15.8079 18.5326 15.231 18.5351 14.8768 18.8926L12.0001 21.7945L9.12315 18.8926C8.76891 18.5347 8.19169 18.5332 7.83413 18.8869C7.47685 19.2414 7.47413 19.8183 7.82864 20.1759L11.3527 23.7303C11.5238 23.9032 11.7568 24.0001 11.9998 24.0001C12.2429 24.0001 12.4759 23.9032 12.6475 23.7303L16.1716 20.1759C16.5258 19.8183 16.5234 19.2414 16.1658 18.8869Z" fill="white"/>
<path d="M23.73 11.3525L20.1756 7.8284C19.8177 7.47388 19.2408 7.4766 18.8866 7.83388C18.5324 8.19145 18.5348 8.76838 18.8924 9.1229L21.7943 11.9998L18.8924 14.8765C18.5348 15.231 18.5324 15.808 18.8866 16.1655C19.0649 16.3454 19.2995 16.4353 19.534 16.4353C19.7658 16.4353 19.9979 16.3472 20.1756 16.1713L23.73 12.6472C23.9029 12.4759 23.9998 12.2429 23.9998 11.9998C23.9998 11.7568 23.9029 11.5238 23.73 11.3525Z" fill="white"/>
<path d="M23.0886 11.0884H0.911391C0.408 11.0884 0 11.4964 0 11.9998C0 12.5032 0.408 12.9112 0.911391 12.9112H23.0886C23.592 12.9112 24 12.5032 24 11.9998C24 11.4964 23.592 11.0884 23.0886 11.0884Z" fill="white"/>
<path d="M11.9998 0C11.4964 0 11.0884 0.408 11.0884 0.911391V23.0886C11.0884 23.592 11.4964 24 11.9998 24C12.5032 24 12.9112 23.592 12.9112 23.0886V0.911391C12.9112 0.408 12.5032 0 11.9998 0Z" fill="white"/>
</g>
<defs>
<clipPath id="clip0_2_3609">
<rect width="24" height="24" fill="white"/>
</clipPath>
</defs>
</svg>
