<svg width="24" height="24" viewBox="0 0 24 24" fill="none" xmlns="http://www.w3.org/2000/svg">
<g clip-path="url(#clip0_2_3612)">
<path d="M5.88614 14.8293C3.3577 14.8293 1.30078 16.8863 1.30078 19.4147C1.30078 21.9431 3.35766 24.0001 5.88614 24.0001C8.41463 24.0001 10.4715 21.9431 10.4715 19.4147C10.4715 16.8863 8.41458 14.8293 5.88614 14.8293ZM5.88614 22.0492C4.43377 22.0492 3.252 20.8674 3.252 19.415C3.252 17.9623 4.43377 16.7806 5.88614 16.7806C7.33852 16.7806 8.52028 17.962 8.52028 19.415C8.52028 20.8674 7.33847 22.0492 5.88614 22.0492Z" fill="white"/>
<path d="M9.49563 0C8.95675 0 8.52002 0.436734 8.52002 0.975609V19.4146H10.4712V10.0462C11.5233 8.51545 13.2423 7.60978 15.1217 7.60978C18.2238 7.60978 20.7477 10.1333 20.7477 13.2358C20.7477 13.7747 21.1844 14.2114 21.7233 14.2114C22.2622 14.2114 22.6989 13.7747 22.6989 13.2358C22.6989 5.93756 16.776 0 9.49563 0ZM15.1217 5.65819C13.4 5.65819 11.7783 6.22406 10.4712 7.23577V1.99317C13.7334 2.27578 16.6026 3.96033 18.4742 6.44095C17.4628 5.93986 16.3246 5.65819 15.1217 5.65819Z" fill="white"/>
</g>
<defs>
<clipPath id="clip0_2_3612">
<rect width="24" height="24" fill="white"/>
</clipPath>
</defs>
</svg>
