<svg width="24" height="24" viewBox="0 0 24 24" fill="none" xmlns="http://www.w3.org/2000/svg">
<g clip-path="url(#clip0_2_3636)">
<path d="M5.49412 17.1182C3.30987 17.1182 1.53271 18.662 1.53271 20.5591C1.53271 22.4562 3.30987 24 5.49412 24C7.67838 24 9.45553 22.4559 9.45553 20.5588C9.45553 18.6617 7.67838 17.1182 5.49412 17.1182ZM5.49412 22.2648C4.26639 22.2648 3.26763 21.4997 3.26763 20.5588C3.26763 19.6182 4.26639 18.8531 5.49412 18.8531C6.72158 18.8531 7.72061 19.6182 7.72061 20.5588C7.72061 21.4997 6.72186 22.2648 5.49412 22.2648Z" fill="white"/>
<path d="M18.5058 11.5664C16.3213 11.5664 14.5444 13.1102 14.5444 15.0073C14.5444 16.9044 16.3213 18.4479 18.5058 18.4479C20.6904 18.4479 22.4672 16.9045 22.4672 15.0073C22.4672 13.1102 20.6904 11.5664 18.5058 11.5664ZM18.5058 16.7131C17.2781 16.7131 16.2794 15.948 16.2794 15.0074C16.2794 14.0664 17.2781 13.3014 18.5058 13.3014C19.7336 13.3014 20.7323 14.0664 20.7323 15.0074C20.7323 15.9479 19.7336 16.7131 18.5058 16.7131Z" fill="white"/>
<path d="M22.135 0.184486C21.9253 0.0199562 21.6509 -0.0384494 21.3924 0.0251593L8.38055 3.23475C7.99281 3.33046 7.7207 3.67804 7.7207 4.07703V20.5587H9.45562V4.75685L20.7326 1.97518V15.0073H22.4675V0.867727C22.4675 0.600871 22.3449 0.349296 22.135 0.184486Z" fill="white"/>
<path d="M21.3904 5.7232L8.37842 8.93164L8.79375 10.616L21.8057 7.40759L21.3904 5.7232Z" fill="white"/>
</g>
<defs>
<clipPath id="clip0_2_3636">
<rect width="24" height="24" fill="white"/>
</clipPath>
</defs>
</svg>
