<svg width="24" height="24" viewBox="0 0 24 24" fill="none" xmlns="http://www.w3.org/2000/svg">
<path d="M12.0002 0C9.41627 0 7.31396 2.1023 7.31396 4.68623V12.6501C7.31396 15.234 9.41627 17.3363 12.0002 17.3363C14.5841 17.3363 16.6864 15.2219 16.6864 12.623V4.68623C16.6864 2.1023 14.5844 0 12.0002 0ZM15.0611 12.623C15.0611 14.3257 13.688 15.711 12.0002 15.711C10.3124 15.711 8.93926 14.3377 8.93926 12.6501V4.68623C8.93926 2.99836 10.3124 1.6253 12.0002 1.6253C13.688 1.6253 15.0611 2.99841 15.0611 4.68623V12.623Z" fill="white"/>
<path d="M12.8128 19.6931H11.1875V23.3771H12.8128V19.6931Z" fill="white"/>
<path d="M15.3591 22.3745H8.64124C8.19241 22.3745 7.82861 22.7383 7.82861 23.1871C7.82861 23.636 8.19241 23.9998 8.64124 23.9998H15.3591C15.8079 23.9998 16.1717 23.636 16.1717 23.1871C16.1717 22.7383 15.8079 22.3745 15.3591 22.3745Z" fill="white"/>
<path d="M18.8531 8.64111C18.4043 8.64111 18.0405 9.00491 18.0405 9.45374V12.6501C18.0405 15.9809 15.3309 18.6908 11.9999 18.6908C8.66884 18.6908 5.95923 15.9809 5.95923 12.6501V9.45374C5.95923 9.00486 5.59544 8.64111 5.14661 8.64111C4.69778 8.64111 4.33398 9.00491 4.33398 9.45374V12.6501C4.33398 16.8772 7.77283 20.316 11.9999 20.316C16.2269 20.316 19.6658 16.8772 19.6658 12.6501V9.45374C19.6658 9.00491 19.302 8.64111 18.8531 8.64111Z" fill="white"/>
<path d="M21.8929 2.10725C21.5754 1.78977 21.0613 1.78977 20.7438 2.10725L2.10725 20.7438C1.78977 21.061 1.78977 21.5757 2.10725 21.8929C2.26574 22.0516 2.47377 22.131 2.6818 22.131C2.88955 22.131 3.09786 22.0517 3.25635 21.8929L21.8929 3.25635C22.2104 2.93914 22.2104 2.42446 21.8929 2.10725Z" fill="white"/>
</svg>
