<svg width="24" height="24" viewBox="0 0 24 24" fill="none" xmlns="http://www.w3.org/2000/svg">
<path d="M20.66 0H3.33981C2.85006 0 2.45312 0.396938 2.45312 0.886688V23.1133C2.45312 23.603 2.85006 24 3.33981 24H20.66C21.1498 24 21.5467 23.603 21.5467 23.1133V0.886688C21.5467 0.396938 21.1498 0 20.66 0ZM19.7733 22.2266H4.2265V1.77342H19.7733V22.2266Z" fill="white"/>
<path d="M17.0539 3.57642H6.91598C6.42623 3.57642 6.0293 3.97335 6.0293 4.4631V9.04438C6.0293 9.53413 6.42623 9.93107 6.91598 9.93107H17.0542C17.5439 9.93107 17.9409 9.53413 17.9406 9.04438V4.4631C17.9406 3.97335 17.5437 3.57642 17.0539 3.57642ZM16.1672 8.1577H7.80267V5.34984H16.1672V8.1577Z" fill="white"/>
<path d="M16.7288 12.0886H6.91599C6.42623 12.0886 6.0293 12.4856 6.0293 12.9753C6.0293 13.4651 6.42623 13.862 6.91599 13.862H16.7288C17.2186 13.862 17.6155 13.4651 17.6155 12.9753C17.6155 12.4856 17.2186 12.0886 16.7288 12.0886Z" fill="white"/>
<path d="M17.0835 15.3696H6.91599C6.42623 15.3696 6.0293 15.7666 6.0293 16.2563C6.0293 16.7461 6.42623 17.143 6.91599 17.143H17.0835C17.5735 17.143 17.9702 16.7461 17.9702 16.2563C17.9702 15.7666 17.5732 15.3696 17.0835 15.3696Z" fill="white"/>
<path d="M17.0835 18.6501H6.91599C6.42623 18.6501 6.0293 19.0471 6.0293 19.5368C6.0293 20.0266 6.42623 20.4235 6.91599 20.4235H17.0835C17.5735 20.4235 17.9702 20.0266 17.9702 19.5368C17.9702 19.0471 17.5732 18.6501 17.0835 18.6501Z" fill="white"/>
</svg>
