<svg width="24" height="24" viewBox="0 0 24 24" fill="none" xmlns="http://www.w3.org/2000/svg">
<g clip-path="url(#clip0_2_3598)">
<path d="M23.2082 5.26733H6.75938C6.3219 5.26733 5.96729 5.62194 5.96729 6.05943V17.9406C5.96729 18.3781 6.3219 18.7327 6.75938 18.7327H23.2083C23.646 18.7327 24.0004 18.3781 24.0004 17.9406V6.05938C24.0003 5.6219 23.6457 5.26733 23.2082 5.26733ZM21.0474 6.85147L14.7739 12.1645L8.83327 6.85147H21.0474ZM22.4162 17.1485H7.55143V7.83051L14.2316 13.8049C14.5259 14.0684 14.97 14.0742 15.2713 13.8189L22.4161 7.76826V17.1485H22.4162Z" fill="white"/>
<path d="M4.4883 11.2078H3.11534C2.67785 11.2078 2.32324 11.5624 2.32324 11.9998C2.32324 12.4373 2.67785 12.7919 3.11534 12.7919H4.48826C4.92574 12.7919 5.28035 12.4373 5.28035 11.9998C5.28035 11.5624 4.92579 11.2078 4.4883 11.2078Z" fill="white"/>
<path d="M4.48847 14.429H0.792094C0.354609 14.429 0 14.7835 0 15.221C0 15.6585 0.354609 16.0131 0.792094 16.0131H4.48847C4.92595 16.0131 5.28056 15.6585 5.28056 15.221C5.28052 14.7835 4.92595 14.429 4.48847 14.429Z" fill="white"/>
<path d="M4.48847 7.98682H0.792094C0.354609 7.98682 0 8.34143 0 8.77891C0 9.21639 0.354609 9.571 0.792094 9.571H4.48847C4.92595 9.571 5.28056 9.21639 5.28056 8.77891C5.28056 8.34143 4.92595 7.98682 4.48847 7.98682Z" fill="white"/>
</g>
<defs>
<clipPath id="clip0_2_3598">
<rect width="24" height="24" fill="white"/>
</clipPath>
</defs>
</svg>
