<svg width="24" height="24" viewBox="0 0 24 24" fill="none" xmlns="http://www.w3.org/2000/svg">
<path d="M16.4545 6.7688H10.4941C9.96878 6.7688 9.54297 7.19456 9.54297 7.71994C9.54297 8.24527 9.96873 8.67108 10.4941 8.67108H16.4545C16.9802 8.67108 17.4056 8.24531 17.4056 7.71994C17.4056 7.19456 16.9798 6.7688 16.4545 6.7688Z" fill="white"/>
<path d="M18.7372 11.366H10.4941C9.96878 11.366 9.54297 11.7917 9.54297 12.3171C9.54297 12.8424 9.96873 13.2683 10.4941 13.2683H18.7372C19.2625 13.2683 19.6883 12.8425 19.6883 12.3171C19.6883 11.7917 19.2625 11.366 18.7372 11.366Z" fill="white"/>
<path d="M23.0489 0.80835H6.21398C5.68866 0.80835 5.26284 1.23412 5.26284 1.75949V10.7317H3.58256C1.60706 10.7317 0 12.3391 0 14.3143V19.6089C0 21.5844 1.60706 23.1914 3.58256 23.1914C3.74423 23.1914 3.90342 23.1807 4.05909 23.1598H19.7517C22.094 23.1598 24 21.254 24 18.9114V1.75949C24 1.23412 23.5742 0.80835 23.0489 0.80835ZM5.26289 19.6089C5.26289 20.424 4.6792 21.1056 3.90787 21.2575H3.58261V21.2892C2.65589 21.2892 1.90228 20.5352 1.90228 19.6088V14.3143C1.90228 13.3879 2.65622 12.634 3.58261 12.634H5.26294V19.6089H5.26289ZM22.0978 18.9114C22.0978 20.1831 21.0236 21.2575 19.7517 21.2575H6.7628C7.01991 20.7638 7.16513 20.203 7.16513 19.6089V2.71058H22.0978V18.9114Z" fill="white"/>
<path d="M16.4545 15.6782H10.4941C9.96878 15.6782 9.54297 16.104 9.54297 16.6294C9.54297 17.1547 9.96873 17.5805 10.4941 17.5805H16.4545C16.9802 17.5805 17.4056 17.1547 17.4056 16.6294C17.4056 16.104 16.9798 15.6782 16.4545 15.6782Z" fill="white"/>
</svg>
