<svg width="24" height="24" viewBox="0 0 24 24" fill="none" xmlns="http://www.w3.org/2000/svg">
<path d="M19.1507 5.72607H9.80823C9.35425 5.72607 8.98633 6.094 8.98633 6.54798V10.8219C8.98633 11.2759 9.35425 11.6439 9.80823 11.6439H19.1507C19.605 11.6439 19.9726 11.2759 19.9726 10.8219V6.54798C19.9726 6.09404 19.6047 5.72607 19.1507 5.72607ZM18.3288 10H10.6301V7.36989H18.3288V10H18.3288Z" fill="white"/>
<path d="M23.1781 2H5.75344C5.29945 2 4.93153 2.36792 4.93153 2.82191V6.08216H0.821906C0.367922 6.08216 0 6.45012 0 6.90411V18.7123C0 20.5252 1.47478 22 3.28767 22H20.0822C22.2425 22 24 20.2425 24 18.0822V2.82191C24 2.36792 23.6321 2 23.1781 2ZM4.93153 18.7123C4.93153 19.634 4.20933 20.3562 3.28767 20.3562C2.36602 20.3562 1.64386 19.634 1.64386 18.7123V7.72602H4.93153V18.7123ZM22.3562 18.0822C22.3562 19.3359 21.3359 20.3561 20.0822 20.3561H6.13425C6.4148 19.8723 6.57534 19.3104 6.57534 18.7122V3.64381H22.3562V18.0822Z" fill="white"/>
<path d="M19.1507 13.26H9.80823C9.35425 13.26 8.98633 13.6279 8.98633 14.0819C8.98633 14.5359 9.35425 14.9038 9.80823 14.9038H19.1507C19.605 14.9038 19.9726 14.5359 19.9726 14.0819C19.9726 13.6279 19.6047 13.26 19.1507 13.26Z" fill="white"/>
<path d="M19.1507 16.5476H9.80823C9.35425 16.5476 8.98633 16.9155 8.98633 17.3695C8.98633 17.8235 9.35425 18.1914 9.80823 18.1914H19.1507C19.605 18.1914 19.9726 17.8235 19.9726 17.3695C19.9726 16.9156 19.6047 16.5476 19.1507 16.5476Z" fill="white"/>
</svg>
