<svg width="24" height="24" viewBox="0 0 24 24" fill="none" xmlns="http://www.w3.org/2000/svg">
<path d="M17.3121 11.0314L1.83323 0.477648C1.47398 0.232164 1.00847 0.206757 0.624609 0.409632C0.240375 0.612507 0 1.0116 0 1.44627V22.5538C0 22.9888 0.240375 23.3875 0.624609 23.5904C0.796594 23.6814 0.984984 23.7264 1.17262 23.7264C1.40405 23.7264 1.63505 23.6576 1.83319 23.5231L17.312 12.9694C17.6325 12.7509 17.8241 12.3885 17.8241 12.0004C17.8241 11.6122 17.6322 11.2499 17.3121 11.0314ZM2.3453 20.3347V3.66487L14.5696 12L2.3453 20.3347Z" fill="white"/>
<path d="M22.8274 1.60254C22.1797 1.60254 21.6548 2.12749 21.6548 2.77516V21.2247C21.6548 21.8724 22.1797 22.3973 22.8274 22.3973C23.4755 22.3973 24.0001 21.8724 24.0001 21.2247V2.77516C24.0001 2.12749 23.4751 1.60254 22.8274 1.60254Z" fill="white"/>
</svg>
