<svg width="24" height="24" viewBox="0 0 24 24" fill="none" xmlns="http://www.w3.org/2000/svg">
<g clip-path="url(#clip0_2_3656)">
<path d="M18.0788 12.1785L10.0712 20.2139L2.70535 12.8478L10.715 4.81026L9.42975 3.52954L0.780799 12.2088C0.427596 12.5632 0.427877 13.1366 0.78169 13.4904L9.43064 22.1397C9.60089 22.31 9.83194 22.4055 10.0724 22.4055C10.0726 22.4055 10.073 22.4055 10.073 22.4053C10.314 22.405 10.545 22.3088 10.715 22.1382L19.3639 13.459L18.0788 12.1785Z" fill="white"/>
<path d="M22.7142 10.9576L12.0227 0.265828C11.8527 0.0955781 11.622 0 11.3813 0C11.1406 0 10.9098 0.0955781 10.7396 0.265828L8.38741 2.61797C8.21716 2.78794 8.12158 3.01898 8.12158 3.25941C8.12158 3.50011 8.21716 3.73088 8.38741 3.90112L19.0795 14.5926C19.2494 14.7629 19.4801 14.8584 19.7209 14.8584C19.9616 14.8584 20.192 14.7626 20.3623 14.5926L22.7142 12.2407C23.0686 11.8863 23.0686 11.3117 22.7142 10.9576ZM19.7209 12.668L10.312 3.25941L11.3813 2.19038L20.7899 11.5987L19.7209 12.668Z" fill="white"/>
<path d="M10.8585 9.49194C9.42449 9.49194 8.25781 10.6587 8.25781 12.0927C8.25781 13.527 9.42454 14.6937 10.8585 14.6937C12.2925 14.6937 13.4593 13.5267 13.4593 12.0927C13.4593 10.6586 12.2925 9.49194 10.8585 9.49194ZM10.8585 12.8795C10.4252 12.8795 10.0723 12.5266 10.0723 12.093C10.0723 11.6593 10.4249 11.3067 10.8585 11.3067C11.2922 11.3067 11.6448 11.6593 11.6448 12.093C11.6448 12.5266 11.2919 12.8795 10.8585 12.8795Z" fill="white"/>
<path d="M22.5376 18.4374L20.8743 16.7741C20.5199 16.4197 19.9459 16.4197 19.5915 16.7741L17.9282 18.4374C17.3179 19.0474 16.9819 19.866 16.9819 20.7421C16.9819 21.6182 17.3179 22.4365 17.9282 23.0468C18.5633 23.6821 19.3982 23.9999 20.2329 23.9999C21.0676 23.9999 21.9025 23.6824 22.5376 23.0467C23.1479 22.4368 23.4839 21.6181 23.4839 20.742C23.4838 19.866 23.1478 19.0476 22.5376 18.4374ZM21.2547 21.7639C20.7007 22.3173 19.765 22.3173 19.211 21.7639C18.6573 21.2099 18.6573 20.2742 19.211 19.7202L20.2329 18.6984L21.2547 19.7202C21.8085 20.2742 21.8085 21.2099 21.2547 21.7639Z" fill="white"/>
<path d="M4.4236 4.37491C4.11029 4.06159 4.11029 3.55206 4.4236 3.23875C4.7372 2.92544 5.24677 2.92577 5.56009 3.23875L8.25155 5.93022L9.53438 4.64739L6.84291 1.95592C5.82259 0.935266 4.16143 0.935266 3.14049 1.95592C2.11984 2.97658 2.11984 4.63741 3.14049 5.65806L8.91657 11.4341L10.1997 10.151L4.4236 4.37491Z" fill="white"/>
</g>
<defs>
<clipPath id="clip0_2_3656">
<rect width="24" height="24" fill="white"/>
</clipPath>
</defs>
</svg>
