<svg width="24" height="24" viewBox="0 0 24 24" fill="none" xmlns="http://www.w3.org/2000/svg">
<path d="M22.6667 5.59992H17.9099L16.8805 2.91351C16.7616 2.60418 16.4645 2.3999 16.1333 2.3999H7.86666C7.5352 2.3999 7.23839 2.60418 7.1197 2.91351L6.08986 5.59992H1.33331C0.598125 5.59992 0 6.19804 0 6.93323V20.2665C0 21.0018 0.598125 21.5999 1.33331 21.5999H22.6666C23.4018 21.5999 24 21.0018 24 20.2666V6.93323C24 6.19804 23.4019 5.59992 22.6667 5.59992ZM22.4 19.9999H1.59998V7.1999H6.63998C6.97144 7.1999 7.26825 6.99562 7.38694 6.68629L8.41683 3.99989H15.5835L16.6131 6.68629C16.7318 6.99562 17.0288 7.1999 17.3601 7.1999H22.4001V19.9999H22.4Z" fill="white"/>
<path d="M12.0002 7.33301C8.89756 7.33301 6.37354 9.85727 6.37354 12.9597C6.37354 16.0624 8.89752 18.5866 12.0002 18.5866C15.1029 18.5866 17.6269 16.0624 17.6269 12.9597C17.6269 9.85704 15.1029 7.33301 12.0002 7.33301ZM12.0002 16.9866C9.77994 16.9866 7.97356 15.1804 7.97356 12.9599C7.97356 10.7394 9.77998 8.93327 12.0002 8.93327C14.2205 8.93327 16.0269 10.7397 16.0269 12.9599C16.0269 15.1802 14.2205 16.9866 12.0002 16.9866Z" fill="white"/>
</svg>
