<svg width="24" height="24" viewBox="0 0 24 24" fill="none" xmlns="http://www.w3.org/2000/svg">
<path d="M10.4729 7.06372C7.20945 7.06372 4.55469 9.71872 4.55469 12.9819C4.55469 16.2454 7.20969 18.9001 10.4729 18.9001C13.7361 18.9001 16.3911 16.2451 16.3911 12.9819C16.3911 9.71844 13.7364 7.06372 10.4729 7.06372ZM10.4729 17.2637C8.11189 17.2637 6.19109 15.3429 6.19109 12.9819C6.19109 10.6209 8.11189 8.70008 10.4729 8.70008C12.8339 8.70008 14.7547 10.6209 14.7547 12.9819C14.7547 15.3429 12.8339 17.2637 10.4729 17.2637Z" fill="white"/>
<path d="M20.1819 9H17.7274C17.2755 9 16.9092 9.36628 16.9092 9.8182C16.9092 10.2701 17.2755 10.6364 17.7274 10.6364H20.1819C20.6339 10.6364 21.0001 10.2701 21.0001 9.8182C21.0001 9.36628 20.6339 9 20.1819 9Z" fill="white"/>
<path d="M22.6364 4.63622H16.0086L14.6106 2.30629C14.4628 2.05973 14.1966 1.90894 13.9091 1.90894H7.36364C7.0762 1.90894 6.81 2.05973 6.66192 2.30629L5.26392 4.63622H1.36364C0.611719 4.63622 0 5.24794 0 5.99986V20.7271C0 21.4791 0.611719 22.0908 1.36364 22.0908H22.6364C23.3883 22.0908 24 21.4791 24 20.7271V5.99986C24 5.24794 23.3883 4.63622 22.6364 4.63622ZM22.3636 20.4544H1.63636V6.27258H5.72728C6.01472 6.27258 6.28092 6.12178 6.429 5.87522L7.827 3.5453H13.446L14.844 5.87522C14.9918 6.12178 15.258 6.27258 15.5454 6.27258H22.3636V20.4544Z" fill="white"/>
</svg>
