<svg width="24" height="24" viewBox="0 0 24 24" fill="none" xmlns="http://www.w3.org/2000/svg">
<g clip-path="url(#clip0_2_3652)">
<path d="M23.1566 8.65445C23.1342 8.64986 23.1116 8.64657 23.0889 8.644L21.3291 8.45303C20.8384 7.56359 20.1578 6.75434 19.2996 6.04007L19.386 5.26289C19.499 4.27234 19.524 3.96526 19.4878 3.71697C19.4199 3.10174 18.908 2.65535 18.2885 2.65535C18.2883 2.65535 18.2883 2.65535 18.288 2.65535C17.1266 2.62863 15.0996 3.55398 14.4144 3.88426C14.0238 3.83284 13.145 3.72461 12.6935 3.72461C9.09602 3.72461 5.82085 5.44673 4.14607 8.21875C4.13946 8.22972 4.13332 8.24064 4.12722 8.25161L3.77074 8.91367C3.76563 8.9236 3.76029 8.93354 3.75546 8.94371C3.33148 9.82172 3.09898 10.673 3.04452 11.5453C3.04348 11.5611 3.04297 11.5769 3.04297 11.593V11.9494C3.04297 13.4067 3.48781 14.8256 4.33427 16.082C3.6042 17.4008 3.76971 19.0425 4.79594 20.1542C5.46741 20.8898 6.40983 21.3125 7.47374 21.3454H7.5756C8.53685 21.3454 9.48053 20.9716 10.1556 20.3291L10.5416 19.9739C11.7191 20.1937 12.9235 20.2242 14.0635 20.064L14.2866 20.2747C15.7317 21.6229 17.9303 21.6994 19.3922 20.4595C20.5207 19.5334 20.9368 18.0297 20.4818 16.6753C20.7955 16.2873 21.0814 15.8628 21.3269 15.4213L23.0892 15.23C23.1119 15.2275 23.1341 15.2244 23.1562 15.2198C23.6451 15.1226 24.0001 14.7001 24.0001 14.2161V9.65803C24 9.17438 23.6453 8.75223 23.1566 8.65445ZM22.4725 13.7597L20.829 13.938C20.6256 13.954 20.4392 14.0464 20.2744 14.2127C20.2177 14.2703 20.1703 14.3365 20.1341 14.4088C19.8467 14.983 19.4731 15.5318 19.054 15.995C18.9635 16.095 18.9017 16.2163 18.8737 16.3464C18.8166 16.5623 18.8464 16.7798 18.9544 16.9624C19.318 17.7568 19.0983 18.7239 18.4133 19.2862C17.5475 20.0203 16.1928 19.9635 15.3321 19.1607L14.8786 18.7324C14.7627 18.6204 14.5664 18.4935 14.2728 18.4935C14.2285 18.4935 14.1839 18.4976 14.1401 18.5052C12.9821 18.7097 11.729 18.6764 10.5156 18.4097C10.4616 18.3978 10.4066 18.3919 10.3514 18.3919C10.0623 18.3919 9.86804 18.5144 9.75222 18.6241L9.11153 19.2134C8.70846 19.5974 8.14873 19.8176 7.57578 19.8176L7.4976 19.8179C6.87374 19.7985 6.31505 19.5523 5.92163 19.1212C5.27181 18.4173 5.23384 17.3759 5.82666 16.5814C5.94914 16.4337 6.01585 16.2519 6.01585 16.0617C6.01585 15.8699 5.94835 15.6871 5.82408 15.5391C5.00439 14.46 4.57099 13.2194 4.57099 11.9493V11.6175C4.61528 10.9588 4.79636 10.3058 5.12457 9.62236L5.46348 8.99288C6.86653 6.68511 9.63498 5.25225 12.694 5.25225C13.0805 5.25225 14.0754 5.37726 14.3939 5.42287C14.4298 5.42798 14.466 5.43051 14.5022 5.43051H14.5531C14.6819 5.43051 14.8112 5.39667 14.9241 5.33451C15.2882 5.13412 17.0152 4.36309 17.9607 4.20924C17.939 4.47052 17.8972 4.83591 17.8682 5.09156L17.7409 6.23746C17.7376 6.26549 17.7361 6.29347 17.7361 6.32174C17.7361 6.62427 17.871 6.82339 17.9839 6.93697C18.0078 6.96092 18.0333 6.98304 18.0597 7.00367C18.9879 7.71766 19.6846 8.54322 20.1307 9.45788C20.1676 9.534 20.2173 9.60328 20.2771 9.6631C20.3408 9.72675 20.5262 9.91186 20.83 9.9353L22.4724 10.1133V13.7597H22.4725Z" fill="white"/>
<path d="M5.51831 7.69121C5.22014 7.39276 4.7363 7.39276 4.43813 7.69121C3.77401 8.35505 2.6936 8.35482 2.02976 7.69121C1.70609 7.36754 1.52788 6.93977 1.52788 6.48701C1.52788 6.03424 1.70614 5.60647 2.03004 5.2828C2.32821 4.98435 2.32821 4.50056 2.03004 4.20239C1.73159 3.90422 1.2478 3.90422 0.949631 4.20239C0.337122 4.8148 0 5.62611 0 6.48705C0 7.348 0.337122 8.15926 0.949538 8.77167C1.57925 9.40138 2.40659 9.71638 3.23392 9.71638C4.06126 9.71638 4.88855 9.40138 5.51831 8.77144C5.81671 8.47322 5.81671 7.98943 5.51831 7.69121Z" fill="white"/>
<path d="M16.4113 11.0333C16.8192 11.0333 17.1498 10.7027 17.1498 10.2949C17.1498 9.88702 16.8192 9.5564 16.4113 9.5564C16.0035 9.5564 15.6729 9.88702 15.6729 10.2949C15.6729 10.7027 16.0035 11.0333 16.4113 11.0333Z" fill="white"/>
</g>
<defs>
<clipPath id="clip0_2_3652">
<rect width="24" height="24" fill="white"/>
</clipPath>
</defs>
</svg>
