<svg width="24" height="24" viewBox="0 0 24 24" fill="none" xmlns="http://www.w3.org/2000/svg">
<path d="M1.77539 12.3974C1.77539 13.0451 2.30034 13.5701 2.94802 13.5701L21.3975 13.5701C22.0452 13.5701 22.5702 13.0451 22.5702 12.3974C22.5702 11.7493 22.0452 11.2248 21.3975 11.2248L2.94802 11.2248C2.30034 11.2248 1.77539 11.7497 1.77539 12.3974Z" fill="white"/>
<path d="M12.1726 2C11.525 2 11 2.52495 11 3.17262V21.6222C11 22.2698 11.525 22.7948 12.1726 22.7948C12.8207 22.7948 13.3453 22.2698 13.3453 21.6222V3.17262C13.3453 2.52495 12.8203 2 12.1726 2Z" fill="white"/>
</svg>
