<svg width="24" height="24" viewBox="0 0 24 24" fill="none" xmlns="http://www.w3.org/2000/svg">
<g clip-path="url(#clip0_2_3632)">
<path d="M23.1529 11.153H19.2C18.8815 11.153 18.5901 11.3317 18.4455 11.6155L15.1022 18.1683L9.83292 3.41455C9.71916 3.09604 9.42717 2.87582 9.08977 2.85407C8.7518 2.83063 8.43441 3.01302 8.28084 3.31429L4.28133 11.1533H0.847078C0.379219 11.1533 0 11.5328 0 12.0003C0 12.4679 0.379219 12.8474 0.847078 12.8474H4.80028C5.11852 12.8474 5.40989 12.6687 5.55473 12.3852L8.89781 5.83232L14.1671 20.5861C14.2808 20.9046 14.5731 21.1249 14.9102 21.1466C14.9286 21.1477 14.9469 21.1483 14.965 21.1483C15.2815 21.1483 15.5738 20.971 15.7192 20.6864L19.7187 12.8472H23.153C23.6208 12.8472 24 12.4679 24 12.0001C24 11.5322 23.6208 11.153 23.1529 11.153Z" fill="white"/>
</g>
<defs>
<clipPath id="clip0_2_3632">
<rect width="24" height="24" fill="white"/>
</clipPath>
</defs>
</svg>
