<svg width="24" height="24" viewBox="0 0 24 24" fill="none" xmlns="http://www.w3.org/2000/svg">
<g clip-path="url(#clip0_2_3668)">
<path d="M22.4231 6.85718H1.57741C1.00928 6.85718 0.548828 7.31763 0.548828 7.88576V22.9715C0.548828 23.5396 1.00928 24.0001 1.57741 24.0001H22.4231C22.9913 24.0001 23.4517 23.5396 23.4517 22.9715V7.88576C23.4517 7.31763 22.9912 6.85718 22.4231 6.85718ZM21.3945 21.9429H2.60598V8.91429H21.3946V21.9429H21.3945Z" fill="white"/>
<path d="M20.7084 3.42871H3.29127C2.72315 3.42871 2.2627 3.88916 2.2627 4.45729C2.2627 5.02541 2.72315 5.48587 3.29127 5.48587H20.7084C21.2766 5.48587 21.737 5.02541 21.737 4.45729C21.737 3.88916 21.2766 3.42871 20.7084 3.42871Z" fill="white"/>
<path d="M18.9942 0H5.00563C4.4375 0 3.97705 0.460453 3.97705 1.02858C3.97705 1.5967 4.4375 2.05716 5.00563 2.05716H18.9942C19.5623 2.05716 20.0228 1.5967 20.0228 1.02858C20.0227 0.460453 19.5623 0 18.9942 0Z" fill="white"/>
</g>
<defs>
<clipPath id="clip0_2_3668">
<rect width="24" height="24" fill="white"/>
</clipPath>
</defs>
</svg>
