<svg width="24" height="24" viewBox="0 0 24 24" fill="none" xmlns="http://www.w3.org/2000/svg">
<path d="M23.0728 4.89844H16.6381C16.3834 4.89844 16.141 5.01033 15.9761 5.20453L5.62732 17.3624H0.869588C0.389301 17.3624 0 17.7516 0 18.2319C0 18.7122 0.389301 19.1015 0.869588 19.1015H6.02909C6.28386 19.1015 6.52592 18.9896 6.69111 18.7954L17.0396 6.63757H23.0728C23.553 6.63757 23.9423 6.24827 23.9423 5.76798C23.9423 5.28769 23.553 4.89844 23.0728 4.89844Z" fill="white"/>
<path d="M23.0728 17.3624H17.0396L6.69139 5.20453C6.52587 5.01033 6.28386 4.89844 6.02909 4.89844H0.869588C0.389301 4.89844 0 5.28769 0 5.76803C0 6.24831 0.389301 6.63761 0.869588 6.63761H5.62732L15.9758 18.7954C16.1408 18.9897 16.3831 19.1015 16.6379 19.1015H23.0727C23.553 19.1015 23.9423 18.7122 23.9423 18.232C23.9423 17.7516 23.553 17.3624 23.0728 17.3624Z" fill="white"/>
<path d="M23.7427 5.15097L19.714 1.15094C19.3734 0.812404 18.8224 0.8147 18.4844 1.1553C18.1462 1.49618 18.1482 2.04692 18.4891 2.38517L21.8986 5.77043L18.4867 9.18236C18.147 9.52207 18.147 10.0725 18.4867 10.4122C18.6566 10.5818 18.8789 10.6667 19.1015 10.6667C19.3241 10.6667 19.5467 10.5818 19.7163 10.412L23.745 6.38291C23.9088 6.21973 24.0001 5.99797 23.9997 5.76668C23.9994 5.5354 23.9068 5.31386 23.7427 5.15097Z" fill="white"/>
<path d="M23.745 17.6172L19.7163 13.5885C19.3766 13.2488 18.8264 13.2488 18.4867 13.5885C18.147 13.9279 18.147 14.4787 18.4867 14.8181L21.8986 18.2298L18.4891 21.615C18.1482 21.9533 18.1462 22.5038 18.4844 22.8446C18.6546 23.0159 18.878 23.1017 19.1015 23.1017C19.3233 23.1017 19.5447 23.0177 19.714 22.8493L23.7427 18.8492C23.9071 18.6866 23.9996 18.4649 23.9998 18.2338C24.0001 18.0025 23.9085 17.7804 23.745 17.6172Z" fill="white"/>
</svg>
