<svg width="24" height="24" viewBox="0 0 24 24" fill="none" xmlns="http://www.w3.org/2000/svg">
<g clip-path="url(#clip0_2_3616)">
<path d="M23.7383 12.7973L11.947 1.00603C11.8082 0.86728 11.6281 0.777938 11.4336 0.752016L5.86547 0.00760902C5.58886 -0.0284371 5.31221 0.0647954 5.11539 0.26162L0.2619 5.1151C0.0647939 5.31193 -0.0290012 5.58942 0.00788873 5.86518L0.752297 11.4333C0.778499 11.6277 0.867513 11.8082 1.00631 11.9466L12.7976 23.7379C12.9721 23.9124 13.2005 23.9997 13.4292 23.9997C13.6575 23.9997 13.8862 23.9125 14.061 23.7377L23.7383 14.0604C24.0873 13.7118 24.0873 13.146 23.7383 12.7973ZM13.4292 21.8433L2.48322 10.8973L1.83734 6.06646L6.06646 1.83767L10.897 2.4835L21.8434 13.4292L13.4292 21.8433Z" fill="white"/>
<path d="M9.53462 4.90749C9.18593 4.55851 8.62021 4.55851 8.27151 4.90749L5.11525 8.06375C4.76627 8.41245 4.76627 8.97817 5.11525 9.32687C5.28943 9.50133 5.51813 9.58861 5.74678 9.58861C5.97515 9.58861 6.20385 9.50138 6.37832 9.32687L9.53458 6.1706C9.8836 5.8219 9.8836 5.25618 9.53462 4.90749Z" fill="white"/>
</g>
<defs>
<clipPath id="clip0_2_3616">
<rect width="24" height="24" fill="white"/>
</clipPath>
</defs>
</svg>
