<svg width="24" height="24" viewBox="0 0 24 24" fill="none" xmlns="http://www.w3.org/2000/svg">
<path d="M12.0002 3C9.01192 3 6.53739 4.30083 4.80419 5.8995L4.88678 0.942984C4.89541 0.430828 4.48684 0.00834375 3.97441 0C3.96916 0 3.96391 0 3.95866 0C3.45358 0 3.03977 0.405469 3.03109 0.912375L2.90739 8.33508C2.90336 8.58652 3.00142 8.829 3.17955 9.00684C3.35739 9.18469 3.59861 9.2827 3.85131 9.27839L11.0884 9.15469C11.6006 9.14573 12.0088 8.72353 12.0002 8.21109C11.9915 7.70419 11.5777 7.29905 11.0727 7.29905C11.0674 7.29905 11.0622 7.29905 11.0566 7.29905L5.94114 7.38656C7.37153 6.03098 9.48208 4.85573 12.0002 4.85573C17.1618 4.85573 20.629 9.31739 20.629 13.4846C20.629 17.6666 17.1618 22.1444 12.0002 22.1444C6.37009 22.1444 3.37136 17.1149 3.37136 13.4846C3.37136 12.9721 2.956 12.5567 2.44352 12.5567C1.93103 12.5567 1.51562 12.972 1.51562 13.4845C1.51562 18.5629 5.72861 24 12.0002 24C18.2717 24 22.4847 18.5629 22.4847 13.4843C22.4847 8.42105 18.2717 3 12.0002 3Z" fill="white"/>
</svg>
