<svg width="24" height="24" viewBox="0 0 24 24" fill="none" xmlns="http://www.w3.org/2000/svg">
<g clip-path="url(#clip0_2_3572)">
<path d="M21.9345 4.08583L18.1435 0.264928C17.7948 -0.0864018 17.2279 -0.0885112 16.8769 0.259866C16.5258 0.608243 16.5235 1.17511 16.8718 1.52615L20.0346 4.71395L16.8742 7.87429C16.5243 8.22383 16.5243 8.79103 16.8742 9.14057C17.0492 9.31551 17.2781 9.40298 17.5074 9.40298C17.7366 9.40298 17.9659 9.31551 18.1408 9.1409L21.9319 5.34982C22.2808 5.00107 22.2817 4.43598 21.9345 4.08583Z" fill="white"/>
<path d="M21.3287 3.8208H2.67187C2.17724 3.8208 1.77637 4.22168 1.77637 4.71631V11.6417C1.77637 12.1363 2.17724 12.5372 2.67187 12.5372C3.1665 12.5372 3.56738 12.1363 3.56738 11.6417V5.61186H21.3287C21.8233 5.61186 22.2242 5.21098 22.2242 4.71635C22.2242 4.22172 21.8233 3.8208 21.3287 3.8208Z" fill="white"/>
<path d="M3.9357 19.2859L7.09603 16.1259C7.44558 15.7763 7.44591 15.2095 7.09603 14.8596C6.7462 14.5097 6.17901 14.5097 5.82946 14.8596L2.03838 18.6503C1.68944 18.999 1.68822 19.5641 2.0357 19.9142L5.82679 23.7351C6.00201 23.9116 6.23245 23.9999 6.46261 23.9999C6.69065 23.9999 6.91875 23.9134 7.09336 23.7403C7.44441 23.3919 7.4468 22.825 7.09842 22.4737L3.9357 19.2859Z" fill="white"/>
<path d="M21.2988 11.1641C20.8042 11.1641 20.4033 11.5649 20.4033 12.0596V18.388H2.67187C2.17724 18.388 1.77637 18.7888 1.77637 19.2835C1.77637 19.7781 2.17724 20.179 2.67187 20.179H21.2992C21.7938 20.179 22.1947 19.7781 22.1944 19.2835V12.0596C22.1943 11.565 21.7935 11.1641 21.2988 11.1641Z" fill="white"/>
</g>
<defs>
<clipPath id="clip0_2_3572">
<rect width="24" height="24" fill="white"/>
</clipPath>
</defs>
</svg>
