<svg width="24" height="24" viewBox="0 0 24 24" fill="none" xmlns="http://www.w3.org/2000/svg">
<path d="M17.1838 5.18359C16.7092 5.18359 16.3246 5.5682 16.3246 6.04277C16.3246 6.51733 16.7092 6.90194 17.1838 6.90194C19.9948 6.90194 22.2816 9.18883 22.2816 11.9998C22.2816 14.8111 19.9945 17.0979 17.1838 17.0979H10.8831C10.4085 17.0979 10.0239 17.4825 10.0239 17.9571C10.0239 18.4316 10.4085 18.8162 10.8831 18.8162H17.1838C20.9422 18.8162 24 15.7584 24 11.9997C24 8.24144 20.9422 5.18359 17.1838 5.18359Z" fill="white"/>
<path d="M12.0163 17.9549L15.3159 14.1055C15.6249 13.7455 15.583 13.203 15.2228 12.8943C14.863 12.5856 14.3203 12.6265 14.0116 12.9874L10.2309 17.3979C9.95423 17.7204 9.95507 18.1967 10.2326 18.5183L14.0131 22.9002C14.1829 23.0969 14.4226 23.198 14.6637 23.198C14.8628 23.198 15.0624 23.1296 15.2248 22.9892C15.5839 22.6793 15.624 22.1369 15.3141 21.7775L12.0163 17.9549Z" fill="white"/>
<path d="M13.1169 5.18359H6.81623C3.05784 5.18359 0 8.24144 0 11.9998C0 15.7585 3.05784 18.8163 6.81623 18.8163C7.2908 18.8163 7.67541 18.4317 7.67541 17.9571C7.67541 17.4826 7.2908 17.098 6.81623 17.098C4.00523 17.098 1.71839 14.8111 1.71839 11.9998C1.71839 9.18883 4.00528 6.90198 6.81623 6.90198H13.1169C13.5915 6.90198 13.9761 6.51737 13.9761 6.04281C13.9761 5.56825 13.5915 5.18359 13.1169 5.18359Z" fill="white"/>
<path d="M13.7678 5.48154L9.98742 1.09967C9.67781 0.74051 9.13481 0.700431 8.77566 1.01032C8.41622 1.32049 8.37614 1.86293 8.68631 2.22209L11.9839 6.0446L8.6843 9.89435C8.37558 10.2546 8.41739 10.7971 8.77767 11.1058C8.93977 11.2447 9.13852 11.3126 9.33642 11.3126C9.57844 11.3126 9.81928 11.2106 9.98939 11.0124L13.7695 6.6019C14.0462 6.27945 14.0453 5.80315 13.7678 5.48154Z" fill="white"/>
</svg>
