<svg width="24" height="24" viewBox="0 0 24 24" fill="none" xmlns="http://www.w3.org/2000/svg">
<path d="M12 0C5.38327 0 0 5.38327 0 12C0 18.6167 5.38327 24 12 24C18.6167 24 24 18.6167 24 12C24 5.38327 18.6167 0 12 0ZM12 22.3256C6.30642 22.3256 1.67442 17.6936 1.67442 12C1.67442 6.30642 6.30642 1.67442 12 1.67442C17.6936 1.67442 22.3256 6.30642 22.3256 12C22.3256 17.6936 17.6936 22.3256 12 22.3256Z" fill="white"/>
<path d="M8.09277 8.09302V15.907H15.9067V8.09302H8.09277ZM14.2323 14.2326H9.76719V9.76744H14.2323V14.2326Z" fill="white"/>
</svg>
