<svg width="24" height="24" viewBox="0 0 24 24" fill="none" xmlns="http://www.w3.org/2000/svg">
<path d="M12 0C5.38322 0 0 5.38322 0 12C0 18.6168 5.38322 24 12 24C18.6168 24 24 18.6168 24 12C24 5.38322 18.6168 0 12 0ZM12 22.2C6.37561 22.2 1.8 17.6244 1.8 12C1.8 6.37561 6.37561 1.8 12 1.8C17.6244 1.8 22.2 6.37561 22.2 12C22.2 17.6244 17.6244 22.2 12 22.2Z" fill="white"/>
<path d="M19.3137 3.41383L15.1431 7.58325L16.4157 8.85621L20.5863 4.68679L19.3137 3.41383Z" fill="white"/>
<path d="M0.977608 10.7739L0.818848 12.5669L6.5788 13.0769L6.73756 11.2839L0.977608 10.7739Z" fill="white"/>
<path d="M12.3 0.900146H10.5V6.69015H12.3V0.900146Z" fill="white"/>
<path d="M11.9998 5.76001C8.55905 5.76001 5.75977 8.55929 5.75977 12C5.75977 15.4407 8.55905 18.24 11.9998 18.24C15.4405 18.24 18.2398 15.4407 18.2398 12C18.2398 8.55929 15.4405 5.76001 11.9998 5.76001ZM11.9998 16.44C9.55148 16.44 7.55977 14.448 7.55977 12C7.55977 9.55173 9.55148 7.56001 11.9998 7.56001C14.4478 7.56001 16.4398 9.55173 16.4398 12C16.4398 14.448 14.4478 16.44 11.9998 16.44Z" fill="white"/>
</svg>
