<svg width="24" height="24" viewBox="0 0 24 24" fill="none" xmlns="http://www.w3.org/2000/svg">
<path d="M16.2123 0H7.78709C7.3467 0 6.98975 0.356953 6.98975 0.797344V23.2027C6.98975 23.643 7.3467 24 7.78709 24H16.2124C16.6527 24 17.0097 23.643 17.0097 23.2027V0.797344C17.0097 0.356953 16.6527 0 16.2123 0ZM15.415 22.4053H8.58443V1.59469H15.415V22.4053H15.415Z" fill="white"/>
<path d="M11.0562 8.55811H7.78709C7.3467 8.55811 6.98975 8.91506 6.98975 9.35545C6.98975 9.79584 7.3467 10.1528 7.78709 10.1528H11.0562C11.4964 10.1528 11.8535 9.79584 11.8535 9.35545C11.8535 8.91501 11.4966 8.55811 11.0562 8.55811Z" fill="white"/>
<path d="M9.99307 3.24268H7.78709C7.3467 3.24268 6.98975 3.59963 6.98975 4.04002C6.98975 4.48041 7.3467 4.83736 7.78709 4.83736H9.99307C10.4332 4.83736 10.7904 4.48041 10.7904 4.04002C10.7904 3.59963 10.4335 3.24268 9.99307 3.24268Z" fill="white"/>
<path d="M9.99307 13.8738H7.78709C7.3467 13.8738 6.98975 14.2307 6.98975 14.6711C6.98975 15.1115 7.3467 15.4685 7.78709 15.4685H9.99307C10.4332 15.4685 10.7904 15.1115 10.7904 14.6711C10.7904 14.2307 10.4335 13.8738 9.99307 13.8738Z" fill="white"/>
<path d="M11.0562 19.1892H7.78709C7.3467 19.1892 6.98975 19.5462 6.98975 19.9866C6.98975 20.4269 7.3467 20.7839 7.78709 20.7839H11.0562C11.4964 20.7839 11.8535 20.4269 11.8535 19.9866C11.8535 19.5462 11.4966 19.1892 11.0562 19.1892Z" fill="white"/>
</svg>
