<svg width="24" height="24" viewBox="0 0 24 24" fill="none" xmlns="http://www.w3.org/2000/svg">
<g clip-path="url(#clip0_2_3658)">
<path d="M6.99561 0.775926V5.25005H2.52148V6.80175H7.77148C8.20002 6.80175 8.54736 6.45441 8.54736 6.02588V0.775879H6.99561V0.775926Z" fill="white"/>
<path d="M16.668 0H7.77148C7.56561 0 7.36831 0.0817031 7.22295 0.227344L1.97295 5.47734C1.82736 5.6227 1.74561 5.82028 1.74561 6.02587V18.9569C1.74561 19.3854 2.09295 19.7328 2.52148 19.7328H9.9439C10.3724 19.7328 10.7198 19.3854 10.7198 18.9569C10.7198 18.5284 10.3724 18.181 9.9439 18.181H3.29731V6.34706L8.09267 1.5517H15.8922V11.6121C15.8922 12.0404 16.2395 12.3879 16.668 12.3879C17.0966 12.3879 17.4439 12.0406 17.4439 11.6121V0.775875C17.4439 0.347344 17.0966 0 16.668 0Z" fill="white"/>
<path d="M12.8405 8.58618H6.34912C5.92059 8.58618 5.57324 8.93353 5.57324 9.36206C5.57324 9.79059 5.92059 10.1379 6.34912 10.1379H12.8405C13.2693 10.1379 13.6164 9.79059 13.6164 9.36206C13.6164 8.93353 13.2691 8.58618 12.8405 8.58618Z" fill="white"/>
<path d="M12.8405 11.6897H6.34912C5.92059 11.6897 5.57324 12.037 5.57324 12.4656C5.57324 12.8941 5.92059 13.2414 6.34912 13.2414H12.8405C13.2693 13.2414 13.6164 12.8941 13.6164 12.4656C13.6164 12.037 13.2691 11.6897 12.8405 11.6897Z" fill="white"/>
<path d="M16.3057 13.6809C13.8814 13.6809 11.9092 15.6531 11.9092 18.0775C11.9092 20.5018 13.8814 22.474 16.3057 22.474C18.7301 22.474 20.7023 20.5018 20.7023 18.0775C20.7023 15.6531 18.73 13.6809 16.3057 13.6809ZM16.3057 20.9223C14.7372 20.9223 13.4609 19.646 13.4609 18.0775C13.4609 16.5089 14.7372 15.2326 16.3057 15.2326C17.8743 15.2326 19.1506 16.5089 19.1506 18.0775C19.1505 19.646 17.8743 20.9223 16.3057 20.9223Z" fill="white"/>
<path d="M22.0242 22.673L19.438 20.1129C19.1333 19.8114 18.6425 19.8134 18.3409 20.1183C18.0391 20.423 18.0417 20.9141 18.3464 21.2154L20.9325 23.7755C21.0839 23.9252 21.2809 24 21.4782 24C21.6779 24 21.8778 23.9231 22.0296 23.77C22.3314 23.4654 22.3289 22.9743 22.0242 22.673Z" fill="white"/>
</g>
<defs>
<clipPath id="clip0_2_3658">
<rect width="24" height="24" fill="white"/>
</clipPath>
</defs>
</svg>
