<svg width="24" height="24" viewBox="0 0 24 24" fill="none" xmlns="http://www.w3.org/2000/svg">
<g clip-path="url(#clip0_2_3675)">
<path d="M20.7863 4.62746L12.2968 0.103698C12.0343 -0.0364111 11.7196 -0.0343486 11.4588 0.108714L3.20427 4.63248C2.92199 4.78731 2.74658 5.08337 2.74658 5.40535V11.8092C2.74658 16.8406 5.73261 21.4006 10.3551 23.4272L11.5007 23.9266C11.6129 23.9756 11.7331 24 11.8529 24C11.9719 24 12.0909 23.9759 12.2022 23.9277L13.4921 23.3708C18.2068 21.3756 21.2531 16.7915 21.2531 11.6914V5.40507C21.2531 5.07957 21.0736 4.78056 20.7863 4.62746ZM19.4906 11.6914C19.4906 16.0833 16.8656 20.0308 12.8024 21.7487C12.8003 21.7495 12.7983 21.7504 12.7962 21.7513L11.8547 22.1578L11.0613 21.8118C7.08093 20.0669 4.50908 16.1406 4.50908 11.8089V5.92707L11.8885 1.88326L19.4905 5.93415V11.6914H19.4906Z" fill="white"/>
<path d="M16.5615 9.63745C16.2546 9.25996 15.6991 9.20268 15.3216 9.50995L10.7895 13.1969L9.11571 11.2369C8.79991 10.8668 8.24327 10.823 7.87343 11.1391C7.5033 11.4549 7.45952 12.0112 7.7756 12.3814L10.0081 14.9955C10.1823 15.1996 10.4297 15.3045 10.6788 15.3045C10.8744 15.3045 11.0712 15.2399 11.2342 15.1068L16.434 10.8771C16.8118 10.5701 16.8688 10.0149 16.5615 9.63745Z" fill="white"/>
</g>
<defs>
<clipPath id="clip0_2_3675">
<rect width="24" height="24" fill="white"/>
</clipPath>
</defs>
</svg>
