<svg width="24" height="24" viewBox="0 0 24 24" fill="none" xmlns="http://www.w3.org/2000/svg">
<path d="M11.9999 6.9895C9.24484 6.9895 7.00342 9.23092 7.00342 11.986C7.00342 14.7411 9.24484 16.9825 11.9999 16.9825C14.7547 16.9825 16.9964 14.7411 16.9964 11.986C16.9964 9.23087 14.7547 6.9895 11.9999 6.9895ZM11.9999 15.2983C10.1734 15.2983 8.68764 13.8125 8.68764 11.986C8.68764 10.1595 10.1734 8.67372 11.9999 8.67372C13.8264 8.67372 15.3122 10.1595 15.3122 11.986C15.3122 13.8125 13.8264 15.2983 11.9999 15.2983Z" fill="white"/>
<path d="M22.2359 8.43145L21.0376 8.23186L21.7197 7.26145C22.3395 6.43477 22.246 5.24798 21.5221 4.5698L19.3888 2.43647C18.6598 1.70747 17.496 1.62834 16.6985 2.238L15.7486 2.92767L15.5575 1.79475C15.4154 0.754828 14.5568 0 13.5159 0H10.4843C9.46425 0 8.58704 0.757312 8.44669 1.7423L8.24569 2.94877L7.27529 2.26692C6.44832 1.64658 5.26125 1.74005 4.58363 2.46427L2.45035 4.59759C1.72163 5.32603 1.64166 6.4898 2.24879 7.28334L2.95139 8.26411L1.80924 8.45695C0.768941 8.5987 0.0141602 9.45708 0.0141602 10.4982V13.5298C0.0141602 14.5667 0.754926 15.4248 1.75618 15.5671L2.96264 15.7684L2.2808 16.7388C1.66074 17.5655 1.75421 18.7523 2.47814 19.4302L4.61175 21.5638C4.99463 21.947 5.54255 22.1755 6.0773 22.1755C6.5183 22.1755 6.94524 22.0298 7.2975 21.7654L8.27827 21.0628L8.47111 22.2049C8.61258 23.2452 9.47124 24 10.5124 24H13.544C14.5806 24 15.439 23.259 15.581 22.2583L15.7823 21.0515L16.7437 21.7269C17.1165 22.0062 17.5415 22.1479 18.0066 22.1479C18.5573 22.1479 19.078 21.9304 19.4724 21.536L21.6057 19.4026C22.3347 18.6742 22.4144 17.5104 21.7988 16.7048L21.0755 15.7316L22.1912 15.5436C23.2315 15.4015 23.9863 14.5429 23.9863 13.502V10.4705C23.9864 9.45431 23.2349 8.57967 22.2359 8.43145ZM22.3019 13.5012C22.3019 13.6969 22.1655 13.8465 21.9369 13.8782L19.439 14.2992C19.1501 14.3478 18.9073 14.5434 18.7979 14.8155C18.6884 15.0875 18.7285 15.3965 18.9031 15.632L20.4537 17.7182C20.5587 17.8552 20.5404 18.0859 20.415 18.2114L18.2817 20.3447C18.2008 20.4255 18.1135 20.4631 18.0068 20.4631C17.9086 20.4631 17.8331 20.4382 17.7331 20.3638L15.656 18.9041C15.4191 18.7371 15.1131 18.7051 14.8464 18.8163C14.5798 18.928 14.3886 19.1691 14.3412 19.4546L13.9171 22.0003C13.8909 22.183 13.7341 22.3158 13.5437 22.3158H10.5121C10.3171 22.3158 10.1671 22.1797 10.1357 21.9511L9.71471 19.4529C9.66643 19.1666 9.47386 18.9255 9.20522 18.8146C9.10191 18.7717 8.99274 18.7509 8.88436 18.7509C8.71116 18.7509 8.53908 18.8042 8.39396 18.9081L6.3016 20.407C6.22721 20.4629 6.15169 20.4912 6.0773 20.4912C5.99086 20.4912 5.86763 20.4384 5.80247 20.373L3.6495 18.2206C3.52683 18.1058 3.51811 17.8931 3.63014 17.7468C3.63718 17.7378 3.64388 17.7286 3.65035 17.7193L5.10999 15.6421C5.27644 15.4052 5.30958 15.0996 5.19783 14.8326C5.08613 14.5659 4.845 14.3748 4.55954 14.3273L2.01385 13.9032C1.83113 13.8771 1.69833 13.7202 1.69833 13.5299V10.4983C1.69833 10.3029 1.83418 10.1533 2.06269 10.1216L4.56094 9.70059C4.84754 9.65231 5.08866 9.45975 5.19952 9.19111C5.31038 8.92247 5.27504 8.61567 5.10577 8.37961L3.60235 6.28125C3.49763 6.144 3.51563 5.91352 3.64107 5.78808L5.79319 3.63539C5.90827 3.51244 6.12075 3.50428 6.26729 3.61631C6.27629 3.62306 6.28524 3.62977 6.29452 3.63623L8.37169 5.09587C8.60832 5.26233 8.91399 5.29575 9.18122 5.18372C9.44818 5.07202 9.63905 4.83089 9.68649 4.54542L10.1106 1.99973C10.1367 1.81702 10.2936 1.68422 10.4839 1.68422H13.5155C13.7112 1.68422 13.8608 1.82034 13.8928 2.04914L14.3138 4.54739C14.3621 4.83483 14.5558 5.0768 14.8255 5.18709C15.095 5.29711 15.4027 5.26008 15.6387 5.08884L17.7044 3.58847C17.8411 3.48375 18.0719 3.50147 18.1976 3.62719L20.3503 5.77931C20.4727 5.89411 20.4814 6.10716 20.3693 6.25341C20.3629 6.26241 20.3559 6.27136 20.3497 6.28064L18.8901 8.35781C18.7236 8.59472 18.6908 8.90039 18.8022 9.16734C18.9139 9.4343 19.1551 9.62517 19.4405 9.67261L21.9668 10.0936C21.9733 10.0948 21.9797 10.0959 21.9862 10.0967C22.1689 10.1228 22.3017 10.2797 22.3017 10.47V13.5012H22.3019Z" fill="white"/>
</svg>
