<svg width="24" height="24" viewBox="0 0 24 24" fill="none" xmlns="http://www.w3.org/2000/svg">
<path d="M8.4478 18.5173C6.93617 18.5173 5.70654 19.747 5.70654 21.2586C5.70654 22.7702 6.93622 23.9998 8.4478 23.9998C9.95943 23.9998 11.1891 22.7699 11.1891 21.2586C11.1891 19.7473 9.95943 18.5173 8.4478 18.5173ZM8.4478 22.3218C7.86177 22.3218 7.38486 21.8452 7.38486 21.2589C7.38486 20.6726 7.86177 20.1959 8.4478 20.1959C9.03411 20.1959 9.51074 20.6726 9.51074 21.2589C9.51074 21.8452 9.03411 22.3218 8.4478 22.3218Z" fill="white"/>
<path d="M18.4061 18.5173C16.8942 18.5173 15.6646 19.747 15.6646 21.2586C15.6646 22.7702 16.8942 23.9998 18.4061 23.9998C19.9174 23.9998 21.1473 22.7702 21.1473 21.2586C21.1473 19.747 19.9174 18.5173 18.4061 18.5173ZM18.4061 22.3215C17.8198 22.3215 17.3429 21.8446 17.3429 21.2586C17.3429 20.6726 17.8198 20.1959 18.4061 20.1959C18.9921 20.1959 19.469 20.6723 19.469 21.2586C19.469 21.8449 18.9924 22.3215 18.4061 22.3215Z" fill="white"/>
<path d="M7.24489 17.6786H20.3079C20.7716 17.6786 21.147 17.303 21.147 16.8395C21.147 16.376 20.7714 16.0003 20.3079 16.0003H7.95847L5.55594 1.26375C5.49833 0.910734 5.22364 0.633281 4.87147 0.572015L1.65466 0.0125608C1.19674 -0.0668924 0.763473 0.238874 0.684019 0.695343C0.604285 1.15214 0.910332 1.58653 1.3668 1.66599L3.99532 2.12307L6.41656 16.9743C6.48294 17.3807 6.83342 17.6786 7.24489 17.6786Z" fill="white"/>
<path d="M23.1673 5.43622C23.0093 5.21942 22.7575 5.09131 22.4893 5.09131H5.42627V6.76962H21.3382L19.612 12.1402H6.62908V13.8186H20.2238C20.588 13.8186 20.9111 13.583 21.0227 13.2362L23.2884 6.1872C23.3704 5.93187 23.3253 5.65273 23.1673 5.43622Z" fill="white"/>
</svg>
