<svg width="24" height="24" viewBox="0 0 24 24" fill="none" xmlns="http://www.w3.org/2000/svg">
<g clip-path="url(#clip0_2_3558)">
<path d="M21.9351 20.0339L20.7491 8.51796C20.7002 8.04044 20.2979 7.67749 19.8179 7.67749H4.21319C3.73446 7.67749 3.33246 8.03922 3.28221 8.51547L2.0644 20.037C1.9639 21.0426 2.2991 22.0532 2.9838 22.81C3.66855 23.5662 4.6398 24.0003 5.64879 24.0003H18.3825C19.3868 24.0003 20.349 23.5749 21.0213 22.8325C21.7029 22.0812 22.0359 21.0626 21.9351 20.0339ZM19.6346 21.575C19.3113 21.9314 18.8666 22.1277 18.3825 22.1277H5.64911C5.16818 22.1277 4.70285 21.9183 4.37233 21.5532C4.04182 21.188 3.87986 20.7033 3.9273 20.2286L5.05582 9.55038H18.973L20.0722 20.2218C20.1221 20.7283 19.9664 21.2089 19.6346 21.575Z" fill="white"/>
<path d="M12.1717 0C9.21187 0 6.80371 2.40811 6.80371 5.36803V8.6138H8.67628V5.36803C8.67628 3.44053 10.2442 1.87256 12.1717 1.87256C14.0993 1.87256 15.6675 3.44053 15.6675 5.36803V8.6138H17.5397V5.36803C17.5398 2.40811 15.1317 0 12.1717 0Z" fill="white"/>
</g>
<defs>
<clipPath id="clip0_2_3558">
<rect width="24" height="24" fill="white"/>
</clipPath>
</defs>
</svg>
