<svg width="24" height="24" viewBox="0 0 24 24" fill="none" xmlns="http://www.w3.org/2000/svg">
<path d="M19.4211 21.6522V2.34783C19.4211 1.05338 18.368 0 17.0733 0H6.92547C5.63101 0 4.57764 1.05338 4.57764 2.34783V21.6522C4.57764 22.9469 5.63101 24 6.92547 24H17.0994C17.7268 24 18.337 23.742 18.7734 23.2923C19.2095 22.8425 19.4394 22.2517 19.4211 21.6522ZM17.6498 22.2021C17.5045 22.3524 17.3091 22.4348 17.0994 22.4348H6.92547C6.49398 22.4348 6.14284 22.0837 6.14284 21.6522V2.34783C6.14284 1.91634 6.49398 1.5652 6.92547 1.5652H17.0733C17.5048 1.5652 17.8559 1.91634 17.8559 2.34783L17.8562 21.6757C17.8622 21.8718 17.7888 22.0589 17.6498 22.2021Z" fill="white"/>
<path d="M18.6647 3.05225H5.36035V4.61745H18.6647V3.05225Z" fill="white"/>
<path d="M18.6647 18.1567H5.36035V19.7219H18.6647V18.1567Z" fill="white"/>
<path d="M12.6646 20.2695H11.3603C10.928 20.2695 10.5776 20.6199 10.5776 21.0522C10.5776 21.4844 10.928 21.8348 11.3603 21.8348H12.6646C13.0969 21.8348 13.4472 21.4844 13.4472 21.0522C13.4472 20.6199 13.0968 20.2695 12.6646 20.2695Z" fill="white"/>
</svg>
