<svg width="24" height="24" viewBox="0 0 24 24" fill="none" xmlns="http://www.w3.org/2000/svg">
<g clip-path="url(#clip0_2_3606)">
<path d="M10.7494 8.86035C10.3085 8.86035 9.95117 9.21768 9.95117 9.65858V14.3415C9.95117 14.7824 10.3085 15.1397 10.7494 15.1397C11.1903 15.1397 11.5476 14.7824 11.5476 14.3415V9.65858C11.5476 9.21768 11.1903 8.86035 10.7494 8.86035Z" fill="white"/>
<path d="M8.2748 6.38599C7.83389 6.38599 7.47656 6.74331 7.47656 7.18422V16.8164C7.47656 17.2573 7.83389 17.6147 8.2748 17.6147C8.7157 17.6147 9.07303 17.2573 9.07303 16.8162V7.18417C9.07303 6.74331 8.7157 6.38599 8.2748 6.38599Z" fill="white"/>
<path d="M5.77382 4.07104C5.33292 4.07104 4.97559 4.42837 4.97559 4.86928V19.1309C4.97559 19.5718 5.33292 19.9291 5.77382 19.9291C6.21473 19.9291 6.57206 19.5718 6.57206 19.1309V4.86928C6.57206 4.42837 6.21473 4.07104 5.77382 4.07104Z" fill="white"/>
<path d="M3.29921 6.38599C2.85831 6.38599 2.50098 6.74331 2.50098 7.18422V16.8164C2.50098 17.2573 2.85831 17.6147 3.29921 17.6147C3.74012 17.6147 4.09745 17.2573 4.09745 16.8162V7.18417C4.09745 6.74331 3.74007 6.38599 3.29921 6.38599Z" fill="white"/>
<path d="M0.798234 8.70068C0.357328 8.70068 0 9.05801 0 9.49892V14.5011C0 14.9421 0.357328 15.2994 0.798234 15.2994C1.23914 15.2994 1.59647 14.9423 1.59647 14.5011V9.49892C1.59647 9.05801 1.23909 8.70068 0.798234 8.70068Z" fill="white"/>
<path d="M18.2265 4.07104C17.7856 4.07104 17.4282 4.42837 17.4282 4.86928V19.1309C17.4282 19.5718 17.7856 19.9291 18.2265 19.9291C18.6674 19.9291 19.0247 19.5718 19.0247 19.1309V4.86928C19.0247 4.42837 18.6673 4.07104 18.2265 4.07104Z" fill="white"/>
<path d="M15.725 6.38599C15.2841 6.38599 14.9268 6.74331 14.9268 7.18422V16.8164C14.9268 17.2573 15.2841 17.6147 15.725 17.6147C16.1659 17.6147 16.5232 17.2573 16.5232 16.8162V7.18417C16.5232 6.74331 16.1659 6.38599 15.725 6.38599Z" fill="white"/>
<path d="M13.2509 7.63647C12.81 7.63647 12.4526 7.9938 12.4526 8.43471V15.5655C12.4526 16.0064 12.81 16.3638 13.2509 16.3638C13.6918 16.3638 14.0491 16.0067 14.0491 15.5655V8.43471C14.0491 7.9938 13.6917 7.63647 13.2509 7.63647Z" fill="white"/>
<path d="M20.7006 6.38599C20.2597 6.38599 19.9023 6.74331 19.9023 7.18422V16.8164C19.9023 17.2573 20.2597 17.6147 20.7006 17.6147C21.1415 17.6147 21.4988 17.2573 21.4988 16.8162V7.18417C21.4988 6.74331 21.1415 6.38599 20.7006 6.38599Z" fill="white"/>
<path d="M23.202 8.70068C22.7611 8.70068 22.4038 9.05801 22.4038 9.49892V14.5011C22.4038 14.9421 22.7611 15.2994 23.202 15.2994C23.643 15.2994 24.0003 14.9423 24.0003 14.5011V9.49892C24.0003 9.05801 23.643 8.70068 23.202 8.70068Z" fill="white"/>
</g>
<defs>
<clipPath id="clip0_2_3606">
<rect width="24" height="24" fill="white"/>
</clipPath>
</defs>
</svg>
