<svg width="24" height="24" viewBox="0 0 24 24" fill="none" xmlns="http://www.w3.org/2000/svg">
<path d="M7.36883 4.87842H2.30273C1.0117 4.87842 0 5.91556 0 7.23911V16.7998C0 18.1233 1.0117 19.1604 2.30273 19.1604H7.36877C8.00472 19.1604 8.52016 18.6324 8.52016 17.9801V6.05876C8.52022 5.40682 8.00478 4.87842 7.36883 4.87842ZM6.21744 16.7998H2.30273L2.28505 7.24066C2.28505 7.24066 2.29042 7.23911 2.30273 7.23911H6.21744V16.7998Z" fill="white"/>
<path d="M17.4485 0.172572C17.1057 -0.0414636 16.6782 -0.0576092 16.3221 0.130878L7.07227 5.00958L8.12578 7.10861L15.6972 3.11512V20.885L8.12578 16.8912L7.07227 18.9907L16.322 23.8694C16.4874 23.9567 16.6682 24 16.8486 24C17.057 24 17.2646 23.9422 17.4481 23.8273C17.7908 23.6133 18 23.2312 18 22.8197V1.18021C18 0.768653 17.7912 0.386607 17.4485 0.172572Z" fill="white"/>
<path d="M19.5085 9C19.2276 9 19 9.3288 19 9.73446C19 10.1401 19.2276 10.4689 19.5085 10.4689C20.172 10.4689 20.7118 11.2486 20.7118 12.2071C20.7118 13.1656 20.172 13.9456 19.5085 13.9456C19.2276 13.9456 19 14.2744 19 14.68C19 15.0857 19.2276 15.4145 19.5085 15.4145C20.7328 15.4145 21.7287 13.9757 21.7287 12.2071C21.7287 10.4385 20.7329 9 19.5085 9Z" fill="white"/>
<path d="M19.5085 6C19.2276 6 19 6.3288 19 6.73446C19 7.14012 19.2276 7.46892 19.5085 7.46892C21.4243 7.46892 22.983 9.72025 22.983 12.4876C22.983 15.2687 21.4243 17.5311 19.5085 17.5311C19.2276 17.5311 19 17.8599 19 18.2655C19 18.6712 19.2276 19 19.5085 19C21.985 19 23.9999 16.0788 23.9999 12.4876C23.9999 8.91039 21.985 6 19.5085 6Z" fill="white"/>
</svg>
