<svg width="24" height="24" viewBox="0 0 24 24" fill="none" xmlns="http://www.w3.org/2000/svg">
<g clip-path="url(#clip0_2_3650)">
<path d="M17.7761 0.228981C17.4905 0.0650114 17.1389 0.0668395 16.8544 0.232965L6.74865 6.14561H1.16516C0.657263 6.14561 0.245605 6.55727 0.245605 7.06516V16.9349C0.245605 17.4428 0.657263 17.8545 1.16516 17.8545H3.37204C3.87993 17.8545 4.29159 17.4428 4.29159 16.9349C4.29159 16.427 3.87993 16.0154 3.37204 16.0154H2.08471V7.98471H7.01959C7.23231 7.98471 7.43738 7.91117 7.60074 7.77781L16.3989 2.63021V3.63221C16.3989 4.14011 16.8106 4.55176 17.3185 4.55176C17.8264 4.55176 18.238 4.14011 18.238 3.63221V1.02684C18.238 0.697311 18.0618 0.39295 17.7761 0.228981Z" fill="white"/>
<path d="M17.3182 10.1609C16.8103 10.1609 16.3986 10.5725 16.3986 11.0804V21.4474L9.10419 17.5932C8.65512 17.356 8.09853 17.5273 7.86157 17.9767C7.62434 18.4257 7.796 18.9823 8.24501 19.2193L16.8887 23.7861C17.0233 23.8575 17.171 23.8927 17.3181 23.8927C17.4827 23.8927 17.647 23.8483 17.7929 23.7606C18.0688 23.5942 18.2377 23.2956 18.2377 22.9732V11.0804C18.2377 10.5725 17.8261 10.1609 17.3182 10.1609Z" fill="white"/>
<path d="M23.7554 1.62868C23.4102 1.25598 22.8291 1.23296 22.456 1.57811L0.295059 22.0839C-0.0776448 22.4287 -0.100332 23.0105 0.244481 23.3833C0.425935 23.5794 0.672357 23.6784 0.919717 23.6784C1.14317 23.6784 1.36723 23.5978 1.54409 23.4341L23.7048 2.9283C24.0778 2.58316 24.1002 2.00139 23.7554 1.62868Z" fill="white"/>
<path d="M6.98889 6.29883C6.48099 6.29883 6.06934 6.71049 6.06934 7.21838V13.502C6.06934 14.0098 6.48099 14.4215 6.98889 14.4215C7.49645 14.4215 7.90844 14.0098 7.90844 13.502V7.21838C7.90844 6.71049 7.49678 6.29883 6.98889 6.29883Z" fill="white"/>
</g>
<defs>
<clipPath id="clip0_2_3650">
<rect width="24" height="24" fill="white"/>
</clipPath>
</defs>
</svg>
