<svg width="24" height="24" viewBox="0 0 24 24" fill="none" xmlns="http://www.w3.org/2000/svg">
<path d="M22.5 5.40015H1.5C0.672891 5.40015 0 6.07304 0 6.90015V20.7001C0 21.5273 0.672891 22.2001 1.5 22.2001H22.5C23.3271 22.2001 24 21.5273 24 20.7001V6.90015C24 6.07304 23.3271 5.40015 22.5 5.40015ZM22.2 20.4001H1.8V7.20015H22.2V20.4001Z" fill="white"/>
<path d="M14.6999 1.80005H8.9999C7.8419 1.80005 6.8999 2.74205 6.8999 3.90005V21.3H8.6999V3.90005C8.6999 3.73744 8.83729 3.60005 8.9999 3.60005H14.6999C14.8625 3.60005 14.9999 3.73744 14.9999 3.90005V21.3H16.7999V3.90005C16.7999 2.74205 15.8576 1.80005 14.6999 1.80005Z" fill="white"/>
</svg>
