<svg width="24" height="24" viewBox="0 0 24 24" fill="none" xmlns="http://www.w3.org/2000/svg">
<path d="M23.8161 1.59741C23.5937 1.29857 23.2147 1.16198 22.8526 1.24903L0.710525 6.60652C0.339225 6.69633 0.0608321 7.00416 0.00880038 7.38259C-0.0435595 7.76101 0.141036 8.13264 0.474273 8.31967L8.65914 12.9166L10.6752 22.0484C10.7575 22.4219 11.0607 22.7068 11.4385 22.7659C11.4865 22.7734 11.5349 22.7771 11.5825 22.7771C11.9093 22.7771 12.2164 22.6043 12.3843 22.316L23.8737 2.62032C24.061 2.29885 24.0384 1.89596 23.8161 1.59741ZM11.977 19.3273L10.5131 12.6967L13.6539 10.3611C14.0658 10.0551 14.1513 9.47319 13.845 9.06134C13.5387 8.64916 12.9571 8.5646 12.5453 8.87027L9.40573 11.2046L3.44468 7.85701L21.1695 3.56824L11.977 19.3273Z" fill="white"/>
</svg>
