<svg width="24" height="24" viewBox="0 0 24 24" fill="none" xmlns="http://www.w3.org/2000/svg">
<path d="M6.00006 8.19507C3.82131 8.19507 2.04883 9.96756 2.04883 12.1463C2.04883 14.3251 3.82131 16.0976 6.00006 16.0976C8.17881 16.0976 9.9513 14.3251 9.9513 12.1463C9.9513 9.96756 8.17881 8.19507 6.00006 8.19507ZM6.00006 14.3414C4.78952 14.3414 3.80495 13.3568 3.80495 12.1463C3.80495 10.9358 4.78956 9.9512 6.00006 9.9512C7.21056 9.9512 8.19517 10.9358 8.19517 12.1463C8.19517 13.3568 7.21061 14.3414 6.00006 14.3414Z" fill="white"/>
<path d="M18.0001 0C15.8213 0 14.0488 1.77248 14.0488 3.95123C14.0488 6.12998 15.8213 7.90247 18.0001 7.90247C20.1788 7.90247 21.9513 6.12998 21.9513 3.95123C21.9513 1.77248 20.1788 0 18.0001 0ZM18.0001 6.14634C16.7895 6.14634 15.805 5.16178 15.805 3.95123C15.805 2.74069 16.7896 1.75612 18.0001 1.75612C19.2106 1.75612 20.1952 2.74069 20.1952 3.95123C20.1952 5.16173 19.2106 6.14634 18.0001 6.14634Z" fill="white"/>
<path d="M18.0001 16.0977C15.8213 16.0977 14.0488 17.8701 14.0488 20.0489C14.0488 22.2277 15.8213 24.0001 18.0001 24.0001C20.1788 24.0001 21.9513 22.2276 21.9513 20.0489C21.9513 17.8701 20.1788 16.0977 18.0001 16.0977ZM18.0001 22.244C16.7895 22.244 15.805 21.2595 15.805 20.0489C15.805 18.8384 16.7896 17.8538 18.0001 17.8538C19.2106 17.8538 20.1952 18.8384 20.1952 20.0489C20.1952 21.2594 19.2106 22.244 18.0001 22.244Z" fill="white"/>
<path d="M15.3576 5.08897L7.98193 9.85938L8.93569 11.334L16.3113 6.56358L15.3576 5.08897Z" fill="white"/>
<path d="M8.93599 13.0495L7.97998 14.5225L15.1509 19.1766L16.1069 17.7036L8.93599 13.0495Z" fill="white"/>
</svg>
