<svg width="24" height="24" viewBox="0 0 24 24" fill="none" xmlns="http://www.w3.org/2000/svg">
<path d="M6.68981 13.7413L2.28356 8.69742L6.68981 3.65357C7.04588 3.24553 7.00434 2.62589 6.5963 2.26949C6.18825 1.91343 5.56894 1.95529 5.21222 2.36301L0.242297 8.05228C-0.0807656 8.42174 -0.0807656 8.97337 0.242297 9.34284L5.21227 15.0322C5.40647 15.2538 5.6782 15.3676 5.95153 15.3676C6.18042 15.3676 6.41025 15.2879 6.5963 15.1253C7.00439 14.7689 7.0462 14.1493 6.68981 13.7413Z" fill="white"/>
<path d="M16.8717 7.71631H0.980906C0.439125 7.71631 0 8.15539 0 8.69721C0 9.239 0.439125 9.67812 0.980906 9.67812H16.8717C19.7206 9.67812 22.0382 11.9957 22.0382 14.8443C22.0382 17.6929 19.7206 20.0104 16.8717 20.0104H2.28881C1.74703 20.0104 1.30791 20.4495 1.30791 20.9913C1.30791 21.5331 1.74703 21.9722 2.28881 21.9722H16.8717C20.8019 21.9722 24 18.7744 24 14.8443C24 10.9141 20.8022 7.71631 16.8717 7.71631Z" fill="white"/>
</svg>
