<svg width="24" height="24" viewBox="0 0 24 24" fill="none" xmlns="http://www.w3.org/2000/svg">
<g clip-path="url(#clip0_2_3552)">
<path d="M19.6189 9.05518H4.38075C3.57286 9.05518 2.91553 9.71246 2.91553 10.5204V22.5351C2.91557 23.343 3.57286 24.0002 4.38075 24.0002H19.6189C20.4268 24.0002 21.0841 23.343 21.0841 22.535V10.5204C21.084 9.71246 20.4268 9.05518 19.6189 9.05518ZM19.3258 22.242H4.67381V10.8134H19.3258V22.242Z" fill="white"/>
<path d="M11.9412 0C9.40379 0 7.02489 1.47895 5.88029 3.76791C5.66284 4.2022 5.83899 4.73025 6.27324 4.94737C6.70782 5.16483 7.23559 4.98839 7.45271 4.55442C8.30195 2.85595 10.064 1.75823 11.9333 1.75823C14.7169 1.78312 16.9815 4.08352 16.9815 6.88645V9.81684C16.9815 10.3024 17.3751 10.696 17.8607 10.696C18.3462 10.696 18.7398 10.3024 18.7398 9.81684V6.88645C18.7397 3.12262 15.6936 0.0334219 11.9412 0Z" fill="white"/>
<path d="M12.0002 15.5017C11.5147 15.5017 11.1211 15.8953 11.1211 16.3808V18.4321C11.1211 18.9177 11.5147 19.3113 12.0002 19.3113C12.4858 19.3113 12.8794 18.918 12.8794 18.4321V16.3808C12.8794 15.8953 12.4858 15.5017 12.0002 15.5017Z" fill="white"/>
</g>
<defs>
<clipPath id="clip0_2_3552">
<rect width="24" height="24" fill="white"/>
</clipPath>
</defs>
</svg>
