<svg width="24" height="24" viewBox="0 0 24 24" fill="none" xmlns="http://www.w3.org/2000/svg">
<g clip-path="url(#clip0_2_3553)">
<path d="M12.1528 0C11.6469 0 11.2368 0.410062 11.2368 0.916031V15.4504C11.2368 15.9563 11.6469 16.3664 12.1528 16.3664C12.6588 16.3664 13.0689 15.9563 13.0689 15.4504V0.916031C13.0689 0.410062 12.6588 0 12.1528 0Z" fill="white"/>
<path d="M17.8468 4.97899L12.7781 0.246166C12.426 -0.0823809 11.8798 -0.0823809 11.5277 0.246166L6.45896 4.97899C6.08921 5.32432 6.06906 5.90389 6.41438 6.27364C6.59452 6.4669 6.83912 6.56464 7.08399 6.56464C7.3081 6.56464 7.53254 6.48312 7.70902 6.31821L12.1527 2.16888L16.5963 6.31821C16.9667 6.66354 17.5459 6.64339 17.891 6.27364C18.2361 5.90389 18.2165 5.32432 17.8468 4.97899Z" fill="white"/>
<path d="M21.313 7.81689H16.4275C15.9215 7.81689 15.5115 8.22696 15.5115 8.73293C15.5115 9.23889 15.9215 9.64896 16.4275 9.64896H20.397V22.1681H3.60306V9.64896H7.57253C8.0785 9.64896 8.48856 9.23889 8.48856 8.73293C8.48856 8.22696 8.0785 7.81689 7.57253 7.81689H2.68703C2.18106 7.81689 1.771 8.22696 1.771 8.73293V23.0841C1.771 23.5901 2.18106 24.0001 2.68703 24.0001H21.313C21.819 24.0001 22.229 23.5901 22.229 23.0841V8.73293C22.229 8.227 21.819 7.81689 21.313 7.81689Z" fill="white"/>
</g>
<defs>
<clipPath id="clip0_2_3553">
<rect width="24" height="24" fill="white"/>
</clipPath>
</defs>
</svg>
