<svg width="24" height="24" viewBox="0 0 24 24" fill="none" xmlns="http://www.w3.org/2000/svg">
<g clip-path="url(#clip0_2_3644)">
<path d="M11.9999 13.5183C4.78877 13.5183 0.817383 16.9297 0.817383 23.1242C0.817383 23.608 1.20949 24.0001 1.69329 24.0001H22.3064C22.7902 24.0001 23.1823 23.608 23.1823 23.1242C23.1824 16.93 19.211 13.5183 11.9999 13.5183ZM2.60107 22.2483C2.9456 17.6167 6.10324 15.2702 11.9999 15.2702C17.8965 15.2702 21.0542 17.6167 21.399 22.2483H2.60107Z" fill="white"/>
<path d="M12.0002 0C8.68773 0 6.18994 2.54803 6.18994 5.92673C6.18994 9.40439 8.79638 12.2333 12.0002 12.2333C15.2039 12.2333 17.8104 9.40439 17.8104 5.92702C17.8104 2.54803 15.3126 0 12.0002 0ZM12.0002 10.4818C9.7622 10.4818 7.94176 8.43853 7.94176 5.92702C7.94176 3.50775 9.64862 1.75181 12.0002 1.75181C14.314 1.75181 16.0585 3.54656 16.0585 5.92702C16.0585 8.43853 14.2381 10.4818 12.0002 10.4818Z" fill="white"/>
</g>
<defs>
<clipPath id="clip0_2_3644">
<rect width="24" height="24" fill="white"/>
</clipPath>
</defs>
</svg>
