<svg width="24" height="24" viewBox="0 0 24 24" fill="none" xmlns="http://www.w3.org/2000/svg">
<g clip-path="url(#clip0_2_3555)">
<path d="M22.6366 5.18188H7.63659C6.88467 5.18188 6.27295 5.7936 6.27295 6.54553V17.4546C6.27295 18.2065 6.88467 18.8182 7.63659 18.8182H22.6366C23.3885 18.8182 24.0002 18.2065 24.0002 17.4546V6.54553C24.0002 5.79365 23.3885 5.18188 22.6366 5.18188ZM22.3639 17.1819H7.90931V6.81829H22.3639V17.1819Z" fill="white"/>
<path d="M6.72244 13.8876L1.63636 16.4528V7.52674L6.7328 10.0085L7.44923 8.53717L1.17656 5.48266C0.922922 5.35938 0.623484 5.37494 0.384563 5.52466C0.145359 5.67382 0 5.93622 0 6.21822V17.7819C0 18.0661 0.147281 18.3298 0.389203 18.4787C0.520406 18.5594 0.669 18.6 0.818203 18.6C0.944203 18.6 1.07048 18.5711 1.18664 18.5125L7.45936 15.3485L6.72244 13.8876Z" fill="white"/>
</g>
<defs>
<clipPath id="clip0_2_3555">
<rect width="24" height="24" fill="white"/>
</clipPath>
</defs>
</svg>
