<svg width="24" height="24" viewBox="0 0 24 24" fill="none" xmlns="http://www.w3.org/2000/svg">
<g clip-path="url(#clip0_2_3556)">
<path d="M20.5263 16.4471V21.0523H2.6842C2.06447 21.0523 1.57894 20.5668 1.57894 19.9471V4.71021H0V19.9471C0 21.427 1.20422 22.6313 2.6842 22.6313H21.3158C21.7518 22.6313 22.1053 22.2778 22.1053 21.8418V16.4471H20.5263Z" fill="white"/>
<path d="M23.2104 11.3423H17.2367C16.8007 11.3423 16.4473 11.6957 16.4473 12.1318V16.4475C16.4473 16.8836 16.8007 17.237 17.2367 17.237H23.2104C23.6465 17.237 23.9999 16.8836 23.9999 16.4475V12.1318C23.9999 11.6957 23.6465 11.3423 23.2104 11.3423ZM22.421 15.6581H18.0262V12.9212H22.421V15.6581Z" fill="white"/>
<path d="M21.2895 6.10551H19.3947V2.15812C19.3947 1.72209 19.0413 1.36865 18.6052 1.36865H3.15787C1.41656 1.36865 0 2.78521 0 4.52653C0 6.26784 1.41656 7.6844 3.15787 7.6844H20.5V12.1581H22.0789V6.89498C22.079 6.4589 21.7255 6.10551 21.2895 6.10551ZM17.8158 6.10551H3.15787C2.27259 6.10551 1.57894 5.41181 1.57894 4.52657C1.57894 3.64134 2.27264 2.94764 3.15787 2.94764H17.8158V6.10551Z" fill="white"/>
<path d="M18.605 3.76343H3.184C2.74797 3.76343 2.39453 4.11687 2.39453 4.5529C2.39453 4.98893 2.74797 5.34237 3.184 5.34237H18.605C19.0411 5.34237 19.3945 4.98893 19.3945 4.5529C19.3945 4.11687 19.0411 3.76343 18.605 3.76343Z" fill="white"/>
</g>
<defs>
<clipPath id="clip0_2_3556">
<rect width="24" height="24" fill="white"/>
</clipPath>
</defs>
</svg>
