<svg width="24" height="24" viewBox="0 0 24 24" fill="none" xmlns="http://www.w3.org/2000/svg">
<g clip-path="url(#clip0_2_3613)">
<path d="M11.9998 0C6.62619 0 2.25439 4.3718 2.25439 9.74545C2.25439 15.1191 6.62619 19.4909 11.9998 19.4909C17.3735 19.4909 21.7453 15.1191 21.7453 9.74545C21.7453 4.3718 17.3735 0 11.9998 0ZM11.9998 17.7455C7.58849 17.7455 3.99983 14.1565 3.99983 9.74545C3.99983 5.33409 7.58849 1.74544 11.9998 1.74544C16.4109 1.74544 19.9999 5.33409 19.9999 9.74545C19.9999 14.1565 16.4109 17.7455 11.9998 17.7455Z" fill="white"/>
<path d="M12.0002 4.18896C8.93638 4.18896 6.44385 6.6815 6.44385 9.74534C6.44385 12.8092 8.93638 15.3017 12.0002 15.3017C15.0638 15.3017 17.5566 12.8089 17.5566 9.74534C17.5566 6.6815 15.0638 4.18896 12.0002 4.18896ZM12.0002 13.5562C9.89867 13.5562 8.18933 11.8466 8.18933 9.74534C8.18933 7.64379 9.89872 5.93445 12.0002 5.93445C14.1017 5.93445 15.8111 7.64384 15.8111 9.74534C15.8111 11.8468 14.1018 13.5562 12.0002 13.5562Z" fill="white"/>
<path d="M19.8467 22.6784L16.6174 17.2966L15.1207 18.1949L17.5568 22.2549H6.44316L8.87925 18.1952L7.38253 17.2969L4.15336 22.6787C3.99131 22.9481 3.98724 23.2841 4.14202 23.5579C4.29708 23.8313 4.5871 24.0003 4.90158 24.0003H19.098C19.4124 24.0003 19.7027 23.8313 19.8578 23.5575C20.0129 23.2838 20.0088 22.9481 19.8467 22.6784Z" fill="white"/>
</g>
<defs>
<clipPath id="clip0_2_3613">
<rect width="24" height="24" fill="white"/>
</clipPath>
</defs>
</svg>
