<svg width="24" height="24" viewBox="0 0 24 24" fill="none" xmlns="http://www.w3.org/2000/svg">
<path d="M12 9.33496C10.5305 9.33496 9.33496 10.5305 9.33496 12C9.33496 13.4696 10.5305 14.6651 12 14.6651C13.4696 14.6651 14.6651 13.4696 14.6651 12C14.6651 10.5305 13.4696 9.33496 12 9.33496ZM12 12.927C11.489 12.927 11.073 12.511 11.073 12C11.073 11.489 11.489 11.073 12 11.073C12.5111 11.073 12.927 11.489 12.927 12C12.927 12.511 12.5113 12.927 12 12.927Z" fill="white"/>
<path d="M4.41647 4.28833C4.07723 3.94881 3.52687 3.94881 3.18764 4.28833C1.13208 6.34394 0 9.08256 0 11.9999C0 14.9173 1.13208 17.6559 3.18764 19.7115C3.35709 19.8812 3.57956 19.9661 3.80203 19.9661C4.0245 19.9661 4.24697 19.8812 4.41642 19.7115C4.75594 19.3723 4.75594 18.8219 4.41642 18.4827C0.842063 14.908 0.842063 9.09184 4.41642 5.5172C4.75598 5.17797 4.75598 4.62756 4.41647 4.28833Z" fill="white"/>
<path d="M8.03737 7.12671C7.69813 6.78719 7.14777 6.78719 6.80854 7.12671C4.12176 9.81349 4.12176 14.1856 6.80854 16.8724C6.97827 17.0422 7.20074 17.1271 7.42326 17.1271C7.64573 17.1271 7.86819 17.0422 8.03737 16.8722C8.3766 16.5329 8.3766 15.9828 8.03737 15.6433C6.02817 13.6341 6.02817 10.3648 8.03737 8.35554C8.37688 8.0163 8.37688 7.46589 8.03737 7.12671Z" fill="white"/>
<path d="M20.8126 4.28833C20.4731 3.94881 19.9233 3.94881 19.5837 4.28833C19.2442 4.62756 19.2442 5.17792 19.5837 5.51716C23.1584 9.0918 23.1584 14.908 19.5837 18.4826C19.2442 18.8219 19.2442 19.3722 19.5837 19.7115C19.7535 19.8812 19.9757 19.9661 20.1981 19.9661C20.4203 19.9661 20.6428 19.8812 20.8125 19.7115C22.8678 17.6559 24.0002 14.9173 24.0002 11.9999C24.0002 9.08256 22.8681 6.34394 20.8126 4.28833Z" fill="white"/>
<path d="M15.9626 7.12709C15.6231 7.46661 15.6231 8.01668 15.9626 8.3562C16.9331 9.32693 17.4678 10.6209 17.4678 12.0001C17.4678 13.3792 16.9333 14.6729 15.9626 15.6439C15.6231 15.9832 15.6231 16.5335 15.9626 16.8728C16.1324 17.0425 16.3546 17.1274 16.577 17.1274C16.7992 17.1274 17.0217 17.0425 17.1914 16.8728C18.4903 15.5739 19.2059 13.8433 19.2059 12.0001C19.2059 10.1569 18.4904 8.426 17.1914 7.12709C16.852 6.78786 16.3022 6.78757 15.9626 7.12709Z" fill="white"/>
</svg>
